<?xml version="1.0" encoding="utf-8"?>
<!-- Generator: Adobe Illustrator 27.5.0, SVG Export Plug-In . SVG Version: 6.00 Build 0)  -->
<svg version="1.1" xmlns="http://www.w3.org/2000/svg" xmlns:xlink="http://www.w3.org/1999/xlink" x="0px" y="0px"
	 viewBox="0 0 500 500" style="enable-background:new 0 0 500 500;" xml:space="preserve">
<g id="Background_Complete">
	<path style="fill:#E6E6E6;" d="M303.39,382.432c0,0-57.332-91.55-133.317-91.55c-85.191,0-121.922,90.314-121.922,90.314
		L303.39,382.432z"/>
	<g>
		<rect x="416.779" y="398.494" style="fill:#EBEBEB;" width="33.122" height="0.25"/>
		<rect x="322.527" y="401.208" style="fill:#EBEBEB;" width="8.693" height="0.25"/>
		<rect x="396.586" y="389.208" style="fill:#EBEBEB;" width="19.192" height="0.25"/>
		<rect x="52.459" y="390.888" style="fill:#EBEBEB;" width="43.193" height="0.25"/>
		<rect x="104.556" y="390.888" style="fill:#EBEBEB;" width="6.333" height="0.25"/>
		<rect x="131.471" y="395.111" style="fill:#EBEBEB;" width="93.676" height="0.25"/>
		<path style="fill:#EBEBEB;" d="M237.014,337.8H43.915c-3.147,0-5.708-2.561-5.708-5.708V60.66c0-3.147,2.561-5.708,5.708-5.708
			h193.099c3.146,0,5.707,2.561,5.707,5.708v271.432C242.721,335.239,240.16,337.8,237.014,337.8z M43.915,55.203
			c-3.01,0-5.458,2.448-5.458,5.458v271.432c0,3.01,2.448,5.458,5.458,5.458h193.099c3.009,0,5.457-2.448,5.457-5.458V60.66
			c0-3.009-2.448-5.458-5.457-5.458H43.915z"/>
		<path style="fill:#EBEBEB;" d="M453.31,337.8H260.212c-3.147,0-5.707-2.561-5.707-5.708V60.66c0-3.147,2.561-5.708,5.707-5.708
			H453.31c3.148,0,5.708,2.561,5.708,5.708v271.432C459.019,335.239,456.458,337.8,453.31,337.8z M260.212,55.203
			c-3.009,0-5.457,2.448-5.457,5.458v271.432c0,3.01,2.448,5.458,5.457,5.458H453.31c3.01,0,5.458-2.448,5.458-5.458V60.66
			c0-3.009-2.448-5.458-5.458-5.458H260.212z"/>
		<rect y="382.398" style="fill:#EBEBEB;" width="500" height="0.25"/>
	</g>
	<path style="fill:#EBEBEB;" d="M38.457,381.926c0,0,147.764-99.665,287.99-99.665c100.094,0,132.572,100.095,132.572,100.095
		L38.457,381.926z"/>
	<path style="fill:#F0F0F0;" d="M292.348,383.066c0,0,38.676-30.934,53.258-31.46c14.582-0.526,120.087,29.899,120.087,29.899
		L292.348,383.066z"/>
	<path style="fill:#F0F0F0;" d="M213.088,383.066c0,0-46.707-23.66-53.9-24.186c-7.193-0.526-31.612,22.624-31.612,22.624
		L213.088,383.066z"/>
	<path style="fill:#F5F5F5;" d="M172.9,383.066c0,0-76.855-23.66-88.691-24.186c-11.836-0.526-52.016,22.624-52.016,22.624
		L172.9,383.066z"/>
	<g>
		<path style="fill:#F0F0F0;" d="M278.695,271.184c-2.15-0.394-6.271,3.587-8.294,2.76c-1.556-0.635-1.843-4.831-3.069-5.981
			c-1.677-1.572-7.741-1.472-8.433-3.664c-1.428-4.521,5.298-15.029,9.898-16.178c3.301-0.824,8.536,5.721,11.726,6.905
			c2.959,1.098,10.329-0.118,12.422,2.243c2.422,2.732,1.959,11.523,0,14.604c-1.261,1.983-6.208,4.453-8.512,3.987
			C282.619,275.495,280.515,271.517,278.695,271.184z"/>
		<path style="fill:#E0E0E0;" d="M270.52,265.331c-0.845-0.906-3.669-3.014-3.669-3.014l0.104-0.332l4.016,2.714l1.63-4.805
			l0.268,0.222c0,0-1.308,3.557-1.105,4.81c0.439,2.712,6.109,8.758,6.109,8.758h0c0,0,4.064-4.645,4.822-6.526
			c0.626-1.556,0.864-6.653,0.864-6.653l0.268,0.042l-0.352,5.965l5.998-4.932l0.104,0.332c0,0-4.854,3.853-6.169,5.432
			c-1.014,1.219-2.922,4.626-3.885,6.389c-0.385,0.706-0.575,1.501-0.55,2.304l0.484,16.895h-2.821l0.47-16.245
			c0.033-1.056-0.498-2.099-1.035-3.008C274.718,271.385,272.015,266.932,270.52,265.331z"/>
	</g>
	<g>
		<path style="fill:#F5F5F5;" d="M422.763,310.22c2.15-0.394,6.271,3.587,8.294,2.761c1.556-0.635,1.843-4.832,3.069-5.981
			c1.677-1.573,7.741-1.472,8.433-3.664c1.428-4.521-5.298-15.029-9.898-16.178c-3.301-0.824-8.536,5.721-11.726,6.905
			c-2.959,1.098-10.329-0.118-12.423,2.243c-2.422,2.732-1.959,11.523,0,14.604c1.261,1.983,6.208,4.453,8.512,3.987
			C418.839,314.531,420.943,310.554,422.763,310.22z"/>
		<path style="fill:#E0E0E0;" d="M418.683,304.368c-0.845-0.906-3.669-3.014-3.669-3.014l0.104-0.332l4.016,2.714l1.63-4.805
			l0.268,0.222c0,0-1.308,3.557-1.105,4.811c0.439,2.712,6.109,8.757,6.109,8.757h0c0,0,4.064-4.645,4.822-6.526
			c0.626-1.556,0.864-6.653,0.864-6.653l0.268,0.042l-0.352,5.965l5.998-4.932l0.104,0.332c0,0-4.854,3.853-6.169,5.433
			c-1.014,1.219-2.922,4.626-3.885,6.389c-0.385,0.706-0.574,1.501-0.55,2.304l0.484,16.895h-2.821l0.47-16.245
			c0.033-1.056-0.498-2.099-1.035-3.008C422.881,310.421,420.178,305.969,418.683,304.368z"/>
	</g>
	<g>
		<path style="fill:#F5F5F5;" d="M160.301,285.012c2.15-0.394,6.271,3.587,8.294,2.761c1.556-0.635,1.843-4.832,3.069-5.981
			c1.677-1.573,7.741-1.472,8.433-3.664c1.428-4.521-5.298-15.029-9.898-16.178c-3.301-0.824-8.536,5.721-11.726,6.905
			c-2.959,1.098-10.329-0.118-12.423,2.243c-2.422,2.732-1.959,11.523,0,14.604c1.261,1.983,6.208,4.453,8.512,3.987
			C156.376,289.323,158.48,285.346,160.301,285.012z"/>
		<path style="fill:#E0E0E0;" d="M156.221,279.159c-0.845-0.906-3.669-3.014-3.669-3.014l0.104-0.332l4.016,2.714l1.63-4.805
			l0.268,0.222c0,0-1.308,3.557-1.105,4.81c0.439,2.712,6.109,8.757,6.109,8.757h0c0,0,4.064-4.645,4.822-6.526
			c0.626-1.556,0.865-6.653,0.865-6.653l0.268,0.042l-0.352,5.965l5.998-4.932l0.104,0.332c0,0-4.854,3.853-6.169,5.433
			c-1.014,1.219-2.922,4.626-3.885,6.389c-0.385,0.706-0.575,1.501-0.55,2.304l0.484,16.895h-2.821l0.47-16.245
			c0.033-1.056-0.498-2.099-1.035-3.008C160.418,285.213,157.715,280.761,156.221,279.159z"/>
	</g>
	<g>
		<path style="fill:#F5F5F5;" d="M121.47,317.047c6.411-1.175,18.704,10.698,24.738,8.233c4.641-1.895,5.497-14.41,9.153-17.838
			c5.001-4.69,23.087-4.391,25.152-10.929c4.259-13.485-15.802-44.823-29.522-48.25c-9.844-2.459-25.46,17.063-34.972,20.595
			c-8.824,3.275-30.806-0.353-37.05,6.691c-7.222,8.149-5.842,34.368,0,43.557c3.761,5.914,18.516,13.281,25.386,11.893
			C109.767,329.904,116.041,318.042,121.47,317.047z"/>
		<path style="fill:#E0E0E0;" d="M109.302,299.591c-2.521-2.701-10.942-8.99-10.942-8.99l0.31-0.991l11.977,8.094l4.862-14.33
			l0.799,0.663c0,0-3.901,10.608-3.295,14.347c1.31,8.088,18.22,26.119,18.22,26.119h0.001c0,0,12.121-13.852,14.381-19.465
			c1.868-4.64,2.578-19.843,2.578-19.843l0.799,0.126l-1.05,17.791l17.889-14.71l0.311,0.991c0,0-14.478,11.491-18.398,16.202
			c-3.025,3.636-8.716,13.798-11.587,19.055c-1.15,2.105-1.713,4.475-1.64,6.873l1.443,50.389h-8.414l1.401-48.451
			c0.098-3.149-1.485-6.259-3.087-8.972C121.821,317.646,113.761,304.368,109.302,299.591z"/>
	</g>
	<g>
		<path style="fill:#F5F5F5;" d="M67.371,334.097c-2.15-0.394-6.271,3.587-8.294,2.76c-1.556-0.635-1.843-4.832-3.069-5.981
			c-1.677-1.572-7.741-1.472-8.433-3.664c-1.428-4.521,5.298-15.029,9.898-16.178c3.301-0.824,8.536,5.721,11.726,6.905
			c2.959,1.098,10.329-0.118,12.423,2.243c2.422,2.732,1.959,11.523,0,14.604c-1.261,1.983-6.208,4.453-8.512,3.987
			C71.295,338.408,69.191,334.431,67.371,334.097z"/>
		<path style="fill:#E0E0E0;" d="M71.451,328.244c0.845-0.906,3.669-3.014,3.669-3.014l-0.104-0.332l-4.016,2.714l-1.63-4.805
			l-0.268,0.222c0,0,1.308,3.557,1.105,4.811c-0.439,2.712-6.109,8.758-6.109,8.758h0c0,0-4.064-4.645-4.822-6.526
			c-0.626-1.556-0.864-6.653-0.864-6.653l-0.268,0.042l0.352,5.965l-5.998-4.932l-0.104,0.332c0,0,4.854,3.853,6.169,5.432
			c1.014,1.219,2.922,4.626,3.885,6.389c0.385,0.706,0.575,1.501,0.55,2.304l-0.484,16.895h2.821l-0.47-16.245
			c-0.033-1.056,0.498-2.099,1.035-3.008C67.253,334.298,69.956,329.846,71.451,328.244z"/>
	</g>
	<g>
		<path style="fill:#E6E6E6;" d="M439.08,344.245c0,0-9.952-1.158-10.977-3.882c-0.831-2.209,4.053-5.942,4.618-8.233
			c0.437-1.771-0.743-5.553-0.201-7.296c0.48-1.544,3.451-3.646,3.815-5.221c0.173-0.745-0.72-2.27-0.535-3.012
			c0.419-1.689,2.565-5.764,4.284-5.488c2.711,0.434,3.867,7.497,3.963,10.241c0.036,1.033-1.322,2.921-1.219,3.949
			c0.185,1.84,3.612,4.644,3.547,6.492c-0.027,0.775-1.651,1.836-1.673,2.61c-0.041,1.401,3.108,3.533,2.744,4.886
			C446.816,341.64,439.08,344.245,439.08,344.245z"/>
		<path style="fill:#E0E0E0;" d="M439.476,329.13l-0.284-11.145l-0.402,0.023l-0.469,18.161c0,0-3.379,1.033-4.543,1.182
			c-0.614,0.079-2.477,0-2.477,0v0.223c0,0,1.959,0.14,2.61,0.089c0.323-0.025,1.272-0.246,1.272-0.246l-1.227,1.183l0.139,0.156
			l1.59-1.422l2.622-0.648l-0.435,16.831h2.225l-0.614-24.07L439.476,329.13z"/>
	</g>
	<g>
		<path style="fill:#F5F5F5;" d="M355.914,339.56c0,0-38.565-4.487-42.536-15.043c-3.22-8.559,15.706-23.023,17.896-31.902
			c1.693-6.865-2.88-21.52-0.778-28.271c1.862-5.981,13.371-14.128,14.784-20.23c0.668-2.887-2.789-8.795-2.075-11.671
			c1.625-6.546,9.94-22.335,16.6-21.268c10.504,1.682,14.985,29.051,15.357,39.683c0.14,4.001-5.124,11.319-4.723,15.303
			c0.718,7.131,13.997,17.995,13.746,25.158c-0.105,3.002-6.396,7.113-6.484,10.115c-0.158,5.427,12.042,13.691,10.634,18.934
			C385.892,329.464,355.914,339.56,355.914,339.56z"/>
		<path style="fill:#E0E0E0;" d="M357.451,287.036l-1.1-43.186l-1.559,0.088l-1.818,70.373c0,0-13.094,4.004-17.605,4.582
			c-2.38,0.305-9.596,0-9.596,0v0.865c0,0,7.593,0.544,10.115,0.346c1.251-0.098,4.928-0.951,4.928-0.951l-4.754,4.583l0.54,0.605
			l6.16-5.511l10.161-2.512l-1.684,65.218h8.623l-2.378-93.269L357.451,287.036z"/>
	</g>
	<g>
		<path style="fill:#EBEBEB;" d="M190.536,287.749c0,0-9.952-1.158-10.977-3.882c-0.831-2.209,4.053-5.942,4.618-8.233
			c0.437-1.772-0.743-5.554-0.201-7.296c0.48-1.543,3.451-3.646,3.815-5.221c0.173-0.745-0.72-2.27-0.536-3.012
			c0.42-1.689,2.565-5.764,4.284-5.489c2.711,0.434,3.867,7.497,3.963,10.241c0.036,1.033-1.323,2.921-1.219,3.949
			c0.185,1.84,3.612,4.644,3.548,6.492c-0.027,0.775-1.651,1.836-1.673,2.61c-0.041,1.4,3.107,3.533,2.744,4.886
			C198.272,285.144,190.536,287.749,190.536,287.749z"/>
		<path style="fill:#E0E0E0;" d="M190.933,272.634l-0.284-11.145l-0.402,0.023l-0.469,18.161c0,0-3.379,1.033-4.543,1.183
			c-0.614,0.079-2.477,0-2.477,0v0.223c0,0,1.959,0.14,2.61,0.089c0.323-0.025,1.272-0.245,1.272-0.245l-1.227,1.182l0.139,0.156
			l1.59-1.422l2.622-0.648l-0.435,16.831h2.225l-0.614-24.069L190.933,272.634z"/>
	</g>
	<path style="fill:#EBEBEB;" d="M402.104,180.682c-7.015,0.021-26.684,3.242-26.684-8.681c0-10.131,9.613-9.385,9.613-9.385
		s-0.278-8.777,8.287-9.944c8.784-1.197,10.11,8.287,10.11,8.287s15.248-6.039,12.928,9.116c0,0,8.453-1.685,8.453,5.138
		C424.811,182.837,408.9,180.661,402.104,180.682z"/>
	<path style="fill:#F5F5F5;" d="M300.547,103.718c12.168,0.036,46.285,5.624,46.285-15.057c0-17.572-16.674-16.279-16.674-16.279
		s0.482-15.224-14.374-17.249c-15.237-2.076-17.536,14.374-17.536,14.374s-26.448-10.475-22.423,15.812
		c0,0-14.661-2.922-14.661,8.912C261.163,107.455,288.761,103.683,300.547,103.718z"/>
	<g>
		<path style="fill:#F0F0F0;" d="M153.894,231.037l-20.541-0.395l-1.707,0.725c-9.407,3.996-20.119,3.512-29.127-1.318l0,0
			l-17.182-0.33c0,0-15.961-6.364-13.574-22.361c2.387-15.997,26.403-2.168,26.403-2.168s-6.927-22.517,16.456-15.717
			c23.384,6.8,25.248,29.027,25.248,29.027S170.846,213.705,153.894,231.037z"/>
	</g>
</g>
<g id="Background_Simple" style="display:none;">
	<g style="display:inline;">
		<path style="fill:#407BFF;" d="M362.786,177.546c-10.426-29.688-38.145-117.541-111-117.61
			c-75.924-0.072-87.945,51.514-78.214,121.553c9.087,65.406-68.271,48.792-55.979,137.262
			C128,393.658,253.235,446.3,336.417,354.486C386.921,298.742,374.57,211.1,362.786,177.546z"/>
		<path style="opacity:0.9;fill:#FFFFFF;" d="M362.786,177.546c-10.426-29.688-38.145-117.541-111-117.61
			c-75.924-0.072-87.945,51.514-78.214,121.553c9.087,65.406-68.271,48.792-55.979,137.262
			C128,393.658,253.235,446.3,336.417,354.486C386.921,298.742,374.57,211.1,362.786,177.546z"/>
	</g>
</g>
<g id="Shadow">
	<ellipse id="_x3C_Path_x3E__1_" style="fill:#F5F5F5;" cx="245.178" cy="412.391" rx="193.889" ry="11.323"/>
</g>
<g id="Sun">
	<g>
		<circle style="fill:#407BFF;" cx="363.182" cy="84.705" r="17.5"/>
		<circle style="opacity:0.8;fill:#FFFFFF;" cx="363.182" cy="84.705" r="17.5"/>
	</g>
</g>
<g id="Plants">
	<g>
		<g>
			<g>
				<path style="fill:#407BFF;" d="M279.526,406.271c0,0,0.009-0.007,0.028-0.012c6.222-1.547,32.051,0.999,9.93-39.426
					c-1.629-2.977-3.023-5.481-3.002-5.492c18.243,13.715,22.118,23.983,29.304,39.29c3.299,1.47-6.845-24.921-12.54-33.152
					c12.434,7.661,17.523,23.093,24.676,33.979c-7.824-17.064-7.349-26.686-7.195-32.223c4.577,14.88,10.048,25.633,17.787,32.098
					c8.319,1.414-2.667-20.969-9.564-30.177c12.158,7.416,16.17,19.372,27.267,27.699c-2.329-8.362-5.241-16.377-6.114-24.889
					c2.62,3.571,4.12,7.536,6.105,11.334c1.984,3.798,8.32,13.194,13.91,13.194c6.653-0.303,3.631-22.114-2.644-29.911
					c9.535,3.06,12.929,24.413,15,28.216c2.047-4.993,2.519-20.4,1.132-25.547c3.309,5.046,5.818,20.256,8.373,25.547
					c0.673-4.742,2.376-25.373,15.396-32.756c0.503-0.285,0.851-0.783,1.276-1.174c-2.181,3.15-10.019,19.563-6.692,29.072
					c0.746-15.142,7.98-27.354,12.638-30.153c-7.176,13.139-8.04,28.256-2.396,41.91c0.435,1.052,1.499,2.475,1.764,3.558
					C385.59,407.22,279.555,406.259,279.526,406.271z"/>
			</g>
		</g>
		<g style="opacity:0.8;">
			<g>
				<path style="fill:#FFFFFF;" d="M279.526,406.271c0,0,0.009-0.007,0.028-0.012c6.222-1.547,32.051,0.999,9.93-39.426
					c-1.629-2.977-3.023-5.481-3.002-5.492c18.243,13.715,22.118,23.983,29.304,39.29c3.299,1.47-6.845-24.921-12.54-33.152
					c12.434,7.661,17.523,23.093,24.676,33.979c-7.824-17.064-7.349-26.686-7.195-32.223c4.577,14.88,10.048,25.633,17.787,32.098
					c8.319,1.414-2.667-20.969-9.564-30.177c12.158,7.416,16.17,19.372,27.267,27.699c-2.329-8.362-5.241-16.377-6.114-24.889
					c2.62,3.571,4.12,7.536,6.105,11.334c1.984,3.798,8.32,13.194,13.91,13.194c6.653-0.303,3.631-22.114-2.644-29.911
					c9.535,3.06,12.929,24.413,15,28.216c2.047-4.993,2.519-20.4,1.132-25.547c3.309,5.046,5.818,20.256,8.373,25.547
					c0.673-4.742,2.376-25.373,15.396-32.756c0.503-0.285,0.851-0.783,1.276-1.174c-2.181,3.15-10.019,19.563-6.692,29.072
					c0.746-15.142,7.98-27.354,12.638-30.153c-7.176,13.139-8.04,28.256-2.396,41.91c0.435,1.052,1.499,2.475,1.764,3.558
					C385.59,407.22,279.555,406.259,279.526,406.271z"/>
			</g>
		</g>
	</g>
	<g>
		<g>
			<path style="fill:#407BFF;" d="M241.792,405.52c-0.81,0.13-1.74,0.26-2.77,0.39h-152.9c-0.26-1.68,0.16-3.62,0.72-5.17
				c2.93-8.04,3.14-16.83,0.57-24.87c3.88,6.67,5.23,12.95,5.31,20.57c0.7-7.22-1-28.6-0.28-35.81c8.95,10.3,3.73,32.05,8.95,38.95
				c6.2-1.67,0.9-37.51,1.51-34.96c3.33,0.1,6.44,19.46,7.36,25.99c-0.3-10.26,4.48-30.11,20.37-42.92
				c-15.43,20.46-11.12,37.51-10.64,52.39c4.83-12.66,6.87-17.4,3.57-30.33c12.6,11.8,0.64,32.59,7.12,33.44
				c0,0,6.13-23.5,16.67-37.23c-3.49,15.62,0.76,28.65,2.27,32.51c3.64,2.82,0.14-29.76,7.15-38.23c0.85,6.09,3.48,34.82,6.87,31
				c-0.32-10.24-3.21-32.84-9.18-41.05c5.87,4.33,10.65,10.17,13.78,16.84c0.27-0.75,0.54-1.5,0.8-2.26
				c1.88-5.5,3.37-11.1,4.47-16.68c0.27,5.89-0.24,15.42-1.29,25.22c1.55,4.74,2.66,9.3,3.44,13.46c1.77-5.13,3.54-11.08,6.2-18.34
				c-2.68,7.61-1.62,15.06,0,22.85c11.43,1.58,9.79-24.58,7.78-32.78c9.25,3.22,10.68,24.62,10.87,35.81c0,0,8.97-6.81,14.96-35.95
				c5.12,9.63-1.96,35.68,5.12,41.43c2,1.63,2.55-32.39,16.72-40.05c-5.53,2.99-6.35,19.27-3.96,30.89
				C235.292,400.07,241.792,405.52,241.792,405.52z"/>
			<path style="opacity:0.8;fill:#FFFFFF;" d="M241.792,405.52c-0.81,0.13-1.74,0.26-2.77,0.39h-152.9
				c-0.26-1.68,0.16-3.62,0.72-5.17c2.93-8.04,3.14-16.83,0.57-24.87c3.88,6.67,5.23,12.95,5.31,20.57c0.7-7.22-1-28.6-0.28-35.81
				c8.95,10.3,3.73,32.05,8.95,38.95c6.2-1.67,0.9-37.51,1.51-34.96c3.33,0.1,6.44,19.46,7.36,25.99
				c-0.3-10.26,4.48-30.11,20.37-42.92c-15.43,20.46-11.12,37.51-10.64,52.39c4.83-12.66,6.87-17.4,3.57-30.33
				c12.6,11.8,0.64,32.59,7.12,33.44c0,0,6.13-23.5,16.67-37.23c-3.49,15.62,0.76,28.65,2.27,32.51c3.64,2.82,0.14-29.76,7.15-38.23
				c0.85,6.09,3.48,34.82,6.87,31c-0.32-10.24-3.21-32.84-9.18-41.05c5.87,4.33,10.65,10.17,13.78,16.84
				c0.27-0.75,0.54-1.5,0.8-2.26c1.88-5.5,3.37-11.1,4.47-16.68c0.27,5.89-0.24,15.42-1.29,25.22c1.55,4.74,2.66,9.3,3.44,13.46
				c1.77-5.13,3.54-11.08,6.2-18.34c-2.68,7.61-1.62,15.06,0,22.85c11.43,1.58,9.79-24.58,7.78-32.78
				c9.25,3.22,10.68,24.62,10.87,35.81c0,0,8.97-6.81,14.96-35.95c5.12,9.63-1.96,35.68,5.12,41.43c2,1.63,2.55-32.39,16.72-40.05
				c-5.53,2.99-6.35,19.27-3.96,30.89C235.292,400.07,241.792,405.52,241.792,405.52z"/>
		</g>
		<g>
			<g>
				<path style="fill:#407BFF;" d="M283.156,407.089c0,0-15.87-42.479-11.835-16.926c0,0-18.022-12.235-8.608,4.373
					c0,0-19.367-5.18-8.876,6.387c0,0-16.408,4.801-6.187,6.166C257.872,408.455,283.156,407.089,283.156,407.089z"/>
				<path style="opacity:0.2;fill:#FFFFFF;" d="M283.156,407.089c0,0-15.87-42.479-11.835-16.926c0,0-18.022-12.235-8.608,4.373
					c0,0-19.367-5.18-8.876,6.387c0,0-16.408,4.801-6.187,6.166C257.872,408.455,283.156,407.089,283.156,407.089z"/>
			</g>
			<g>
				<path style="fill:#407BFF;" d="M278.555,407.168c0,0,5.085-29.629,14.771-19.9c0,0,7.265-5.042,10.171,3.918
					c0,0,10.413-3.148,6.538,1.695c0,0,6.296,1.453,4.117,6.78c0,0,6.054,0,4.843,4.843
					C317.784,409.348,278.555,407.168,278.555,407.168z"/>
				<path style="opacity:0.3;fill:#FFFFFF;" d="M278.555,407.168c0,0,5.085-29.629,14.771-19.9c0,0,7.265-5.042,10.171,3.918
					c0,0,10.413-3.148,6.538,1.695c0,0,6.296,1.453,4.117,6.78c0,0,6.054,0,4.843,4.843
					C317.784,409.348,278.555,407.168,278.555,407.168z"/>
			</g>
		</g>
		<g>
			<g>
				<g>
					<g>
						<path style="fill:#407BFF;" d="M149.014,406.948c-2.518,0.046-4.901-2.128-5.226-4.768c-0.325-2.64,1.452-5.386,3.897-6.022
							c-4.15-1.165-7.316-5.469-7.362-10.007c-0.046-4.538,3.033-8.912,7.159-10.17c1.626-0.496,3.535-0.484,4.834,0.663
							c1.299,1.147,1.472,3.668,0.021,4.589c-1.247-4.069,0.603-8.944,4.165-10.975c3.562-2.031,8.432-0.986,10.963,2.35
							c-1.233-1.729-1.257-4.313-0.056-6.067c1.202-1.755,3.532-2.537,5.471-1.838c0.483-2.795,3.267-4.906,5.927-4.493
							c2.659,0.412,4.753,3.279,4.457,6.103c0.306-2.359,3.973-3.05,5.032-0.949c1.49-0.418-0.442,0.348-0.442,0.348
							c1.637-3.225,5.374-5.091,8.771-4.38c3.397,0.711,6.179,3.94,6.531,7.581c2.403-1.797,5.839-1.887,8.323-0.219
							c2.484,1.668,3.867,4.994,3.35,8.057c2.709-2.188,7.149-1.284,8.896,1.81c1.747,3.095,0.392,7.654-2.716,9.136
							c2.115,0.153,3.93,2.262,3.874,4.502c-0.056,2.24-1.975,4.245-4.094,4.28c2.143,0.049,4.114,1.934,4.374,4.183
							c0.259,2.249-1.226,5.78-3.295,6.371L149.014,406.948z"/>
					</g>
				</g>
			</g>
			<g style="opacity:0.4;">
				<g>
					<path style="fill:#FFFFFF;" d="M186.866,391.975c1.088-0.756,2.463-1.163,3.762-0.903c1.299,0.26,2.475,1.263,2.742,2.562
						c0.267,1.298-0.541,2.784-1.829,3.095c-1.567,0.379-3.136-0.913-4.732-0.687c-0.57,0.081-1.094,0.351-1.65,0.499
						c-2.294,0.613-4.567-0.885-6.471-2.304c-0.67-0.499-1.355-1.014-1.802-1.72c-0.448-0.705-0.613-1.653-0.192-2.374
						c0.586-1.005,1.974-1.153,3.131-1.021c2.319,0.265,4.557,1.201,6.375,2.665c-0.059-0.363-0.119-0.727-0.179-1.09
						L186.866,391.975z"/>
				</g>
				<g>
					<path style="fill:#FFFFFF;" d="M153.53,390.006c0.622-0.435,1.265-0.88,2.004-1.054c0.739-0.174,1.609-0.016,2.077,0.583
						c0.641,0.82,0.234,2.104-0.579,2.753c-0.814,0.649-1.894,0.83-2.923,0.99c-1.057,0.164-2.39,0.202-2.912-0.731
						c-0.38-0.68-0.075-1.579,0.494-2.112c0.568-0.533,1.337-0.787,2.079-1.025L153.53,390.006z"/>
				</g>
				<g>
					<path style="fill:#FFFFFF;" d="M206.194,372.667c2.124,0.887,3.763,2.851,4.258,5.098c0.149,0.678,0.128,1.531-0.465,1.891
						c-0.421,0.256-0.959,0.15-1.438,0.036c-2.035-0.483-4.069-0.966-6.103-1.449c0.974,0.375,1.971,0.764,2.749,1.459
						c0.778,0.696,1.301,1.776,1.046,2.788c-0.299,1.189-1.602,1.92-2.828,1.902c-1.226-0.017-2.366-0.626-3.363-1.341
						c-1.063-0.762-2.102-1.818-2.122-3.126c-0.02-1.308,1.627-2.52,2.631-1.682c-2.326-0.632-4.548-1.644-6.551-2.983
						c-0.725-0.485-1.439-1.03-1.896-1.773c-0.457-0.743-0.613-1.725-0.193-2.489c2.087-3.79,4.722,1.769,6.006,2.264
						C200.359,374.203,203.104,371.376,206.194,372.667z"/>
					<path style="fill:#FFFFFF;" d="M215.679,388.843c0.215,0.741,0.067,1.634-0.536,2.116c-0.603,0.481-1.671,0.319-1.949-0.401
						c1.362,0.426,2.817,0.915,3.666,2.062c0.849,1.147,0.639,3.153-0.717,3.596c-0.846,0.277-1.75-0.139-2.532-0.566
						c-2.21-1.209-4.322-2.6-6.305-4.154c0.605,1.398-0.852,2.984-2.37,3.114c-1.518,0.13-2.936-0.69-4.238-1.481
						c-1.597-0.97-3.428-2.452-3.008-4.272c0.365-1.585,2.392-2.286,3.951-1.821c1.558,0.465,2.731,1.722,3.823,2.927
						c-0.856-1.247,0.36-3.098,1.858-3.301c1.456-0.197,2.909,0.69,3.817,1.762c-1.696-0.931-2.076-3.359,0.196-3.64
						C212.814,384.6,215.322,387.611,215.679,388.843z"/>
					<path style="fill:#FFFFFF;" d="M169.106,383.394c1.282-0.479,2.888,0.355,3.233,1.679c0.345,1.324-0.649,2.836-2.001,3.043
						c0.994,0.085,1.947,0.582,2.586,1.348c0.356,0.426,0.624,0.973,0.544,1.522c-0.119,0.822-0.994,1.361-1.824,1.391
						c-0.83,0.03-1.62-0.321-2.375-0.666c0.819,0.077,1.687,0.172,2.337,0.676s0.932,1.572,0.348,2.152
						c-0.488,0.485-1.291,0.404-1.954,0.219c-1.487-0.417-2.871-1.196-3.998-2.251c-0.846,0.938-2.101,1.614-3.348,1.41
						c-1.247-0.203-2.305-1.531-1.915-2.733c0.278-0.857,1.175-1.397,2.07-1.506c0.895-0.108,1.792,0.137,2.649,0.415
						c-0.877-0.623-1.808-1.318-2.129-2.345c-0.321-1.027,0.373-2.406,1.448-2.324c1.207,0.094,1.824,1.738,2.776,2.328
						C168.729,386.652,166.527,384.358,169.106,383.394z"/>
					<g>
						<path style="fill:#FFFFFF;" d="M190.851,378.375c1.373,0.93,1.848,2.763,1.752,4.418c-0.105,1.828-0.936,3.78-2.613,4.514
							c-2.206,0.964-4.962-0.871-5.367-3.244c-0.405-2.373,1.153-4.787,3.289-5.897
							C187.912,378.165,189.478,377.445,190.851,378.375z"/>
					</g>
					<g>
						<path style="fill:#FFFFFF;" d="M175.447,376.403c-0.189,0.164-0.379,0.327-0.568,0.49c0.936-1.184,2.911-1.34,4.022-0.318
							c1.111,1.023,1.117,3.004,0.014,4.034c-1.104,1.03-3.08,0.887-4.024-0.291c-1.592,0.739-3.692,0.452-4.813-0.9
							c-1.12-1.352-0.866-3.709,0.66-4.575c1.527-0.867,3.85,0.433,3.687,2.182c0.221-0.246,0.442-0.492,0.663-0.738
							L175.447,376.403z"/>
					</g>
					<g>
						<path style="fill:#FFFFFF;" d="M158.444,379.148c1.09,1.073,2.224,2.22,2.624,3.697c0.4,1.477-0.26,3.357-1.743,3.734
							c-1.473,0.374-2.871-0.841-3.711-2.107c-0.759-1.144-1.338-2.568-0.901-3.87c0.437-1.301,2.311-2.072,3.248-1.07
							L158.444,379.148z"/>
					</g>
					<path style="fill:#FFFFFF;" d="M182.946,370.226c0.557-1.238,2.315-1.671,3.468-0.954c1.152,0.718,1.577,2.333,1.074,3.594
						s-1.797,2.116-3.147,2.263c-1.671,0.183-3.647-1.167-3.27-2.806c-0.721,0.95-2.015,1.326-3.201,1.21
						c-1.186-0.116-2.288-0.655-3.321-1.25c-1.403-0.807-2.899-2.056-2.752-3.668c0.118-1.284,1.361-2.273,2.645-2.392
						c1.284-0.12,2.549,0.477,3.53,1.315c0.771,0.658,1.411,1.47,2.245,2.047c0.834,0.577,1.967,0.885,2.86,0.405L182.946,370.226z"
						/>
				</g>
			</g>
		</g>
		<g>
			<g>
				<g>
					<g>
						<path style="fill:#407BFF;" d="M288.349,406.948c-2.518,0.046-4.901-2.128-5.226-4.768c-0.325-2.64,1.452-5.386,3.897-6.022
							c-4.15-1.165-7.316-5.469-7.362-10.007c-0.046-4.538,3.033-8.912,7.159-10.17c1.626-0.496,3.535-0.484,4.834,0.663
							c1.299,1.147,1.472,3.668,0.021,4.589c-1.247-4.069,0.603-8.944,4.165-10.975c3.561-2.031,8.432-0.986,10.963,2.35
							c-1.233-1.729-1.257-4.313-0.056-6.067c1.202-1.755,3.532-2.537,5.471-1.838c0.483-2.795,3.267-4.906,5.927-4.493
							c2.659,0.412,4.753,3.279,4.457,6.103c0.306-2.359,3.973-3.05,5.032-0.949c1.49-0.418-0.442,0.348-0.442,0.348
							c1.638-3.225,5.374-5.091,8.771-4.38c3.397,0.711,6.179,3.94,6.531,7.581c2.402-1.797,5.838-1.887,8.323-0.219
							c2.484,1.668,3.867,4.994,3.35,8.057c2.709-2.188,7.149-1.284,8.896,1.81c1.747,3.095,0.392,7.654-2.716,9.136
							c2.115,0.153,3.93,2.262,3.874,4.502c-0.056,2.24-1.975,4.245-4.094,4.28c2.143,0.049,4.114,1.934,4.373,4.183
							c0.259,2.249-1.226,5.78-3.295,6.371L288.349,406.948z"/>
					</g>
				</g>
			</g>
			<g style="opacity:0.4;">
				<g>
					<path style="fill:#FFFFFF;" d="M326.202,391.975c1.088-0.756,2.463-1.163,3.762-0.903c1.299,0.26,2.475,1.263,2.742,2.562
						c0.267,1.298-0.541,2.784-1.829,3.095c-1.567,0.379-3.136-0.913-4.732-0.687c-0.57,0.081-1.094,0.351-1.65,0.499
						c-2.294,0.613-4.567-0.885-6.47-2.304c-0.67-0.499-1.355-1.014-1.802-1.72c-0.448-0.705-0.613-1.653-0.192-2.374
						c0.586-1.005,1.974-1.153,3.131-1.021c2.319,0.265,4.558,1.201,6.376,2.665c-0.06-0.363-0.119-0.727-0.179-1.09
						L326.202,391.975z"/>
				</g>
				<g>
					<path style="fill:#FFFFFF;" d="M292.866,390.006c0.622-0.435,1.265-0.88,2.004-1.054c0.739-0.174,1.609-0.016,2.077,0.583
						c0.641,0.82,0.234,2.104-0.579,2.753c-0.814,0.649-1.894,0.83-2.922,0.99c-1.057,0.164-2.39,0.202-2.912-0.731
						c-0.38-0.68-0.074-1.579,0.494-2.112c0.568-0.533,1.336-0.787,2.079-1.025L292.866,390.006z"/>
				</g>
				<g>
					<path style="fill:#FFFFFF;" d="M345.53,372.667c2.124,0.887,3.763,2.851,4.258,5.098c0.149,0.678,0.128,1.531-0.465,1.891
						c-0.422,0.256-0.959,0.15-1.438,0.036c-2.035-0.483-4.069-0.966-6.103-1.449c0.974,0.375,1.971,0.764,2.749,1.459
						c0.778,0.696,1.301,1.776,1.046,2.788c-0.299,1.189-1.602,1.92-2.828,1.902c-1.226-0.017-2.366-0.626-3.363-1.341
						c-1.063-0.762-2.102-1.818-2.122-3.126c-0.02-1.308,1.627-2.52,2.631-1.682c-2.326-0.632-4.548-1.644-6.551-2.983
						c-0.725-0.485-1.439-1.03-1.896-1.773c-0.457-0.743-0.613-1.725-0.193-2.489c2.087-3.79,4.721,1.769,6.005,2.264
						C339.695,374.203,342.44,371.376,345.53,372.667z"/>
					<path style="fill:#FFFFFF;" d="M355.015,388.843c0.215,0.741,0.067,1.634-0.536,2.116c-0.603,0.481-1.671,0.319-1.949-0.401
						c1.362,0.426,2.817,0.915,3.666,2.062c0.849,1.147,0.639,3.153-0.717,3.596c-0.846,0.277-1.75-0.139-2.532-0.566
						c-2.21-1.209-4.322-2.6-6.305-4.154c0.605,1.398-0.852,2.984-2.37,3.114c-1.518,0.13-2.936-0.69-4.238-1.481
						c-1.597-0.97-3.428-2.452-3.008-4.272c0.365-1.585,2.392-2.286,3.951-1.821c1.558,0.465,2.731,1.722,3.823,2.927
						c-0.856-1.247,0.36-3.098,1.858-3.301c1.456-0.197,2.909,0.69,3.817,1.762c-1.696-0.931-2.076-3.359,0.196-3.64
						C352.15,384.6,354.658,387.611,355.015,388.843z"/>
					<path style="fill:#FFFFFF;" d="M308.442,383.394c1.282-0.479,2.888,0.355,3.233,1.679c0.345,1.324-0.649,2.836-2.002,3.043
						c0.994,0.085,1.947,0.582,2.586,1.348c0.356,0.426,0.624,0.973,0.544,1.522c-0.119,0.822-0.994,1.361-1.824,1.391
						c-0.83,0.03-1.62-0.321-2.375-0.666c0.819,0.077,1.687,0.172,2.337,0.676c0.65,0.504,0.932,1.572,0.348,2.152
						c-0.488,0.485-1.291,0.404-1.954,0.219c-1.487-0.417-2.871-1.196-3.998-2.251c-0.846,0.938-2.101,1.614-3.348,1.41
						c-1.247-0.203-2.305-1.531-1.915-2.733c0.278-0.857,1.175-1.397,2.07-1.506c0.895-0.108,1.792,0.137,2.649,0.415
						c-0.877-0.623-1.808-1.318-2.129-2.345c-0.321-1.027,0.373-2.406,1.448-2.324c1.207,0.094,1.824,1.738,2.776,2.328
						C308.065,386.652,305.863,384.358,308.442,383.394z"/>
					<g>
						<path style="fill:#FFFFFF;" d="M330.187,378.375c1.373,0.93,1.848,2.763,1.752,4.418c-0.105,1.828-0.936,3.78-2.613,4.514
							c-2.206,0.964-4.962-0.871-5.367-3.244c-0.405-2.373,1.153-4.787,3.289-5.897
							C327.248,378.165,328.814,377.445,330.187,378.375z"/>
					</g>
					<g>
						<path style="fill:#FFFFFF;" d="M314.783,376.403c-0.189,0.164-0.379,0.327-0.568,0.49c0.936-1.184,2.911-1.34,4.022-0.318
							c1.11,1.023,1.117,3.004,0.014,4.034c-1.104,1.03-3.08,0.887-4.024-0.291c-1.592,0.739-3.692,0.452-4.813-0.9
							c-1.12-1.352-0.866-3.709,0.66-4.575c1.527-0.867,3.849,0.433,3.687,2.182c0.221-0.246,0.442-0.492,0.663-0.738
							L314.783,376.403z"/>
					</g>
					<g>
						<path style="fill:#FFFFFF;" d="M297.78,379.148c1.09,1.073,2.224,2.22,2.624,3.697c0.4,1.477-0.26,3.357-1.743,3.734
							c-1.473,0.374-2.871-0.841-3.711-2.107c-0.759-1.144-1.338-2.568-0.901-3.87c0.436-1.301,2.311-2.072,3.248-1.07
							L297.78,379.148z"/>
					</g>
					<path style="fill:#FFFFFF;" d="M322.281,370.226c0.556-1.238,2.315-1.671,3.468-0.954c1.152,0.718,1.577,2.333,1.074,3.594
						c-0.503,1.261-1.797,2.116-3.147,2.263c-1.672,0.183-3.647-1.167-3.271-2.806c-0.721,0.95-2.015,1.326-3.201,1.21
						c-1.186-0.116-2.288-0.655-3.321-1.25c-1.403-0.807-2.899-2.056-2.752-3.668c0.118-1.284,1.361-2.273,2.645-2.392
						c1.284-0.12,2.549,0.477,3.53,1.315c0.771,0.658,1.411,1.47,2.245,2.047c0.834,0.577,1.967,0.885,2.86,0.405L322.281,370.226z"
						/>
				</g>
			</g>
		</g>
		<g>
			<g>
				<path style="fill:#407BFF;" d="M219.463,407.089c0,0-15.87-42.479-11.835-16.926c0,0-18.022-12.235-8.608,4.373
					c0,0-19.367-5.18-8.876,6.387c0,0-16.408,4.801-6.187,6.166C194.179,408.455,219.463,407.089,219.463,407.089z"/>
				<path style="opacity:0.2;fill:#FFFFFF;" d="M219.463,407.089c0,0-15.87-42.479-11.835-16.926c0,0-18.022-12.235-8.608,4.373
					c0,0-19.367-5.18-8.876,6.387c0,0-16.408,4.801-6.187,6.166C194.179,408.455,219.463,407.089,219.463,407.089z"/>
			</g>
			<g>
				<path style="fill:#407BFF;" d="M214.863,407.168c0,0,5.085-29.629,14.771-19.9c0,0,7.265-5.042,10.171,3.918
					c0,0,10.413-3.148,6.538,1.695c0,0,6.296,1.453,4.117,6.78c0,0,6.054,0,4.843,4.843
					C254.092,409.348,214.863,407.168,214.863,407.168z"/>
				<path style="opacity:0.3;fill:#FFFFFF;" d="M214.863,407.168c0,0,5.085-29.629,14.771-19.9c0,0,7.265-5.042,10.171,3.918
					c0,0,10.413-3.148,6.538,1.695c0,0,6.296,1.453,4.117,6.78c0,0,6.054,0,4.843,4.843
					C254.092,409.348,214.863,407.168,214.863,407.168z"/>
			</g>
		</g>
		<g>
			<g>
				<g>
					<g>
						<g>
							<g>
								<path style="fill:#407BFF;" d="M285.448,373.344c0.095,0.137-0.62,0.914,1.909,0.847c6.229-0.164,17.185-1.326,20.928-7.253
									c5.344-8.462-8.189-6.804-7.168-11.34c1.02-4.536,15.858-1.891,18.278-8.432c2.419-6.541-8.111-4.585-7.839-7.884
									c0.271-3.3,11.693,0.18,14.908-6.801c3.215-6.982-6.269-2.722-4.881-5.618c1.387-2.896,12.951-15.345,7.774-17.596
									c-5.178-2.251-15.963,10.658-19.702,12.214c-3.739,1.556-5.428-10.276-10.189-5.957c-4.761,4.32-0.247,22.048-5.963,24.673
									c-4.257,1.956-2.308-4.639-7.684-4.028C278.517,337.001,277.809,362.334,285.448,373.344z"/>
							</g>
						</g>
						<g style="opacity:0.3;">
							<path style="fill:#FFFFFF;" d="M285.448,373.344c0.095,0.137-0.62,0.914,1.909,0.847c6.229-0.164,17.185-1.326,20.928-7.253
								c5.344-8.462-8.189-6.804-7.168-11.34c1.02-4.536,15.858-1.891,18.278-8.432c2.419-6.541-8.111-4.585-7.839-7.884
								c0.271-3.3,11.693,0.18,14.908-6.801c3.215-6.982-6.269-2.722-4.881-5.618c1.387-2.896,12.951-15.345,7.774-17.596
								c-5.178-2.251-15.963,10.658-19.702,12.214c-3.739,1.556-5.428-10.276-10.189-5.957c-4.761,4.32-0.247,22.048-5.963,24.673
								c-4.257,1.956-2.308-4.639-7.684-4.028C278.517,337.001,277.809,362.334,285.448,373.344z"/>
						</g>
					</g>
					<g>
						<g>
							<g>
								<g>
									<g>
										<g>
											<g>
												<g>
													<g>
														<path style="fill:#407BFF;" d="M282.107,395.752c-0.011,0-0.022,0-0.033-0.001c-0.223-0.011-0.395-0.201-0.383-0.425
															c2.182-42.077,25.028-60.714,25.259-60.898c0.175-0.139,0.43-0.11,0.569,0.065c0.139,0.175,0.11,0.43-0.065,0.569
															c-0.228,0.181-22.792,18.615-24.954,60.305C282.488,395.581,282.315,395.746,282.107,395.752z"/>
													</g>
													<g>
														<path style="fill:#407BFF;" d="M301.885,340.608c-0.164,0.005-0.322-0.092-0.387-0.253
															c-0.084-0.207,0.016-0.443,0.223-0.527c0.146-0.059,3.646-1.441,9.596-0.606c0.221,0.031,0.376,0.236,0.345,0.457
															c-0.031,0.221-0.236,0.377-0.457,0.345c-5.719-0.801-9.147,0.542-9.181,0.555
															C301.978,340.597,301.931,340.606,301.885,340.608z"/>
													</g>
													<g>
														<path style="fill:#407BFF;" d="M297.797,345.986c-0.214,0.006-0.398-0.156-0.415-0.372
															c-1.006-12.609,5.609-22.977,5.676-23.081c0.121-0.188,0.372-0.241,0.56-0.119c0.188,0.121,0.241,0.372,0.12,0.56
															c-0.065,0.101-6.532,10.25-5.548,22.576c0.017,0.223-0.148,0.418-0.371,0.436
															C297.811,345.985,297.804,345.985,297.797,345.986z"/>
													</g>
													<g>
														<path style="fill:#407BFF;" d="M291.386,357.165c-0.102,0.003-0.205-0.032-0.286-0.107
															c-0.164-0.151-0.175-0.407-0.024-0.572c0.051-0.055,5.109-5.432,12.366-3.39c0.215,0.061,0.341,0.284,0.28,0.5
															c-0.061,0.215-0.284,0.341-0.499,0.28c-6.786-1.911-11.505,3.108-11.551,3.159
															C291.595,357.118,291.491,357.162,291.386,357.165z"/>
													</g>
													<g>
														<path style="fill:#407BFF;" d="M288.166,364.876c-0.151,0.004-0.299-0.077-0.372-0.22
															c-0.132-0.257-3.223-6.416-2.396-15.556c0.021-0.222,0.209-0.39,0.44-0.366c0.223,0.02,0.387,0.217,0.367,0.44
															c-0.805,8.893,2.279,15.053,2.31,15.114c0.102,0.199,0.023,0.443-0.176,0.545
															C288.283,364.86,288.224,364.875,288.166,364.876z"/>
													</g>
												</g>
											</g>
										</g>
									</g>
								</g>
							</g>
							<g>
								<path style="fill:#407BFF;" d="M223.3,383.464c-4.921,1.421-14.602-0.905-19.118-4.484c-4.582-3.631,5.64-3.359,3.712-6.658
									c-1.928-3.3-12.894,2.464-16.417-2.058c-3.523-4.522,5.213-5.609,4.18-8.127c-1.033-2.517-9.616,0.354-13.872-4.316
									c-4.256-4.67,4.234-3.692,2.426-5.616c-1.808-1.924-13.964-8.8-10.468-11.851c3.496-3.052,15.157,4.378,18.473,4.667
									c3.316,0.289,2.197-6.704,7.001-4.505c4.805,2.2,5.678,17.211,10.81,17.846c3.822,0.473,0.608-5.646,5.018-5.067
									C222.764,354.308,225.298,382.887,223.3,383.464z"/>
								<g style="opacity:0.2;">
									<path style="fill:#FFFFFF;" d="M223.3,383.464c-4.921,1.421-14.602-0.905-19.118-4.484
										c-4.582-3.631,5.64-3.359,3.712-6.658c-1.928-3.3-12.894,2.464-16.417-2.058c-3.523-4.522,5.213-5.609,4.18-8.127
										c-1.033-2.517-9.616,0.354-13.872-4.316c-4.256-4.67,4.234-3.692,2.426-5.616c-1.808-1.924-13.964-8.8-10.468-11.851
										c3.496-3.052,15.157,4.378,18.473,4.667c3.316,0.289,2.197-6.704,7.001-4.505c4.805,2.2,5.678,17.211,10.81,17.846
										c3.822,0.473,0.608-5.646,5.018-5.067C222.764,354.308,225.298,382.887,223.3,383.464z"/>
								</g>
							</g>
							<g>
								<g>
									<g>
										<path style="fill:#407BFF;" d="M233.872,412.189c-0.205,0.046-0.414-0.075-0.475-0.279l-3.347-10.573
											c-10.939-35.203-41.781-52.941-42.091-53.116c-0.195-0.11-0.264-0.357-0.154-0.551c0.111-0.195,0.357-0.263,0.551-0.154
											c0.313,0.177,31.429,18.063,42.467,53.586l3.349,10.576c0.064,0.214-0.058,0.44-0.272,0.504
											C233.891,412.185,233.881,412.187,233.872,412.189z"/>
									</g>
									<g>
										<path style="fill:#407BFF;" d="M201.577,358.924c-0.022,0.005-0.044,0.008-0.066,0.009
											c-0.036,0.002-0.083-0.004-0.126-0.014l-0.14-0.018c-3.549-0.48-7.304-0.222-10.572,0.722
											c-0.217,0.069-0.44-0.061-0.502-0.277c-0.062-0.215,0.062-0.439,0.276-0.501c3.375-0.973,7.247-1.241,10.906-0.746
											l0.144,0.019c0.026,0.002,0.051,0.007,0.076,0.014c0.174,0.037,0.309,0.188,0.319,0.375
											C201.904,358.708,201.767,358.882,201.577,358.924z"/>
									</g>
									<g>
										<path style="fill:#407BFF;" d="M206.246,362.593c-0.007,0.002-0.013,0.003-0.02,0.004c-0.22,0.038-0.43-0.11-0.467-0.33
											c-1.841-10.759-9.576-17.961-9.654-18.032c-0.165-0.151-0.176-0.407-0.025-0.572c0.153-0.165,0.408-0.175,0.572-0.025
											c0.08,0.073,8.015,7.453,9.905,18.492C206.594,362.343,206.455,362.547,206.246,362.593z"/>
									</g>
									<g>
										<path style="fill:#407BFF;" d="M211.424,367.735c-0.096,0.021-0.201,0.007-0.293-0.046
											c-0.05-0.03-5.053-2.892-10.447,0.193c-0.195,0.113-0.442,0.043-0.553-0.15c-0.111-0.194-0.044-0.441,0.15-0.553
											c5.813-3.328,11.041-0.318,11.26-0.188c0.192,0.114,0.256,0.361,0.143,0.554
											C211.626,367.646,211.53,367.712,211.424,367.735z"/>
									</g>
									<g>
										<path style="fill:#407BFF;" d="M218.608,376.567c-0.057,0.013-0.117,0.013-0.177,0c-0.218-0.05-0.355-0.266-0.305-0.484
											c0.013-0.06,1.308-6.026-1.315-13.44c-0.075-0.211,0.036-0.442,0.247-0.516c0.21-0.084,0.442,0.036,0.516,0.247
											c2.705,7.648,1.398,13.638,1.341,13.889C218.879,376.42,218.756,376.534,218.608,376.567z"/>
									</g>
								</g>
							</g>
						</g>
					</g>
					<g>
						<g>
							<g>
								<g>
									<g>
										<path style="fill:#407BFF;" d="M229.925,398.771c-0.016,0.004-0.033,0.007-0.05,0.008
											c-0.223,0.021-0.42-0.143-0.441-0.365c-0.009-0.073-0.128-0.856-0.363-2.202c-0.338-2.016-1.099-6.224-2.398-11.796
											c-0.017-0.102-0.036-0.167-0.055-0.24c-1.46-6.222-3.156-12.288-5.044-18.039c-1.758-5.364-3.713-10.517-5.81-15.319
											c-1.908-4.342-3.939-8.408-6.037-12.085c-0.007-0.01-0.013-0.021-0.019-0.031l-0.001,0
											c-0.33-0.576-0.669-1.151-1.008-1.725c-0.28-0.465-0.563-0.934-0.854-1.399c-0.749-1.209-1.442-2.37-2.061-3.454
											c-1.372-2.381-2.647-4.78-3.79-7.13c-0.693-1.409-1.339-2.803-1.92-4.142c-2.294-5.23-4.11-10.517-5.397-15.713
											c-0.526-2.118-0.967-4.252-1.31-6.339c-0.373-2.277-0.622-4.502-0.74-6.614c-0.006-0.159-0.016-0.305-0.025-0.445
											l-0.01-0.208c-0.019-0.096-0.004-0.199,0.051-0.29c0.116-0.191,0.364-0.253,0.556-0.136
											c0.126,0.076,0.199,0.222,0.2,0.367l0.002,0l0.009,0.214c0.01,0.148,0.02,0.301,0.026,0.46
											c0.116,2.076,0.362,4.272,0.73,6.521c0.34,2.066,0.776,4.178,1.297,6.275c1.276,5.152,3.077,10.395,5.353,15.585
											c0.576,1.328,1.217,2.711,1.905,4.11c1.135,2.334,2.402,4.717,3.765,7.083c0.615,1.077,1.303,2.23,2.046,3.429
											c0.292,0.468,0.577,0.94,0.862,1.412c0.341,0.577,0.68,1.152,1.01,1.728c0.007,0.01,0.014,0.022,0.02,0.033l0,0
											c2.114,3.703,4.159,7.797,6.08,12.169c2.108,4.826,4.072,10.003,5.838,15.391c1.896,5.773,3.598,11.862,5.06,18.094
											c0.024,0.087,0.047,0.177,0.064,0.28c1.299,5.566,2.063,9.794,2.403,11.816c0.24,1.37,0.364,2.19,0.371,2.263
											C230.259,398.544,230.121,398.728,229.925,398.771z"/>
									</g>
								</g>
								<g>
									<g>
										<g>
											<path style="fill:#407BFF;" d="M192.997,291.59c0.004-0.019,0.004-0.019,0.013-0.022c0.004-0.02,0.004-0.02,0.013-0.022
												c0.52-0.788,1.132-1.508,1.811-2.153c0.75-0.692,1.585-1.305,2.492-1.789"/>
											<path style="fill:#407BFF;" d="M193.084,291.983c-0.053,0.012-0.108,0.013-0.164,0.002
												c-0.219-0.043-0.362-0.253-0.32-0.472c0.01-0.049,0.029-0.096,0.056-0.14c0.009-0.017,0.019-0.033,0.03-0.048
												l-0.001-0.001c0.524-0.794,1.154-1.542,1.87-2.223c0.811-0.749,1.678-1.371,2.58-1.853
												c0.196-0.105,0.443-0.031,0.548,0.166c0.105,0.197,0.031,0.442-0.166,0.548c-0.841,0.449-1.651,1.031-2.408,1.729
												c-0.668,0.635-1.258,1.336-1.748,2.079c-0.003,0.003-0.005,0.007-0.007,0.01
												C193.297,291.884,193.197,291.958,193.084,291.983z"/>
										</g>
									</g>
								</g>
								<g>
									<g>
										<path style="fill:#407BFF;" d="M193.856,299.132c-0.089,0.02-0.185,0.01-0.272-0.035l-3.151-1.616
											c-0.199-0.102-0.277-0.346-0.175-0.545c0.102-0.197,0.345-0.278,0.545-0.175l3.151,1.616
											c0.199,0.102,0.277,0.346,0.175,0.545C194.072,299.033,193.97,299.107,193.856,299.132z"/>
									</g>
								</g>
								<g>
									<g>
										<path style="fill:#407BFF;" d="M206.233,332.361c-0.212,0.047-0.43-0.112-0.486-0.324l-0.002-0.009
											c-0.064-0.813-0.039-1.552,0.062-2.273c0.127-1.055,0.415-2.093,0.854-3.079c0.319-0.721,0.727-1.419,1.212-2.075
											c0.133-0.179,0.387-0.218,0.566-0.084c0.18,0.133,0.217,0.386,0.084,0.566c-0.449,0.607-0.827,1.253-1.122,1.922
											c-0.407,0.913-0.673,1.873-0.792,2.855c-0.095,0.673-0.118,1.355-0.07,2.035c0.058,0.216-0.076,0.404-0.292,0.462
											C206.242,332.359,206.238,332.36,206.233,332.361z"/>
									</g>
								</g>
								<g>
									<g>
										<path style="fill:#407BFF;" d="M210.165,338.922c-0.151,0.034-0.315-0.022-0.413-0.154
											c-1.109-1.497-2.877-2.502-4.731-2.687c-0.222-0.022-0.385-0.221-0.363-0.443c0.022-0.222,0.22-0.386,0.443-0.363
											c2.077,0.208,4.058,1.333,5.301,3.011c0.133,0.18,0.095,0.433-0.084,0.566
											C210.271,338.887,210.219,338.91,210.165,338.922z"/>
									</g>
								</g>
								<g>
									<g>
										<path style="fill:#407BFF;" d="M223.988,372.767c-1.122-0.796-2.809-4.518-3.716-6.518
											c-0.216-0.478-0.401-0.886-0.542-1.178"/>
										<path style="fill:#407BFF;" d="M224.076,373.162c-0.108,0.024-0.225,0.004-0.322-0.065
											c-1.118-0.792-2.574-3.864-3.85-6.68c-0.215-0.476-0.399-0.88-0.539-1.17c-0.098-0.201-0.013-0.443,0.188-0.541
											c0.199-0.102,0.443-0.013,0.541,0.188c0.143,0.294,0.329,0.705,0.547,1.188c0.827,1.826,2.548,5.623,3.581,6.354
											c0.183,0.13,0.226,0.383,0.096,0.564C224.258,373.086,224.171,373.141,224.076,373.162z"/>
									</g>
								</g>
							</g>
							<g>
								<path style="fill:#407BFF;" d="M202.459,325.248c-0.205,0.046-0.414-0.075-0.475-0.279
									c-0.191-0.635-4.582-15.644,2.472-23.601c0.149-0.167,0.405-0.182,0.572-0.034c0.167,0.148,0.183,0.404,0.034,0.572
									c-6.753,7.618-2.348,22.68-2.302,22.831c0.064,0.214-0.058,0.44-0.272,0.504
									C202.478,325.243,202.469,325.246,202.459,325.248z"/>
							</g>
							<g>
								<path style="fill:#407BFF;" d="M210.508,358.228c-0.146,3.903,9.461,8.68,9.461,8.68s9.938-4.045,10.084-7.948
									c0.146-3.903-4.041-9.101-9.438-9.303C215.218,349.455,210.654,354.326,210.508,358.228z"/>
								<path style="fill:#407BFF;" d="M190.153,316.803c2.012,3.563,10.097,4.308,10.097,4.308s3.536-7.309,1.523-10.872
									c-2.012-3.563-7.21-6.69-10.419-4.878C188.146,307.174,188.141,313.24,190.153,316.803z"/>
								<path style="fill:#407BFF;" d="M212.831,323.86c-0.782,0.986-1.59,1.996-2.678,2.629c-1.088,0.633-2.535,0.813-3.579,0.109
									c-1.294-0.873-1.501-2.707-1.247-4.246c0.504-3.05,3.817-8.886,7.668-8.5C218.554,314.41,214.633,321.586,212.831,323.86z"
									/>
								<path style="fill:#407BFF;" d="M204.362,333.561c0.882,0.643,1.863,1.488,1.766,2.576c-0.086,0.965-1.056,1.657-2.019,1.765
									c-0.962,0.108-1.913-0.224-2.825-0.551c-2.114-0.759-6.462-2.374-4.782-5.428
									C198.248,328.749,202.503,332.206,204.362,333.561z"/>
								<path style="fill:#407BFF;" d="M209.995,295.014c0.785-0.12,1.694,0.183,2.027,0.904c0.389,0.843-0.136,1.813-0.7,2.551
									c-1.403,1.838-5.732,6.944-7.872,3.713C201.43,299.129,207.576,295.385,209.995,295.014z"/>
								<g>
									<path style="fill:#407BFF;" d="M197.062,285.968c1.125-0.19,2.113-0.882,3.231-1.107c1.119-0.225,2.576,0.332,2.62,1.472
										c0.041,1.053-1.105,1.717-2.104,2.054c-1.705,0.574-3.486,0.923-5.281,1.033c-0.417,0.026-0.879,0.024-1.195-0.249
										c-0.62-0.536-0.149-1.603,0.546-2.038c0.694-0.435,1.569-0.587,2.151-1.164L197.062,285.968z"/>
								</g>
								<g>
									<path style="fill:#407BFF;" d="M188.368,296.393c-1.093,0.327-2.284,0.144-3.387,0.437
										c-1.103,0.293-2.163,1.437-1.698,2.479c0.43,0.963,1.751,1.051,2.796,0.911c1.783-0.239,3.534-0.715,5.193-1.41
										c0.385-0.161,0.798-0.367,0.961-0.752c0.319-0.755-0.576-1.503-1.391-1.586c-0.815-0.083-1.667,0.168-2.444-0.092
										L188.368,296.393z"/>
								</g>
							</g>
						</g>
						<g>
							<path style="fill:#407BFF;" d="M193.017,293.136c-0.009,0.002-0.019,0.004-0.029,0.005c-0.221,0.033-0.427-0.12-0.46-0.341
								c-0.328-2.198-1.022-4.225-1.456-4.253c-0.223-0.015-0.392-0.207-0.378-0.43c0.015-0.223,0.204-0.394,0.43-0.378
								c1.339,0.086,1.988,3.484,2.204,4.941C193.361,292.893,193.223,293.09,193.017,293.136z"/>
						</g>
						<g>
							<path style="fill:#407BFF;" d="M192.625,287.896c-1.066-1.315-2.205-2.684-3.785-3.291c-1.58-0.606-3.717-0.11-4.326,1.469
								c-0.68,1.766,0.999,3.722,2.859,4.067c1.861,0.345,3.73-0.411,5.471-1.151c-0.058-0.273-0.115-0.545-0.173-0.818
								L192.625,287.896z"/>
						</g>
					</g>
				</g>
			</g>
			<g>
				<g>
					<g>
						<g>
							<g>
								<g>
									<g>
										<g>
											<g>
												<g>
													<g>
														<path style="fill:#407BFF;" d="M281.651,385.037c-0.033-0.019-0.066-0.041-0.097-0.067
															c-0.268-0.223-0.306-0.621-0.082-0.889c14.685-17.683,30.713-20.043,30.874-20.066
															c0.345-0.046,0.662,0.196,0.711,0.541c0.047,0.345-0.195,0.664-0.54,0.712c-0.156,0.021-15.721,2.34-30.072,19.619
															C282.246,385.126,281.911,385.182,281.651,385.037z"/>
													</g>
													<g>
														<path style="fill:#407BFF;" d="M307.17,366.516c-0.225-0.126-0.359-0.382-0.318-0.65
															c0.054-0.344,0.375-0.581,0.719-0.528c0.109,0.017,2.697,0.433,5.923,3.024c0.272,0.219,0.316,0.616,0.098,0.889
															c-0.218,0.272-0.619,0.318-0.888,0.098c-2.94-2.357-5.302-2.758-5.325-2.762
															C307.303,366.576,307.233,366.551,307.17,366.516z"/>
													</g>
													<g>
														<path style="fill:#407BFF;" d="M302.958,368.217c-0.292-0.163-0.409-0.527-0.259-0.831
															c3.806-7.739,11.07-11.396,11.377-11.548c0.312-0.154,0.691-0.028,0.846,0.287c0.155,0.312,0.027,0.691-0.285,0.845
															c-0.072,0.036-7.191,3.63-10.803,10.973c-0.154,0.313-0.533,0.442-0.846,0.288
															C302.977,368.227,302.968,368.222,302.958,368.217z"/>
													</g>
													<g>
														<path style="fill:#407BFF;" d="M295.411,372.473c-0.139-0.078-0.249-0.207-0.298-0.372
															c-0.1-0.334,0.09-0.686,0.425-0.786c0.204-0.061,5.031-1.439,8.674,2.39c0.24,0.253,0.23,0.653-0.023,0.894
															c-0.253,0.241-0.652,0.231-0.893-0.023c-3.111-3.278-7.354-2.063-7.396-2.049
															C295.729,372.576,295.555,372.552,295.411,372.473z"/>
													</g>
													<g>
														<path style="fill:#407BFF;" d="M290.9,375.821c-0.206-0.115-0.339-0.341-0.323-0.592
															c0.012-0.198,0.35-4.919,4.031-9.999c0.205-0.282,0.596-0.355,0.882-0.14c0.283,0.204,0.346,0.599,0.141,0.882
															c-3.454,4.768-3.79,9.293-3.793,9.338c-0.023,0.349-0.324,0.612-0.672,0.59
															C291.069,375.892,290.979,375.865,290.9,375.821z"/>
													</g>
												</g>
											</g>
										</g>
									</g>
								</g>
								<g>
									<g>
										<path style="fill:#407BFF;" d="M286.403,379.17c0.008,0.118-0.692,0.279,0.832,1.26
											c3.754,2.418,10.665,6.166,14.987,4.246c6.17-2.741-2.446-7.241-0.234-9.455c2.213-2.214,10.079,5.303,13.832,2.494
											c3.753-2.81-3.187-5.925-1.856-7.725c1.331-1.8,6.873,4.821,11.255,2.078c4.382-2.743-2.754-4.104-0.904-5.221
											c1.85-1.116,13.123-3.656,10.849-7.048c-2.274-3.391-13.248-0.271-16.017-0.879c-2.77-0.608,0.422-8.137-3.933-7.558
											s-7.961,12.66-12.283,11.874c-3.219-0.586,0.275-3.616-3.131-5.431C295.173,355.341,285.774,369.717,286.403,379.17z"/>
									</g>
									<g style="opacity:0.3;">
										<path style="fill:#FFFFFF;" d="M286.403,379.17c0.008,0.118-0.692,0.279,0.832,1.26
											c3.754,2.418,10.665,6.166,14.987,4.246c6.17-2.741-2.446-7.241-0.234-9.455c2.213-2.214,10.079,5.303,13.832,2.494
											c3.753-2.81-3.187-5.925-1.856-7.725c1.331-1.8,6.873,4.821,11.255,2.078c4.382-2.743-2.754-4.104-0.904-5.221
											c1.85-1.116,13.123-3.656,10.849-7.048c-2.274-3.391-13.248-0.271-16.017-0.879c-2.77-0.608,0.422-8.137-3.933-7.558
											s-7.961,12.66-12.283,11.874c-3.219-0.586,0.275-3.616-3.131-5.431C295.173,355.341,285.774,369.717,286.403,379.17z"/>
									</g>
								</g>
							</g>
							<g>
								<g>
									<g>
										<path style="fill:#407BFF;" d="M280.959,385.283c-0.245-0.136-0.377-0.424-0.304-0.709
											c4.814-18.829-0.763-35.46-0.82-35.626c-0.114-0.33,0.063-0.69,0.392-0.803c0.332-0.113,0.691,0.062,0.803,0.392
											c0.058,0.169,5.76,17.141,0.849,36.35c-0.086,0.338-0.43,0.542-0.768,0.455
											C281.056,385.329,281.006,385.309,280.959,385.283z"/>
									</g>
									<g>
										<path style="fill:#407BFF;" d="M282.069,360.605c-0.036-0.02-0.071-0.044-0.103-0.071
											c-0.033-0.028-0.067-0.065-0.097-0.103l-0.054-0.063c-1.536-1.79-3.497-3.303-5.519-4.268
											c-0.309-0.145-0.45-0.527-0.299-0.843c0.15-0.315,0.527-0.448,0.842-0.298c2.176,1.04,4.286,2.667,5.935,4.586
											c0.012,0.013,0.034,0.042,0.058,0.072c0.222,0.231,0.237,0.597,0.025,0.846
											C282.658,360.696,282.326,360.748,282.069,360.605z M282.833,359.617c0.035,0.045,0.073,0.094,0.086,0.117
											C282.896,359.693,282.867,359.652,282.833,359.617z M282.785,359.572c0.001,0,0.001,0.001,0.002,0.001
											C282.786,359.572,282.785,359.572,282.785,359.572z"/>
									</g>
									<g>
										<path style="fill:#407BFF;" d="M282.778,364.534c-0.009-0.005-0.018-0.01-0.027-0.016
											c-0.297-0.184-0.387-0.574-0.203-0.87c3.807-6.118,3.151-13.078,3.145-13.148c-0.035-0.348,0.217-0.658,0.564-0.693
											c0.344-0.035,0.657,0.216,0.693,0.563c0.031,0.301,0.714,7.448-3.329,13.945
											C283.443,364.603,283.07,364.697,282.778,364.534z"/>
									</g>
									<g>
										<path style="fill:#407BFF;" d="M283.085,369.429c-0.134-0.075-0.242-0.198-0.294-0.355
											c-0.047-0.142-1.197-3.514-5.07-4.326c-0.343-0.07-0.559-0.407-0.489-0.748c0.071-0.342,0.406-0.56,0.748-0.489
											c4.607,0.961,5.957,5.003,6.013,5.174c0.107,0.332-0.075,0.686-0.406,0.794
											C283.414,369.534,283.233,369.512,283.085,369.429z"/>
									</g>
									<g>
										<path style="fill:#407BFF;" d="M282.753,377.078c-0.079-0.044-0.149-0.105-0.206-0.184
											c-0.203-0.283-0.139-0.677,0.144-0.882c0.032-0.023,3.268-2.396,5.216-7.187c0.131-0.324,0.5-0.479,0.823-0.347
											c0.328,0.121,0.479,0.5,0.347,0.823c-2.092,5.148-5.505,7.635-5.65,7.739C283.223,377.186,282.96,377.193,282.753,377.078
											z"/>
									</g>
								</g>
								<g>
									<path style="fill:#407BFF;" d="M282.208,382.324c-3.108-1.482-6.936-6.974-7.608-10.788
										c-0.682-3.871,4.334,0.829,4.839-1.69c0.504-2.519-7.582-4.518-7.334-8.363c0.248-3.846,5.125-0.492,5.729-2.219
										c0.604-1.727-4.992-4.115-5.046-8.362s3.776,0.034,3.727-1.74c-0.05-1.774-3.091-10.657,0.029-10.631
										c3.12,0.027,5.665,8.967,7.203,10.593c1.538,1.626,4.097-2.389,5.53,0.861c1.433,3.251-4.829,11.187-2.533,13.797
										c1.71,1.944,2.826-2.566,4.784-0.307C294.954,367.428,283.47,382.926,282.208,382.324z"/>
									<g style="opacity:0.2;">
										<path style="fill:#FFFFFF;" d="M282.208,382.324c-3.108-1.482-6.936-6.974-7.608-10.788
											c-0.682-3.871,4.334,0.829,4.839-1.69c0.504-2.519-7.582-4.518-7.334-8.363c0.248-3.846,5.125-0.492,5.729-2.219
											c0.604-1.727-4.992-4.115-5.046-8.362s3.776,0.034,3.727-1.74c-0.05-1.774-3.091-10.657,0.029-10.631
											c3.12,0.027,5.665,8.967,7.203,10.593c1.538,1.626,4.097-2.389,5.53,0.861c1.433,3.251-4.829,11.187-2.533,13.797
											c1.71,1.944,2.826-2.566,4.784-0.307C294.954,367.428,283.47,382.926,282.208,382.324z"/>
									</g>
								</g>
							</g>
						</g>
					</g>
				</g>
			</g>
		</g>
		<g>
			<g>
				<path style="fill:#407BFF;" d="M225.643,386.036c0.085,0.062-0.203,0.629,1.33,0.15c3.777-1.18,10.252-3.752,11.401-7.782
					c1.64-5.754-6.315-2.449-6.564-5.212c-0.249-2.763,9.332-3.843,9.553-7.992c0.221-4.149-5.84-1.198-6.309-3.126
					c-0.469-1.928,7.184-1.936,7.806-6.475c0.623-4.539-4.356-0.458-4.065-2.35c0.291-1.892,4.967-11.003,1.369-11.382
					c-3.599-0.38-7.71,8.857-9.696,10.395c-1.987,1.539-5.295-4.909-7.375-1.618c-2.08,3.292,4.089,12.606,1.099,15.099
					c-2.227,1.857-2.303-2.241-5.472-0.955C214.416,366.535,218.855,381.094,225.643,386.036z"/>
			</g>
			<g style="opacity:0.3;">
				<path style="fill:#FFFFFF;" d="M225.643,386.036c0.085,0.062-0.203,0.629,1.33,0.15c3.777-1.18,10.252-3.752,11.401-7.782
					c1.64-5.754-6.315-2.449-6.564-5.212c-0.249-2.763,9.332-3.843,9.553-7.992c0.221-4.149-5.84-1.198-6.309-3.126
					c-0.469-1.928,7.184-1.936,7.806-6.475c0.623-4.539-4.356-0.458-4.065-2.35c0.291-1.892,4.967-11.003,1.369-11.382
					c-3.599-0.38-7.71,8.857-9.696,10.395c-1.987,1.539-5.295-4.909-7.375-1.618c-2.08,3.292,4.089,12.606,1.099,15.099
					c-2.227,1.857-2.303-2.241-5.472-0.955C214.416,366.535,218.855,381.094,225.643,386.036z"/>
			</g>
		</g>
		<g>
			<g>
				<g>
					<g>
						<g>
							<g>
								<g>
									<path style="fill:#407BFF;" d="M226.934,392.601c-0.032,0.012-0.066,0.022-0.1,0.028c-0.304,0.056-0.596-0.145-0.651-0.449
										c-3.686-20.033,3.812-32.276,3.889-32.398c0.164-0.261,0.51-0.339,0.772-0.176c0.262,0.164,0.341,0.51,0.177,0.772
										c-0.074,0.118-7.339,12.022-3.737,31.599C227.333,392.247,227.181,392.507,226.934,392.601z"/>
								</g>
								<g>
									<path style="fill:#407BFF;" d="M228.832,364.723c-0.213,0.082-0.464,0.027-0.623-0.153
										c-0.203-0.232-0.182-0.585,0.049-0.789c0.073-0.065,1.826-1.588,5.421-2.311c0.304-0.06,0.599,0.135,0.66,0.439
										c0.061,0.302-0.135,0.602-0.438,0.66c-3.273,0.661-4.887,2.04-4.903,2.053C228.948,364.666,228.891,364.7,228.832,364.723z
										"/>
								</g>
								<g>
									<path style="fill:#407BFF;" d="M227.596,368.554c-0.277,0.106-0.59-0.021-0.712-0.296
										c-3.102-6.985-1.463-14.003-1.393-14.298c0.073-0.3,0.373-0.486,0.676-0.412c0.3,0.072,0.486,0.374,0.413,0.674
										c-0.016,0.069-1.616,6.954,1.328,13.581c0.125,0.282-0.002,0.614-0.285,0.739
										C227.614,368.547,227.605,368.55,227.596,368.554z"/>
								</g>
								<g>
									<path style="fill:#407BFF;" d="M226.204,376.105c-0.132,0.051-0.282,0.052-0.422-0.009
										c-0.284-0.122-0.415-0.451-0.293-0.735c0.074-0.174,1.88-4.239,6.553-4.543c0.309-0.019,0.575,0.215,0.594,0.524
										c0.02,0.309-0.213,0.574-0.523,0.595c-3.997,0.254-5.58,3.83-5.595,3.867C226.455,375.947,226.34,376.052,226.204,376.105z
										"/>
								</g>
								<g>
									<path style="fill:#407BFF;" d="M225.919,381.075c-0.195,0.075-0.425,0.037-0.586-0.117
										c-0.128-0.121-3.147-3.033-4.512-8.422c-0.075-0.299,0.097-0.607,0.406-0.68c0.299-0.077,0.604,0.105,0.68,0.405
										c1.281,5.058,4.168,7.857,4.197,7.884c0.224,0.214,0.232,0.568,0.02,0.792C226.064,381,225.994,381.046,225.919,381.075z"
										/>
								</g>
							</g>
						</g>
					</g>
				</g>
			</g>
		</g>
		<g>
			<g>
				<g>
					<defs>
						<path id="XMLID_6_" d="M296.873,397.904c0,0,4.218-8.162,11.48-8.096c7.262,0.066,10.458-1.213,10.458-1.213
							S312.875,401.369,296.873,397.904z"/>
					</defs>
					<use xlink:href="#XMLID_6_"  style="overflow:visible;fill:#407BFF;"/>
					<clipPath id="XMLID_00000008857000828550314100000008880837707933924280_">
						<use xlink:href="#XMLID_6_"  style="overflow:visible;"/>
					</clipPath>
					<path style="opacity:0.2;clip-path:url(#XMLID_00000008857000828550314100000008880837707933924280_);fill:#FFFFFF;" d="
						M296.873,397.904c0,0,4.218-8.162,11.48-8.096c7.262,0.066,10.458-1.213,10.458-1.213S312.875,401.369,296.873,397.904z"/>
				</g>
				<g>
					<path style="fill:#407BFF;" d="M297.087,397.9c-0.114-0.033-0.216-0.105-0.284-0.213c-0.148-0.233-0.079-0.542,0.155-0.689
						c4.293-2.722,9.175-4.376,14.925-5.053c0.271-0.032,0.522,0.164,0.555,0.438c0.032,0.275-0.164,0.523-0.438,0.555
						c-5.598,0.659-10.343,2.264-14.506,4.903C297.367,397.922,297.22,397.938,297.087,397.9z"/>
				</g>
			</g>
			<g>
				<g>
					<g>
						<g>
							<defs>
								<path id="XMLID_5_" d="M295.651,404.373c0,0,4.503-13.647-3.519-21.69c-8.022-8.042-10.091-13.013-10.091-13.013
									S274.263,390.285,295.651,404.373z"/>
							</defs>
							<use xlink:href="#XMLID_5_"  style="overflow:visible;fill:#407BFF;"/>
							<clipPath id="XMLID_00000152255289010315811010000012125052375689967513_">
								<use xlink:href="#XMLID_5_"  style="overflow:visible;"/>
							</clipPath>
						</g>
						<g style="opacity:0.2;">
							<defs>
								<path id="XMLID_3_" style="opacity:0.2;" d="M295.651,404.373c0,0,4.503-13.647-3.519-21.69
									c-8.022-8.042-10.091-13.013-10.091-13.013S274.263,390.285,295.651,404.373z"/>
							</defs>
							<use xlink:href="#XMLID_3_"  style="overflow:visible;fill:#FFFFFF;"/>
							<clipPath id="XMLID_00000150080692463166875080000004793837509039400068_">
								<use xlink:href="#XMLID_3_"  style="overflow:visible;"/>
							</clipPath>
						</g>
					</g>
					<path style="fill:#407BFF;" d="M294.946,403.752c-0.17-0.049-0.308-0.187-0.35-0.371c-0.866-3.856-3.784-13.957-12.165-24.416
						c-0.173-0.215-0.138-0.53,0.077-0.702c0.215-0.172,0.531-0.139,0.703,0.078c8.512,10.621,11.48,20.897,12.361,24.822
						c0.06,0.27-0.109,0.537-0.378,0.597C295.108,403.778,295.024,403.774,294.946,403.752z"/>
				</g>
			</g>
			<g>
				<path style="fill:#407BFF;" d="M295.147,405.892c-0.256-0.074-0.411-0.338-0.346-0.6c5.498-22.33,8.025-27.028,8.13-27.216
					c0.134-0.241,0.437-0.322,0.678-0.195c0.241,0.134,0.329,0.438,0.197,0.679c-0.026,0.046-2.592,4.871-8.034,26.972
					c-0.066,0.268-0.337,0.431-0.605,0.366C295.16,405.895,295.154,405.893,295.147,405.892z"/>
			</g>
			<g>
				<path style="fill:#407BFF;" d="M301.878,362.13c-0.192,1.771,0.561,8.221,2.332,8.413c1.771,0.192,3.888-5.948,4.08-7.718
					c0.192-1.771-1.088-3.362-2.859-3.554C303.661,359.079,302.07,360.359,301.878,362.13z"/>
				<path style="fill:#407BFF;" d="M306.117,382.886c0.192-1.771-0.561-8.221-2.332-8.413c-1.771-0.192-3.888,5.947-4.08,7.718
					c-0.192,1.771,1.088,3.362,2.859,3.553C304.334,385.937,305.925,384.657,306.117,382.886z"/>
				<path style="fill:#407BFF;" d="M293.619,374.627c1.771,0.192,8.221-0.561,8.413-2.332c0.192-1.77-5.947-3.888-7.718-4.08
					c-1.771-0.192-3.362,1.088-3.553,2.859C290.569,372.845,291.848,374.435,293.619,374.627z"/>
				<path style="fill:#407BFF;" d="M314.375,370.389c-1.771-0.192-8.221,0.561-8.413,2.332c-0.192,1.771,5.947,3.888,7.718,4.08
					c1.77,0.192,3.362-1.088,3.553-2.859C317.426,372.172,316.146,370.58,314.375,370.389z"/>
				<path style="fill:#407BFF;" d="M295.16,366.668c1.117,1.388,6.21,5.416,7.598,4.3c1.388-1.117-1.456-6.955-2.572-8.342
					c-1.117-1.388-3.147-1.608-4.534-0.491C294.263,363.25,294.044,365.28,295.16,366.668z"/>
				<path style="fill:#407BFF;" d="M312.834,378.348c-1.116-1.388-6.21-5.416-7.598-4.299c-1.388,1.116,1.456,6.954,2.572,8.342
					c1.116,1.388,3.147,1.608,4.534,0.491C313.731,381.765,313.951,379.735,312.834,378.348z"/>
				<path style="fill:#407BFF;" d="M298.158,381.345c1.388-1.117,5.416-6.21,4.299-7.598c-1.116-1.388-6.954,1.456-8.342,2.572
					c-1.388,1.116-1.608,3.147-0.491,4.534C294.74,382.241,296.77,382.462,298.158,381.345z"/>
				<path style="fill:#407BFF;" d="M309.837,363.671c-1.388,1.116-5.416,6.21-4.299,7.598c1.117,1.388,6.955-1.456,8.342-2.573
					c1.388-1.116,1.608-3.146,0.491-4.534C313.255,362.774,311.224,362.555,309.837,363.671z"/>
				<path style="opacity:0.5;fill:#FFFFFF;" d="M301.878,362.13c-0.192,1.771,0.561,8.221,2.332,8.413
					c1.771,0.192,3.888-5.948,4.08-7.718c0.192-1.771-1.088-3.362-2.859-3.554C303.661,359.079,302.07,360.359,301.878,362.13z"/>
				<path style="opacity:0.5;fill:#FFFFFF;" d="M306.117,382.886c0.192-1.771-0.561-8.221-2.332-8.413
					c-1.771-0.192-3.888,5.947-4.08,7.718c-0.192,1.771,1.088,3.362,2.859,3.553C304.334,385.937,305.925,384.657,306.117,382.886z"
					/>
				<path style="opacity:0.5;fill:#FFFFFF;" d="M293.619,374.627c1.771,0.192,8.221-0.561,8.413-2.332
					c0.192-1.77-5.947-3.888-7.718-4.08c-1.771-0.192-3.362,1.088-3.553,2.859C290.569,372.845,291.848,374.435,293.619,374.627z"/>
				<path style="opacity:0.5;fill:#FFFFFF;" d="M314.375,370.389c-1.771-0.192-8.221,0.561-8.413,2.332
					c-0.192,1.771,5.947,3.888,7.718,4.08c1.77,0.192,3.362-1.088,3.553-2.859C317.426,372.172,316.146,370.58,314.375,370.389z"/>
				<path style="opacity:0.5;fill:#FFFFFF;" d="M295.16,366.668c1.117,1.388,6.21,5.416,7.598,4.3
					c1.388-1.117-1.456-6.955-2.572-8.342c-1.117-1.388-3.147-1.608-4.534-0.491C294.263,363.25,294.044,365.28,295.16,366.668z"/>
				<path style="opacity:0.5;fill:#FFFFFF;" d="M312.834,378.348c-1.116-1.388-6.21-5.416-7.598-4.299
					c-1.388,1.116,1.456,6.954,2.572,8.342c1.116,1.388,3.147,1.608,4.534,0.491C313.731,381.765,313.951,379.735,312.834,378.348z"
					/>
				<path style="opacity:0.5;fill:#FFFFFF;" d="M298.158,381.345c1.388-1.117,5.416-6.21,4.299-7.598
					c-1.116-1.388-6.954,1.456-8.342,2.572c-1.388,1.116-1.608,3.147-0.491,4.534C294.74,382.241,296.77,382.462,298.158,381.345z"
					/>
				<path style="opacity:0.5;fill:#FFFFFF;" d="M309.837,363.671c-1.388,1.116-5.416,6.21-4.299,7.598
					c1.117,1.388,6.955-1.456,8.342-2.573c1.388-1.116,1.608-3.146,0.491-4.534C313.255,362.774,311.224,362.555,309.837,363.671z"
					/>
				<path style="fill:#FFFFFF;" d="M300.2,372.096c-0.227,2.097,1.288,3.981,3.385,4.208c2.097,0.227,3.981-1.288,4.209-3.385
					c0.227-2.097-1.289-3.982-3.386-4.209C302.311,368.484,300.427,369.999,300.2,372.096z"/>
			</g>
		</g>
	</g>
</g>
<g id="Tree">
	<g>
		<g>
			<g>
				<path style="fill:#407BFF;" d="M234.658,215.7c0,0.174-0.01,0.349-0.021,0.513c-0.585,9.14-5.252,17.736-13.038,22.557
					c-3.785,7.15-10.976,12.402-18.936,13.848c-7.971,1.436-15.49-0.872-21.542-6.237c-6.945,4.811-16.874,4.832-23.84,0.051
					c-6.976-4.79-10.515-14.074-8.514-22.28c0.236-0.944,0.533-1.898,0.892-2.831c2.77-7.15,9.191-13.571,16.608-14.495
					c-1.098-2.247-1.59-4.76-1.508-7.263c0.072-2.164,0.564-4.308,1.467-6.268c0.513-1.108,1.159-2.164,1.928-3.118
					c3.703-4.585,10.145-6.76,15.869-5.365c4.934-1.97,11.643-2.903,16.454-0.667c4.822,2.226,8.042,6.678,9.725,11.715
					c5.58-3.385,13.284-1.949,18.064,2.503C232.914,202.703,234.956,209.34,234.658,215.7z"/>
			</g>
			<g style="opacity:0.2;">
				<path d="M234.658,215.7c-2.01,6.206-6.001,11.653-11.622,15.141c-3.785,7.15-10.976,12.402-18.936,13.838
					c-7.97,1.436-15.489-0.862-21.542-6.237c-6.945,4.821-16.874,4.842-23.84,0.051c-5.56-3.816-8.924-10.473-9.058-17.172
					c2.77-7.15,9.191-13.571,16.608-14.495c-1.098-2.247-1.59-4.76-1.508-7.263c0.954-0.318,1.939-0.544,2.944-0.667
					c-0.852-1.744-1.344-3.662-1.477-5.601c0.513-1.108,1.159-2.164,1.928-3.118c3.703-4.585,10.145-6.76,15.869-5.365
					c4.934-1.97,11.643-2.903,16.454-0.667c4.822,2.226,8.042,6.678,9.725,11.715c5.58-3.385,13.284-1.949,18.064,2.503
					C232.914,202.703,234.956,209.34,234.658,215.7z"/>
			</g>
			<g>
				<g>
					<g>
						<path style="fill:#407BFF;" d="M374.936,205.072c-15.674,17.993-43.843,20.321-70.575,8.248
							c-1.446-0.657-3.252-0.421-4.39,0.595c-5.201,4.647-12.843,5.673-20.649,3.303c-2.041-0.626-4.237,0.349-4.883,2.113
							c-0.698,1.918-1.693,3.703-2.985,5.283c-7.334,8.945-21.747,8.442-33.656-0.585c-0.729-0.554-1.631-0.821-2.534-0.821
							c-1.2,0-2.401,0.482-3.149,1.405c-6.986,8.524-20.414,8.463-31.974,0.616c-1.436-0.975-3.436-0.944-4.852,0.061
							c-16.054,11.376-42.622,7.201-63.076-11.017c-8.104-7.222-14.166-15.684-17.951-24.363c-6.965-15.9-6.319-32.528,3.293-43.566
							c3.457-3.96,7.755-6.852,12.617-8.709c2.954-1.118,4.688-3.744,4.555-6.493c-0.451-9.386,2.072-18.126,7.899-24.814
							c2.4-2.749,5.211-4.996,8.34-6.719c4.739-2.626,8.473-6.391,10.843-10.75c1.456-2.688,3.211-5.211,5.252-7.56
							c18.362-21.08,62.605-18.423,89.901,3.908c5.211,4.267,12.833,5.468,19.501,3.057c22.547-8.165,53.321-0.677,77.848,21.173
							c18.536,16.526,29.482,37.657,31.482,57.209C387.297,181.171,383.861,194.825,374.936,205.072z"/>
						<path style="opacity:0.3;" d="M374.936,205.072c-15.674,17.993-43.843,20.321-70.575,8.248
							c-1.446-0.657-3.252-0.421-4.39,0.595c-5.201,4.647-12.843,5.673-20.649,3.303c-2.041-0.626-4.237,0.349-4.883,2.113
							c-0.698,1.918-1.693,3.703-2.985,5.283c-7.334,8.945-21.747,8.442-33.656-0.585c-0.729-0.554-1.631-0.821-2.534-0.821
							c-1.2,0-2.401,0.482-3.149,1.405c-6.986,8.524-20.414,8.463-31.974,0.616c-1.436-0.975-3.436-0.944-4.852,0.061
							c-16.054,11.376-42.622,7.201-63.076-11.017c-8.104-7.222-14.166-15.684-17.951-24.363c-0.39-9.283,2.144-17.931,7.919-24.558
							c3.447-3.96,7.755-6.852,12.607-8.699c2.965-1.128,4.688-3.754,4.554-6.504c-0.451-9.376,2.072-18.116,7.899-24.804
							c2.4-2.759,5.221-4.996,8.35-6.729c4.739-2.616,8.463-6.391,10.833-10.74c1.467-2.688,3.211-5.221,5.262-7.57
							c18.352-21.07,62.594-18.423,89.901,3.918c5.211,4.257,12.823,5.467,19.49,3.047c22.557-8.155,53.321-0.677,77.848,21.183
							c12.617,11.243,21.716,24.629,26.866,38.19C387.297,181.171,383.861,194.825,374.936,205.072z"/>
					</g>
					<g>
						<g>
							<path style="fill:#407BFF;" d="M366.863,192.373c-3.17,2.626-7.807,2.965-11.766,1.057c1.077,4.36-0.185,9.694-3.447,11.879
								c-3.262,2.185-7.981,1.713-11.284-1.149c-5.457,6.545-23.501,13.858-38.827,8.001c-0.01-0.01-0.031-0.01-0.051-0.02
								c-6.565-2.523-12.617-7.468-16.966-15.931c-2.996-5.837-1.836-13.058,1.487-17.951c3.334-4.883,8.494-7.806,13.787-9.909
								c2.452-10.371,12.012-18.188,21.85-19.47c0.01,0,0.01,0,0.01,0c0.318-0.041,0.636-0.072,0.954-0.103
								c10.166-0.893,21.214,5.365,27.112,15.336c9.284-2.236,11.52,6.668,11.479,7.273c4.144,0.605,7.97,4.452,9.14,8.965
								C371.51,184.874,370.023,189.747,366.863,192.373z"/>
						</g>
					</g>
					<g style="opacity:0.1;">
						<g>
							<path d="M360.565,189.706c-2.862,2.626-7.047,2.965-10.617,1.057c0.964,4.36,0.38,10.145-2.564,12.34
								c-2.944,2.185-7.211,1.703-10.186-1.149c-4.76,6.329-21.357,14.371-35.657,10.207c-0.01-0.01-0.031-0.01-0.051-0.02
								c-6.565-2.523-12.617-7.468-16.966-15.931c-2.996-5.837-1.836-13.058,1.487-17.951c3.334-4.883,8.494-7.806,13.787-9.909
								c2.452-10.371,12.012-18.188,21.85-19.47c0.01,0,0.01,0,0.01,0c8.258,1.241,16.71,9.981,21.429,18.824
								c8.34-2.226,10.381,6.586,10.361,7.263C366.197,175.16,363.427,187.08,360.565,189.706z"/>
						</g>
					</g>
					<g>
						<path style="fill:#407BFF;" d="M212.933,260.008l19.118,17.764c-1.529,25.057-2.984,92.25-2.984,92.25l-6.802,40.344
							l59.934,0.553c0,0-2.723-34.072-2.723-35.921c0-1.85-11.579-67.123-11.579-67.123l-6.59-63.382l30.898-9.419l5.647-16.297
							l22.71-12.853l11.102-17.042l-4.29-1.042l-12.258,15.744l-14.303,3.104l6.125-14.5h-6.812l-17.026,33.593l-21.936,4.497
							l2.111-47.367c-17.546,8.201-23.159-5.454-23.159-5.454s-3.784,81.019-6.335,88.248l0,0
							c-7.403-3.729-13.655-9.396-18.092-16.397l-5.488-8.66h-5.446L212.933,260.008z"/>
						<path style="opacity:0.2;enable-background:new    ;" d="M331.668,188.783l-11.109,17.039l-22.711,12.853l-5.642,16.3
							l-30.897,9.417l6.586,63.384c0,0,11.581,65.272,11.581,67.118s2.729,35.924,2.729,35.924l-59.938-0.554l6.801-40.345
							c0,0,1.457-67.19,2.985-92.25l-19.121-17.767l-8.176-19.357h5.447l5.488,8.658c2.216,3.498,4.893,6.668,7.93,9.427
							c3.047,2.759,6.463,5.108,10.155,6.975c2.555-7.232,6.34-88.25,6.34-88.25s3.118,7.581,11.981,8.053
							c2.995,0.164,6.657-0.503,11.079-2.544c0.031-0.021,0.072-0.031,0.103-0.051l-2.031,45.412l-0.082,1.949l21.932-4.493
							l17.028-33.595h6.811l-6.124,14.505l14.3-3.108l12.258-15.746L331.668,188.783z"/>
					</g>
				</g>
			</g>
			<path style="fill:#407BFF;" d="M266.714,229.138l-4.721,1.165c-6.341,1.565-12.382-3.466-11.991-9.986l2.094-34.909
				c2.995,0.164,6.657-0.503,11.079-2.544l-1.929,45.361l-0.082,1.949v0.103L266.714,229.138z"/>
			<g>
				<path style="fill:#407BFF;" d="M295.551,216.166l-8.223,15.945l-32.457,8.765c-3.327,0.898-5.616,3.946-5.551,7.392l0.858,45.92
					c0,0,7-28.076,7-26.808c0,1.268,2.657,45.606,2.657,45.606l-7.344,67.671l13.228-46.259l-5.991,76.313l22.471,0.207
					c0,0-2.723-34.072-2.723-35.921c0-1.85-11.579-67.123-11.579-67.123l-5.95-57.226c-0.372-3.576,1.842-6.913,5.281-7.961
					l24.977-7.614l5.647-16.297l22.71-12.852l11.102-17.042l-2.641-0.641c-4.632,6.96-11.134,17.452-11.134,17.452L295.551,216.166z
					"/>
			</g>
		</g>
	</g>
</g>
<g id="Mat">
	<g>
		<polygon style="fill:#407BFF;" points="358.852,405.519 141.148,405.519 115.242,416.797 384.758,416.797 		"/>
		<polygon style="opacity:0.7;fill:#FFFFFF;" points="358.852,405.519 141.148,405.519 115.242,416.797 384.758,416.797 		"/>
	</g>
</g>
<g id="Character">
	<g>
		<g>
			<g>
				<path style="fill:#263238;" d="M234.609,276.686c0.488-2.005,3.155-2.574,4.562-1.065c0.042,0.045,0.083,0.09,0.123,0.137
					c1.556,1.802,1.587,4.563,0.621,6.74c-0.966,2.177-2.76,3.87-4.622,5.355c-1.308,1.044-2.973,1.851-4.64,1.703
					c-1.667-0.148-4.638-2.483-4.403-6.681c0.102-1.823,0.685-3.597,0.756-5.422c0.07-1.825-0.285-3.753-1.463-5.148
					c0.718,0.239,1.547,0.633,1.966,1.263c-0.098-1.171-0.714-2.425-1.829-2.796c1.403-0.907,3.402-1.271,4.917-0.566
					c1.515,0.705,2.622,2.22,2.832,3.878c0.7-0.963,0.956-2.381,0.462-3.463c-0.494-1.083-1.599-1.861-2.785-1.962
					c2.483-0.391,5.176,1.009,4.73,4.493C235.73,273.968,234.546,276.945,234.609,276.686z"/>
				<path style="fill:#263238;" d="M234.609,276.686c0.488-2.005,3.155-2.574,4.562-1.065c0.042,0.045,0.083,0.09,0.123,0.137
					c1.556,1.802,1.587,4.563,0.621,6.74c-0.966,2.177-2.76,3.87-4.622,5.355c-1.308,1.044-2.973,1.851-4.64,1.703
					c-1.667-0.148-4.638-2.483-4.403-6.681c0.102-1.823,0.685-3.597,0.756-5.422c0.07-1.825-0.285-3.753-1.463-5.148
					c0.718,0.239,1.547,0.633,1.966,1.263c-0.098-1.171-0.714-2.425-1.829-2.796c1.403-0.907,3.402-1.271,4.917-0.566
					c1.515,0.705,2.622,2.22,2.832,3.878c0.7-0.963,0.956-2.381,0.462-3.463c-0.494-1.083-1.599-1.861-2.785-1.962
					c2.483-0.391,5.176,1.009,4.73,4.493C235.73,273.968,234.546,276.945,234.609,276.686z"/>
				<path style="opacity:0.2;" d="M234.609,276.686c0.488-2.005,3.155-2.574,4.562-1.065c0.042,0.045,0.083,0.09,0.123,0.137
					c1.556,1.802,1.587,4.563,0.621,6.74c-0.966,2.177-2.76,3.87-4.622,5.355c-1.308,1.044-2.973,1.851-4.64,1.703
					c-1.667-0.148-4.638-2.483-4.403-6.681c0.102-1.823,0.685-3.597,0.756-5.422c0.07-1.825-0.285-3.753-1.463-5.148
					c0.718,0.239,1.547,0.633,1.966,1.263c-0.098-1.171-0.714-2.425-1.829-2.796c1.403-0.907,3.402-1.271,4.917-0.566
					c1.515,0.705,2.622,2.22,2.832,3.878c0.7-0.963,0.956-2.381,0.462-3.463c-0.494-1.083-1.599-1.861-2.785-1.962
					c2.483-0.391,5.176,1.009,4.73,4.493C235.73,273.968,234.546,276.945,234.609,276.686z"/>
			</g>
			<g>
				<g>
					<path style="fill:#FFC3BD;" d="M259.222,262.76l-3.817-10.006l-8.239,5.235c0,0,2.822,5.322,7.359,6.071L259.222,262.76z"/>
					<path style="fill:#FFC3BD;" d="M250.758,248.748l-3.518,1.314c-1.399,0.535-2.119,2.086-1.624,3.499l1.55,4.428l8.239-5.235
						l-1.169-2.573C253.633,248.863,252.114,248.237,250.758,248.748z"/>
				</g>
				<path style="fill:#FFC3BD;" d="M260.173,316.632l11.295,9.309c2.921-4.636,12.23-24.387,11.883-41.241
					c-0.114-5.519-2.89-6.31-2.89-6.31l-22.478-18.208c-4.792-0.79-4.004,3.449-4.004,3.449s18.42,21.772,18.079,23.178
					C271.858,287.613,260.173,316.632,260.173,316.632z"/>
			</g>
			<g>
				<path style="fill:#FFC3BD;" d="M270.634,342.245c-0.783,5.035-2.526,13.865-3.069,18.281c-0.168,1.365-0.335,7.301,1.003,16.741
					c1.222,8.625,1.575,22.182,1.55,23.363l-46.18-3.115c1.624-21.132,11.905-35.319,11.895-38.238
					c-0.013-3.995-1.577-5.722-5.465-18.58L270.634,342.245z"/>
			</g>
			<g>
				<path style="fill:#407BFF;" d="M232.643,347.824c0,0-4.141-11.448-6.216-20.791c-0.877-3.957,3.258-9.112,7.215-9.99
					c0.219-0.049,0.44-0.087,0.662-0.115c2.066-0.269,4.357-0.517,6.681-0.634c5.21-0.393,10.442-0.415,15.656-0.064
					c3.665,0.323,7.603,0.93,10.412,1.404c2.754,0.458,4.794,2.806,4.862,5.597c0.07,9.267-0.962,17.325-2.091,24.593
					L232.643,347.824z"/>
			</g>
			<g>
				<path style="fill:#FFC3BD;" d="M242.434,298.681c1.002,5.027,2.027,14.246-1.483,17.612c5.391,2.23,10.343,5.401,14.625,9.364
					c3.936-6.943,1.031-9.427,1.031-9.427c-5.613-1.313-5.49-5.477-4.528-9.392L242.434,298.681z"/>
				<path style="opacity:0.2;" d="M243.48,299.569c0.085,2.995,0.808,5.937,2.123,8.629c0.916,1.851,3.433,2.668,5.978,2.859
					c-0.06-1.423,0.102-2.846,0.481-4.219L243.48,299.569z"/>
				<path style="fill:#FFC3BD;" d="M234.392,292.413c2.472,8.061,3.283,11.519,8.446,14.738c7.701,4.836,17.062,0.082,17.087-8.536
					c0.01-7.758-4.014-19.628-12.749-20.986c-6.257-1.015-12.153,3.234-13.168,9.492
					C233.721,288.89,233.852,290.703,234.392,292.413z"/>
				<path style="fill:#263238;" d="M239.684,275.968c5.392-4.961,11.342-2.966,14.469-1.336c3.127,1.63,5.497,4.649,6.338,8.074
					c0.332,1.352-0.035,4.47-2.621,5.341c0,0-1.306-2.825-3.008-4.17c-1.959-1.548-5.601-1.71-7.056-1.278
					c-1.378,3.154-3.359,6.64-5.67,9.19c-2.311,2.55-5.717,4.365-9.126,3.89c-3.13-4.002-4.172-9.564-2.06-14.185
					C233.063,276.873,239.684,275.968,239.684,275.968z"/>
				<path style="fill:#FFC3BD;" d="M232.563,296.959c0.468,1.571,1.55,2.888,3.002,3.651c1.914,0.978,3.309-0.617,3.144-2.655
					c-0.151-1.829-1.332-4.551-3.431-4.702c-1.526-0.064-2.815,1.121-2.878,2.647C232.384,296.26,232.44,296.62,232.563,296.959z"/>
				<path style="fill:#263238;" d="M254.442,290.171c0.154,0.672,0.633,1.124,1.07,1.018c0.437-0.106,0.665-0.719,0.502-1.392
					c-0.162-0.672-0.633-1.115-1.07-1.018C254.507,288.877,254.279,289.508,254.442,290.171z"/>
				<path style="fill:#263238;" d="M254.76,288.864l1.493-0.844C256.253,288.019,255.723,289.471,254.76,288.864z"/>
				<path style="fill:#263238;" d="M254.669,299.384c0.063-0.052,0.092-0.136,0.073-0.216c-0.031-0.106-0.143-0.167-0.249-0.135
					c0,0-0.001,0-0.001,0.001c-1.656,0.488-3.445,0.16-4.821-0.882c-0.083-0.073-0.21-0.066-0.283,0.017
					c-0.074,0.083-0.066,0.209,0.017,0.283c1.473,1.151,3.416,1.509,5.202,0.958L254.669,299.384z"/>
				<path style="fill:#263238;" d="M249.62,291.254c0.031-0.076,0.016-0.163-0.038-0.225c-0.078-0.078-0.204-0.079-0.283-0.002
					c0,0-0.001,0.001-0.001,0.001c-1.228,1.213-2.96,1.77-4.665,1.502c-0.108-0.026-0.216,0.041-0.241,0.149
					c-0.026,0.108,0.041,0.216,0.149,0.241c1.842,0.318,3.723-0.285,5.037-1.615L249.62,291.254z"/>
				<path style="fill:#263238;" d="M244.627,289.809c0.054-0.046,0.099-0.101,0.133-0.163c0.38-0.95,1.195-1.658,2.189-1.902
					c0.219-0.035,0.369-0.241,0.334-0.46c-0.035-0.219-0.24-0.369-0.46-0.334l0,0c-1.264,0.29-2.309,1.173-2.806,2.37
					c-0.083,0.21,0.02,0.447,0.23,0.53C244.373,289.9,244.515,289.885,244.627,289.809z"/>
				<path style="fill:#263238;" d="M256.591,286.925l0.053-0.051c0.159-0.154,0.163-0.406,0.01-0.565
					c-0.916-0.89-2.201-1.289-3.461-1.077c-0.215,0.051-0.348,0.266-0.298,0.481c0.001,0.003,0.002,0.007,0.003,0.01
					c0.052,0.214,0.267,0.347,0.482,0.295c1.01-0.173,2.04,0.153,2.768,0.873C256.275,286.991,256.45,287.005,256.591,286.925z"/>
				<path style="fill:#FF5652;" d="M254.127,296.308c0.866,0.031,1.701-0.322,2.283-0.964c-1.335-1.098-2.515-2.371-3.508-3.786
					L254.127,296.308z"/>
			</g>
			<g>
				<g>
					<path style="fill:#FFC3BD;" d="M237.108,262.646l3.817-10.006l8.239,5.235c0,0-2.822,5.322-7.359,6.072L237.108,262.646z"/>
					<path style="fill:#FFC3BD;" d="M245.572,248.635l3.518,1.314c1.399,0.535,2.119,2.086,1.624,3.5l-1.55,4.428l-8.239-5.235
						l1.169-2.573C242.697,248.75,244.216,248.124,245.572,248.635z"/>
				</g>
				<path style="fill:#FFC3BD;" d="M236.712,315.736l-0.269,1.005c-1.064,3.975-6.68,9.58-10.582,8.272l0,0
					c-2.921-4.636-13.229-23.573-12.881-40.427c0.114-5.519,2.89-6.31,2.89-6.31l22.478-18.208c4.792-0.789,4.003,3.449,4.003,3.449
					s-18.42,21.772-18.079,23.178C224.472,287.499,236.712,315.736,236.712,315.736z"/>
			</g>
		</g>
		<g>
			<path style="fill:#263238;" d="M267.806,370.664c4.324,6.714,8.102,14.167,12.015,21.129
				c-10.261,4.977-21.222,9.155-31.945,13.037c-10.415-3.704-20.401-8.625-29.418-15.019c4.378-6.653,8.756-13.307,13.134-19.96
				L267.806,370.664z"/>
			<g>
				<path style="fill:#263238;" d="M249.14,405.053c-2.426,10.446-22.956,8.196-28.375,7.85
					c-13.851-0.886-27.94-4.816-38.864-10.622c-0.936-3.452-0.982-8.62,2.112-10.415c16.496-9.571,38.797-8.097,51.062-2.802
					C241.619,391.89,249.14,396.332,249.14,405.053z"/>
				<path style="fill:#263238;" d="M249.14,405.053c-2.426,10.446-22.956,8.196-28.375,7.85
					c-13.851-0.886-27.94-4.816-38.864-10.622c-0.936-3.452-0.982-8.62,2.112-10.415c16.496-9.571,38.797-8.097,51.062-2.802
					C241.619,391.89,249.14,396.332,249.14,405.053z"/>
				<path style="opacity:0.2;" d="M249.14,405.053c-2.426,10.446-22.956,8.196-28.375,7.85c-13.851-0.886-27.94-4.816-38.864-10.622
					c-0.936-3.452-0.982-8.62,2.112-10.415c16.496-9.571,38.797-8.097,51.062-2.802C241.619,391.89,249.14,396.332,249.14,405.053z"
					/>
			</g>
			<g>
				<path style="fill:#263238;" d="M245.469,404.579c2.467,10.062,23.34,7.895,28.849,7.561
					c14.083-0.854,28.407-4.639,39.514-10.231c0.952-3.325,0.998-8.303-2.148-10.032c-16.771-9.219-39.445-7.799-51.915-2.699
					C253.116,391.899,245.469,396.178,245.469,404.579z"/>
				<path style="opacity:0.2;" d="M245.469,404.579c2.467,10.062,23.34,7.895,28.849,7.561c14.083-0.854,28.407-4.639,39.514-10.231
					c0.952-3.325,0.998-8.303-2.148-10.032c-16.771-9.219-39.445-7.799-51.915-2.699
					C253.116,391.899,245.469,396.178,245.469,404.579z"/>
			</g>
			<g>
				<g>
					<g>
						<path style="fill:#FFC3BD;" d="M262.267,411.656l-3.521-2.867c-0.294-0.209-0.431-0.648-0.322-1.031l2.353-4.291l1.951-3.558
							c0.629-1.626,1.832-0.76,1.874-0.729c12.796,7.172,16.149,10.931,17.472,12.006c3.774,3.066,1.478,6.22,0.048,5.628
							c-6.415-2.676-11.108-4.933-15.666-4.639C262.326,412.501,262.713,411.99,262.267,411.656z"/>
					</g>
					<path style="fill:#FFC3BD;" d="M266.897,411.864c0,0-14.143,2.586-25.576,2.471l-4.82,0.057l2.122-9.68
						c0,0,11.855,2.59,21.831,1.743c5.924-0.503,5.924-0.503,5.924-0.503L266.897,411.864z"/>
				</g>
				<path style="fill:#263238;" d="M183.116,392.31c6.723-4.271,22.625-3.885,30.301-1.762c7.677,2.123,32.252,15.303,40.216,15.202
					l0.563,9.229c-32.471,0.165-63.027,0.093-72.861-12.803C180.522,397.812,181.08,396.256,183.116,392.31z"/>
				<path style="opacity:0.2;" d="M183.116,392.31c6.723-4.271,22.625-3.885,30.301-1.762c7.677,2.123,32.252,15.303,40.216,15.202
					l0.563,9.229c-32.471,0.165-63.027,0.093-72.861-12.803C180.522,397.812,181.08,396.256,183.116,392.31z"/>
			</g>
			<g>
				<g>
					<path style="fill:#FFC3BD;" d="M256.482,406.34l-4.63-1.01c-9.53-1.88-19.76-5.92-22.37-6.99c-0.59-0.16-1.58-0.59-3.34-1.56
						c-4.6-2.44-10.45-2.5-18.37-2.74c-1.77-0.05-2.67-4.41,2.69-5.82c1.88-0.5,11.07-1.09,23.81-4.28c0.06-0.01,1.71-0.34,1.6,1.64
						l0.36,4.62l0.073,0.934c0.159,2.04,1.642,3.734,3.642,4.162c8.12,1.735,16.425,1.304,16.425,1.304L256.482,406.34z"/>
				</g>
				<path style="fill:#263238;" d="M313.685,392.817c-5.717-5.546-15.73-5.926-23.678-5.405c-7.947,0.521-39.704,9.513-47.482,7.799
					l-1.564,8.779c31.763,6.748,50.531,8.761,72.465-1.151C315.109,398.73,314.878,397.094,313.685,392.817z"/>
			</g>
		</g>
		<path style="fill:#FFC3BD;" d="M222.79,319.541c2.153,4.162,4.435,9.286,6.641,13.846c0.923,1.909,3.461,2.297,4.934,0.772
			c4.453-4.609,6.969-11.747,5.371-17.703c-2.37-1.216-5.134-2.451-7.504-3.667C228.635,314.35,224.993,316.298,222.79,319.541z"/>
		<path style="fill:#FFC3BD;" d="M260.503,316.356c3.308,2.225,5.659,5.655,7.229,9.319c1.57,3.664,2.796,6.139,3.641,10.035
			c0.993-2.938,2.714-16.792-0.662-20.529c-2.079-2.301-6.414-1.942-7.337-1.427C262.145,314.441,261.47,315.332,260.503,316.356z"
			/>
	</g>
</g>
</svg>
