<?xml version="1.0" encoding="utf-8"?>
<!-- Generator: Adobe Illustrator 27.5.0, SVG Export Plug-In . SVG Version: 6.00 Build 0)  -->
<svg version="1.1" xmlns="http://www.w3.org/2000/svg" xmlns:xlink="http://www.w3.org/1999/xlink" x="0px" y="0px"
	 viewBox="0 0 500 500" style="enable-background:new 0 0 500 500;" xml:space="preserve">
<g id="BACKGROUND">
	<rect y="0" style="fill:#FFFFFF;" width="500" height="500"/>
</g>
<g id="OBJECTS">
	<g>
		<g>
			<g>
				<path style="fill:#261E35;" d="M146.495,405.104c0,0-6.306,84.657,1.2,86.071s18.801-76.804,18.801-76.804L146.495,405.104z"/>
				<path style="fill:#261E35;" d="M353.505,405.104c0,0,6.306,84.657-1.2,86.071s-18.801-76.804-18.801-76.804L353.505,405.104z"/>
			</g>
			<path style="fill:#D16F42;" d="M171.449,262.878c0,0,134.616-20.116,162.91,2.418c28.294,22.535-2.182,89.995,13.394,98.248
				c24.68,13.076,30.228,44.489,22.495,67.275c-7.733,22.786-217.007,24.218-237.282,4.51s13.819-63.627,11.969-79.227
				C143.085,340.502,143.141,273.032,171.449,262.878z"/>
		</g>
		<path style="fill:#C9493A;" d="M170.201,298.863c0,0,53.118-49.186,148.404-2.52c7.236,3.544,48.129,104.305,7.817,119.257
			s-148.371,5.972-164.793,0C145.207,409.629,155.47,307.291,170.201,298.863z"/>
		<g>
			<path style="fill:#6C858A;" d="M192.923,320.952c0,0,6.545-5.071,8.342-3.603c1.797,1.468,0.636,6.942,0.636,6.942
				s13.183,31.459,11.974,44.209l3.662,5.813l-12.392,2.134c0,0-36.396,7.548-52.244,9.762c0,0-5.336,6.178-6.937,5.946
				s0-8.429,0-8.429l-9.605-42.735c0,0-8.538-9.614-5.87-9.491c2.668,0.123,11.206,3.325,11.206,3.325
				S179.583,323.087,192.923,320.952z"/>
			<path style="fill:#6C858A;" d="M360.986,336.314c0,0,8.252-0.68,8.957,1.53c0.705,2.211-3.254,6.166-3.254,6.166
				s-6.109,33.558-14.077,43.585l-0.101,6.87l-11.55-4.97c0,0-34.622-13.525-49.113-20.314c0,0-7.842,2.268-9.057,1.2
				s4.598-7.065,4.598-7.065l15.258-41.057c0,0-1.912-12.715,0.257-11.156c2.169,1.559,7.579,8.899,7.579,8.899
				S348.64,330.827,360.986,336.314z"/>
			<path style="fill:#261E35;" d="M155.381,357.576l-0.251-0.969c1.394-0.361,34.22-8.81,42.888-8.576l-0.031,1
				C189.479,348.753,155.721,357.488,155.381,357.576z"/>
			<path style="fill:#261E35;" d="M346.945,356.156c-7.946-3.051-42.692-5.937-43.042-5.966l0.082-0.996
				c1.435,0.118,35.239,2.926,43.319,6.028L346.945,356.156z"/>
		</g>
	</g>
	<g>
		<path style="fill:#261E35;" d="M255.43,268.996c0,0,18.651,0.989,18.42-5.723s-6.913-28.467-13.293-27.773
			C254.178,236.195,250.162,269.007,255.43,268.996z"/>
		<path style="fill:#D27878;" d="M242.142,248.25c0,0-2.545,18.22-5.641,24.05c-1.342,2.526-12.662,0.843-18.16,6.096
			c-5.498,5.254,13.327,20.389,24.735,26.872c8.744,4.969,33.042-27.594,31.942-27.676c-7.082-0.532-19.849-3.387-19.587-8.596
			c0.262-5.209,0.398-9.946,0.398-9.946S243.182,249.032,242.142,248.25z"/>
		<path style="fill:#D27878;" d="M236.958,233.485c0,0-4.317,31.556,13.557,32.502c12.295,0.651,18.355-19.947,15.324-29.78
			C262.81,226.375,244.47,226.007,236.958,233.485z"/>
		<path style="fill:#D27878;" d="M237.561,248.703c0,0-0.567-5.404-3.333-2.965c-2.766,2.439,0.579,9.403,3.11,9.499
			C239.868,255.334,238.631,251.176,237.561,248.703z"/>
		<circle style="fill:#CB5C6C;" cx="242.315" cy="253.681" r="3.213"/>
		<circle style="fill:#CB5C6C;" cx="260.557" cy="253.068" r="3.213"/>
		<path style="fill:#E9B977;" d="M228.895,274.338c0,0,4.046,20.352,20.587,19.31c15.382-0.969,16.533-18.074,16.533-18.074
			c6.581,1.67,27.089,1.768,32.943,18.074c5.855,16.306,13.229,75.791,1.657,81.173c-11.572,5.382-21.905,5.85-49.877,6.931
			c-27.972,1.081-40.751,16.6-55.946,13.128c-15.195-3.472-1.419-106.95,8.979-113.566
			C214.17,274.699,228.895,274.338,228.895,274.338z"/>
		<path style="fill:#E9B977;" d="M176.63,333.642c0,0,12.363,10.817,21.284,9.389s13.397-33.339,14.571-45.963
			c1.174-12.624,0.158-21.039-3.191-18.604C205.944,280.899,187.086,280.795,176.63,333.642z"/>
		<path style="fill:#E9B977;" d="M307.172,322.105c0,0-10.308,8.388-17.747,7.28s-11.171-25.852-12.15-35.641
			c-0.979-9.789-0.615-12.539-3.321-14.535C272.691,278.278,300.877,279.67,307.172,322.105z"/>
		<path style="fill:#D27878;" d="M198.459,324.051c0,0-3.979,20.234,11.545,24.861s74.582-18.164,90.467-17.813
			c15.884,0.351,10.341,5.95,9.939-2.051c-0.346-6.888-0.326-11.281-12.666-12.328C285.404,315.672,242.315,294.884,198.459,324.051
			z"/>
		<path style="fill:#261E35;" d="M253.979,256.781c-0.001,0-0.002,0-0.003,0c-1.145-0.007-3.221-1.168-3.453-1.301l0.494-0.869
			c0.74,0.421,2.104,1.073,2.822,1.16c0.25-0.665,0.03-3.467-0.354-5.836l0.986-0.16c0.281,1.726,0.852,5.836,0.087,6.73
			C254.405,256.684,254.2,256.781,253.979,256.781z"/>
		<path style="fill:#261E35;" d="M246.438,249.308c-1.455,0-2.791-0.627-3.528-1.167l0.59-0.808
			c0.123,0.088,3.023,2.148,5.369,0.033l0.67,0.742C248.559,248.993,247.469,249.308,246.438,249.308z"/>
		<path style="fill:#261E35;" d="M259.731,249.846c-1.455,0-2.79-0.627-3.527-1.166l0.589-0.808c0.123,0.089,3.022,2.15,5.369,0.033
			l0.67,0.742C261.853,249.532,260.762,249.846,259.731,249.846z"/>
		<path style="fill:#261E35;" d="M253.605,261.317c-2.746-3.057-7.863-1.344-7.915-1.326l-0.327-0.945
			c0.235-0.081,5.793-1.949,8.985,1.604L253.605,261.317z"/>
		<path style="fill:#261E35;" d="M251.848,266.315c-3.456,0-6.31-1.06-6.497-1.13l0.354-0.936c0.068,0.025,6.924,2.561,11.989-0.344
			l0.498,0.867C256.153,265.943,253.895,266.315,251.848,266.315z"/>
		<path style="fill:#E9B977;" d="M225.838,310.602c0,0,15.075,30.438,12.988,33.678c-2.088,3.24-33.069,24.516-54.925,12.3
			s-0.183-59.03,11.599-65.868C207.281,283.874,225.838,310.602,225.838,310.602z"/>
		<path style="fill:#261E35;" d="M202.062,315.092l-0.347-0.938c6.845-2.526,23.378-3.989,24.079-4.05l0.087,0.996
			C225.711,311.115,208.782,312.612,202.062,315.092z"/>
		<path style="fill:#261E35;" d="M216.308,264.476c0,0,27.249,7.798,26.007,2.665c-2.95-12.199-1.911-27.242,0-27.937
			c1.911-0.694,13.458,8.563,21.455,4.397c7.997-4.166,7.862-21.173-11.165-23.024C233.58,218.725,221.545,226.938,216.308,264.476z
			"/>
		<path style="fill:#D27878;" d="M312.812,313.48c0,0-26.165-61.623-36.567-76.262c-10.402-14.639-18.053-14.56-18.053-14.56
			c-2.449,1.698,3.989,7.989,3.989,7.989s-7.639-6.562-7.989-4.107c-0.351,2.455,4.824,7.364,4.824,7.364s-5.605-4.208-6.968-2.455
			c-1.363,1.753,10.867,11.388,14.395,19.019c3.528,7.632,2.371,51.186,6.272,66.251
			C276.841,332.646,318.818,334.634,312.812,313.48z"/>
		<path style="fill:#261E35;" d="M213.448,311.513l-0.986-0.162c0.442-2.695,1.312-13.933,1.321-14.045l0.997,0.076
			C214.744,297.846,213.897,308.774,213.448,311.513z"/>
		<path style="fill:#261E35;" d="M275.46,326.887c-6.811-8.659-6.887-51.901-6.887-53.738h1c0,0.446,0.075,44.731,6.672,53.12
			L275.46,326.887z"/>
		<path style="fill:#261E35;" d="M282.816,414.147c0,0-57.095-49.923-36.611-72.186s32.265-20.656,40.381-10.862
			s16.013,70.874,22.697,78.118C315.968,416.46,291.056,428.132,282.816,414.147z"/>
		<path style="fill:#261E35;" d="M295.321,416.143c0,0-45.006-73.344-19.469-89.564c25.537-16.221,35.709-3.274,41.022,8.284
			s1.147,63.656,5.735,72.379C327.197,415.965,295.914,432.418,295.321,416.143z"/>
		<path style="fill:#261E35;" d="M276.582,380.003c0,0-4.118,27.552-34.266,36.14c-18.015,5.132-34.542,3.918-44.313-4.154
			c-9.771-8.072-11.203-32.817-7.861-38.11s59.062-45.399,78.931-48.391C277.508,324.217,281.855,376.62,276.582,380.003z"/>
		<path style="fill:#F3DCC6;" d="M306.813,406.075c-0.043-0.342-4.443-34.547-13.055-59.731
			c-7.317-21.401-15.974-20.376-16.055-20.362l-0.159-0.987c0.382-0.069,9.526-1.3,17.159,21.025
			c8.646,25.283,13.058,59.587,13.102,59.931L306.813,406.075z"/>
		<path style="fill:#F3DCC6;" d="M268.386,398.179c-0.813-1.033-19.913-25.47-21.499-41.344l0.995-0.1
			c1.557,15.587,21.093,40.574,21.289,40.824L268.386,398.179z"/>
		<g>
			<path style="fill:#D27878;" d="M282.816,414.147c0,0,18.618-6.448,21.706-7.298c5.015-1.38,15.307-3.46,17.049-2.956
				c1.742,0.503,1.091,11.845,5.736,16.604c4.645,4.759,13.389,12.036,11.811,13.69c-1.578,1.654-21.582-2.022-21.582-2.022
				s16.584,1.489,14.966,3.244c-1.617,1.755-24.969,8.546-31.394,2.106C294.685,431.074,282.816,414.147,282.816,414.147z"/>
			<path style="fill:#261E35;" d="M332.282,435.856l-15.909-7.806l-0.072-0.099c-4.824-6.583-9.282-21.177-9.47-21.794l0.957-0.291
				c0.045,0.149,4.55,14.897,9.247,21.395l15.688,7.696L332.282,435.856z"/>
		</g>
		<path style="fill:#261E35;" d="M188.045,358.472c0,0,16.617,5.139,29.312-5.603c5.152-4.36-16.96,58.291-19.354,59.12
			C195.608,412.817,179.703,394.331,188.045,358.472z"/>
	</g>
	<g>
		<path style="fill:#261E35;" d="M250,0H0v65.091c0,0,11.086,35.389,39.604,42.848c28.518,7.46,44.728-9.787,55.72,10.075
			c6.267,11.324,9.922,28.886,32.736,33.711c22.814,4.825,38.597-4.23,48.048-1.638c9.451,2.592,16.132,27.091,33.221,29.491
			C238.28,183.644,235,198.068,250,215.077c15-17.009,11.72-31.433,40.671-35.499c17.088-2.4,23.77-26.9,33.221-29.491
			s25.234,6.463,48.048,1.638c22.814-4.825,26.469-22.387,32.736-33.711c10.992-19.862,27.203-2.615,55.72-10.075
			C488.914,100.479,500,65.091,500,65.091V0H250z"/>
		<path style="fill:#F4DDC7;" d="M129.97,145.767c-0.325,0.032-0.65,0.052-0.977,0.059c-2.372,0.051-3.97-0.647-4.749-2.077
			c-1.257-2.306-0.146-6.377,3.048-11.203c-6.549-3.865-10.573-8.704-10.28-12.39c0.172-2.168,1.734-3.832,4.64-4.944
			c2.685-1.027,5.965-1.558,9.648-1.557c-0.774-3.816-0.209-6.658,1.682-8.45c0.583-0.552,1.32-0.876,2.192-0.961
			c1.785-0.175,4.14,0.683,6.653,2.419c3.058-2.187,6.089-3.522,8.558-3.764c2.637-0.258,4.53,0.772,5.332,2.899
			c0.616,1.636,0.646,4.097,0.089,7.138c1.153-0.096,2.286-0.09,3.371,0.018c3.948,0.393,5.049,1.717,5.278,2.759
			c0.408,1.857-1.554,4.246-5.397,6.594c2.756,2.117,4.356,4.324,4.638,6.405c0.188,1.391-0.202,2.71-1.159,3.921
			c-0.361,0.457-0.737,0.902-1.12,1.328c1.132,1.3,1.666,2.536,1.585,3.676c-0.068,0.971-0.579,1.858-1.517,2.638
			c-0.232,0.316-1.681,2.132-4.541,2.412c-2.02,0.198-4.258-0.422-6.654-1.842c-3.355,0.854-6.854,0.85-10.09-0.01
			C136.795,143.777,133.354,145.436,129.97,145.767z M127.904,132.9c-3.018,4.552-4.155,8.468-3.04,10.511
			c0.643,1.179,2.027,1.754,4.114,1.709c3.444-0.075,6.92-1.6,10.411-4.519c-3.652-1.147-6.649-3.32-8.497-6.173l-0.001-0.001
			C129.88,133.965,128.878,133.452,127.904,132.9z M151.249,140.578c2.036,1.102,3.926,1.575,5.628,1.408
			c2.744-0.269,4.045-2.132,4.058-2.151l0.068-0.074c0.805-0.659,1.241-1.389,1.296-2.171c0.066-0.931-0.393-1.975-1.364-3.106
			C158.171,137.383,154.843,139.475,151.249,140.578z M140.841,140.27c2.771,0.661,5.728,0.681,8.611,0.05
			c-1.343-0.887-2.74-2.024-4.167-3.389l-0.002-0.001c-0.458,0.104-0.939,0.184-1.434,0.239l-0.001,0.001
			C142.865,138.303,141.856,139.344,140.841,140.27z M146.084,136.715c1.488,1.393,2.937,2.526,4.317,3.373
			c3.737-1.011,7.205-3.125,10.057-6.126c-1.529-1.569-3.992-3.268-7.163-4.941c-0.66,2.581-2.226,4.753-4.659,6.462
			C147.889,136.009,147.033,136.422,146.084,136.715z M132.153,134.98c1.856,2.358,4.603,4.136,7.871,5.076
			c0.948-0.839,1.892-1.782,2.818-2.812C139.726,137.368,136,136.578,132.153,134.98z M131.375,133.872
			c4.415,1.996,8.71,2.924,12.124,2.622c0.206-0.241,0.41-0.485,0.612-0.732c-1.84-1.9-3.764-4.207-5.723-6.863l-0.001,0
			c-0.984,0.115-1.983,0.205-2.995,0.27c-1.486,0.096-3.006,0.025-4.523-0.21c-0.344,0.409-0.678,0.82-0.999,1.228
			C130.153,131.488,130.659,132.726,131.375,133.872z M145.055,135.715c0.148,0.148,0.294,0.293,0.439,0.435
			c1.032-0.275,1.952-0.693,2.737-1.244c2.34-1.644,3.826-3.735,4.42-6.219c-0.729-0.373-1.494-0.745-2.281-1.108
			C148.761,130.565,146.975,133.299,145.055,135.715z M139.193,128.8c1.837,2.467,3.638,4.618,5.364,6.407
			c1.865-2.355,3.602-5.018,5.169-7.923c-0.365-0.164-0.734-0.327-1.105-0.487C145.569,127.712,142.401,128.385,139.193,128.8z
			 M153.455,128.308c3.298,1.726,5.871,3.492,7.482,5.134c0.358-0.4,0.71-0.817,1.048-1.245c0.834-1.055,1.175-2.195,1.013-3.389
			c-0.263-1.947-1.85-4.057-4.593-6.111c-1.433,0.829-3.043,1.613-4.793,2.335l-0.002,0.002c0.088,1.139,0.036,2.237-0.157,3.272
			L153.455,128.308z M128.301,132.314c0.644,0.364,1.301,0.71,1.964,1.036c-0.404-0.783-0.72-1.6-0.947-2.444
			C128.964,131.376,128.624,131.847,128.301,132.314z M127.973,114.518c-2.255,0.221-4.297,0.676-6.068,1.354
			c-2.631,1.006-4.04,2.466-4.189,4.34c-0.268,3.373,3.728,8.07,9.972,11.748c0.444-0.645,0.922-1.298,1.426-1.949l0,0l0.001-0.001
			c-0.089-0.472-0.151-0.955-0.185-1.44l-0.003-0.002c-4.506-1.126-8.303-3.664-8.185-5.499c0.068-1.059,0.811-2.385,3.961-2.694
			c1.528-0.15,3.469-0.054,5.775,0.284l0-0.001l0.001,0c0.491-1.196,1.09-2.397,1.785-3.576l0-0.001l0,0
			c-0.331-0.946-0.602-1.858-0.807-2.718C130.252,114.357,129.081,114.409,127.973,114.518z M150.701,126.954
			c0.72,0.333,1.421,0.673,2.094,1.014c0.14-0.845,0.182-1.735,0.126-2.657c-0.558,0.22-1.129,0.434-1.706,0.638
			C151.048,126.285,150.876,126.62,150.701,126.954z M129.65,128.735c0.015,0.175,0.035,0.35,0.058,0.524
			c0.118-0.147,0.238-0.293,0.358-0.439C129.928,128.793,129.789,128.765,129.65,128.735z M131.412,128.324
			c1.321,0.176,2.642,0.223,3.934,0.14c0.873-0.057,1.738-0.132,2.589-0.225c-0.478-0.73-1.421-2.217-2.455-4.102
			C134.036,125.472,132.671,126.877,131.412,128.324z M136.019,123.648c1.233,2.264,2.349,3.97,2.703,4.5
			c3.012-0.37,5.99-0.97,8.87-1.787c-3.415-1.417-7.045-2.653-10.569-3.594C136.684,123.057,136.348,123.352,136.019,123.648z
			 M149.662,126.483c0.133,0.059,0.265,0.118,0.396,0.177c0.066-0.127,0.132-0.253,0.198-0.38c-0.198,0.066-0.397,0.131-0.597,0.195
			l0.012,0.005L149.662,126.483z M129.608,128.003c0.325,0.072,0.654,0.138,0.981,0.194c1.393-1.63,2.92-3.21,4.545-4.7l0-0.001
			l0.001,0c-0.234-0.44-0.472-0.898-0.708-1.371c-1.224-0.278-2.4-0.508-3.501-0.683c-0.492,1.28-0.86,2.566-1.095,3.825
			C129.659,126.189,129.585,127.108,129.608,128.003z M137.681,122.214c3.68,1.008,7.46,2.327,10.982,3.832
			c0.691-0.211,1.379-0.435,2.049-0.668c0.571-1.153,1.106-2.327,1.593-3.493c-0.314-1.079-0.743-2.189-1.277-3.302
			c-1.624-0.693-3.342-1.321-5.11-1.867C143.139,118.138,140.372,119.986,137.681,122.214z M124.77,121.076
			c-2.133,0.209-3.251,0.894-3.325,2.037c-0.072,1.125,2.848,3.525,7.453,4.719c-0.01-0.884,0.069-1.789,0.238-2.695
			c0.234-1.254,0.595-2.532,1.074-3.804C128.035,121.022,126.206,120.936,124.77,121.076z M152.592,123.01
			c-0.295,0.677-0.605,1.355-0.928,2.027c0.403-0.149,0.802-0.303,1.193-0.459C152.797,124.065,152.709,123.541,152.592,123.01z
			 M153.05,121.929c0.222,0.804,0.384,1.599,0.483,2.372c1.537-0.642,2.96-1.332,4.244-2.057c-1.158-0.813-2.478-1.599-3.935-2.345
			C153.596,120.571,153.33,121.251,153.05,121.929z M154.085,119.23c1.629,0.83,3.095,1.711,4.363,2.624
			c3.623-2.168,5.657-4.453,5.319-5.988c-0.253-1.15-1.907-1.934-4.659-2.208c-1.105-0.11-2.262-0.11-3.442,0.001
			c-0.361,1.744-0.892,3.615-1.582,5.569l0.001,0L154.085,119.23z M135.324,122.335c0.117,0.229,0.234,0.453,0.351,0.673
			c0.171-0.153,0.344-0.306,0.518-0.457C135.902,122.477,135.612,122.405,135.324,122.335z M152.001,119.012
			c0.273,0.62,0.513,1.237,0.72,1.847c0.169-0.428,0.332-0.855,0.487-1.278C152.814,119.388,152.411,119.198,152.001,119.012z
			 M134.911,121.511c0.636,0.148,1.282,0.308,1.936,0.479l0.001,0c2.643-2.229,5.364-4.098,8.101-5.564
			c-3.377-0.976-6.855-1.633-10.123-1.911c-0.647,0.863-1.247,1.75-1.786,2.642C133.534,118.527,134.163,119.99,134.911,121.511z
			 M131.196,120.77c0.902,0.147,1.851,0.329,2.834,0.544c-0.556-1.163-1.042-2.291-1.451-3.367
			C132.053,118.882,131.59,119.827,131.196,120.77z M151.548,118.038c0.649,0.281,1.286,0.574,1.9,0.874
			c0.636-1.81,1.132-3.545,1.48-5.17c-1.647,0.216-3.363,0.643-5.114,1.272C150.468,116.013,151.05,117.027,151.548,118.038z
			 M146.83,116.264c1.269,0.411,2.51,0.862,3.706,1.349c-0.418-0.785-0.887-1.571-1.401-2.346
			C148.375,115.562,147.603,115.896,146.83,116.264z M135.336,113.852c3.411,0.324,7.03,1.048,10.516,2.105
			c0.962-0.484,1.927-0.916,2.876-1.289c-1.953-2.802-4.382-5.316-6.894-7.136C139.452,109.296,137.22,111.468,135.336,113.852z
			 M132.185,114.372c0.152,0.616,0.338,1.26,0.557,1.924c0.391-0.62,0.809-1.237,1.252-1.843
			C133.383,114.412,132.778,114.385,132.185,114.372z M149.408,114.409l0.001,0.001c1.94-0.71,3.844-1.18,5.666-1.398
			c0.572-3.008,0.566-5.412-0.018-6.963c-0.87-2.309-2.983-2.604-4.603-2.446c-2.295,0.225-5.129,1.462-8.019,3.495
			c2.551,1.885,5.006,4.458,6.972,7.311L149.408,114.409z M132.023,113.662c0.807,0.015,1.637,0.054,2.473,0.118l0.001,0
			c1.931-2.513,4.246-4.809,6.727-6.673c-3.335-2.25-6.26-2.806-7.756-1.389C131.743,107.354,131.256,110.026,132.023,113.662z"/>
		<path style="fill:#F4DDC7;" d="M96.952,50.926c-0.296,0.137-0.597,0.262-0.904,0.376c-2.224,0.827-3.963,0.691-5.167-0.404
			c-1.944-1.766-2.229-5.976-0.796-11.583c-7.454-1.503-12.843-4.753-13.776-8.332c-0.549-2.105,0.381-4.188,2.762-6.192
			c2.2-1.851,5.124-3.428,8.603-4.636c-1.983-3.351-2.381-6.221-1.183-8.534c0.369-0.713,0.96-1.26,1.756-1.627
			c1.629-0.751,4.135-0.713,7.079,0.103c2.171-3.07,4.597-5.324,6.85-6.363c2.406-1.109,4.533-0.757,5.988,0.99
			c1.119,1.343,1.954,3.658,2.426,6.714c1.058-0.469,2.13-0.835,3.19-1.089c3.859-0.924,5.333-0.034,5.891,0.875
			c0.994,1.62-0.075,4.521-2.935,8c3.298,1.096,5.534,2.656,6.482,4.529c0.634,1.252,0.699,2.626,0.192,4.084
			c-0.191,0.55-0.4,1.093-0.623,1.622c1.496,0.857,2.406,1.85,2.704,2.953c0.254,0.94,0.063,1.945-0.567,2.989
			c-0.115,0.375-0.888,2.565-3.499,3.768c-1.843,0.85-4.161,0.998-6.89,0.443c-2.889,1.908-6.196,3.051-9.535,3.301
			C102.747,46.807,100.04,49.503,96.952,50.926z M90.78,39.448c-1.358,5.29-1.147,9.362,0.576,10.927
			c0.994,0.903,2.49,0.992,4.447,0.265c3.229-1.2,6.012-3.782,8.352-7.684c-3.826,0.115-7.371-0.955-10.052-3.043l-0.001,0
			C92.996,39.806,91.881,39.65,90.78,39.448z M115.352,39.043c2.284,0.373,4.225,0.2,5.778-0.516
			c2.504-1.154,3.122-3.341,3.128-3.363l0.04-0.092c0.545-0.886,0.717-1.719,0.512-2.476c-0.243-0.901-1.019-1.737-2.308-2.487
			C120.843,33.754,118.385,36.822,115.352,39.043z M105.418,42.166c2.835-0.285,5.634-1.235,8.151-2.777
			c-1.56-0.398-3.253-1.013-5.048-1.835l-0.002-0.001c-0.398,0.249-0.826,0.482-1.277,0.696l-0.001,0.001
			C106.685,39.645,106.073,40.959,105.418,42.166z M109.206,37.088c1.862,0.828,3.603,1.422,5.185,1.77
			c3.199-2.181,5.781-5.315,7.49-9.086c-1.96-0.981-4.843-1.777-8.388-2.317c0.223,2.655-0.543,5.221-2.281,7.633
			C110.678,35.829,110.005,36.5,109.206,37.088z M95.475,40.019c2.527,1.619,5.705,2.397,9.1,2.213
			c0.62-1.103,1.203-2.304,1.74-3.581C103.413,39.791,99.634,40.267,95.475,40.019z M94.377,39.229
			c4.826,0.437,9.188-0.095,12.313-1.501c0.115-0.295,0.228-0.593,0.338-0.893c-2.362-1.191-4.936-2.739-7.657-4.605l-0.001,0
			c-0.892,0.431-1.806,0.845-2.741,1.237c-1.372,0.578-2.832,1.01-4.341,1.286c-0.191,0.499-0.371,0.997-0.541,1.488
			C92.441,37.376,93.325,38.381,94.377,39.229z M107.905,36.482c0.188,0.092,0.374,0.181,0.558,0.267
			c0.885-0.598,1.616-1.295,2.177-2.073c1.671-2.321,2.389-4.784,2.135-7.325c-0.811-0.113-1.655-0.213-2.518-0.299
			C109.716,30.4,108.926,33.569,107.905,36.482z M100.099,31.872c2.544,1.728,4.952,3.169,7.169,4.293
			c0.989-2.837,1.757-5.922,2.284-9.18c-0.398-0.035-0.8-0.068-1.204-0.098C105.765,28.752,102.993,30.427,100.099,31.872z
			 M113.411,26.729c3.682,0.548,6.691,1.373,8.752,2.396c0.207-0.495,0.403-1.005,0.581-1.52c0.442-1.27,0.389-2.459-0.155-3.534
			c-0.888-1.753-3.079-3.226-6.344-4.266c-1.082,1.253-2.346,2.522-3.762,3.778l-0.002,0.002c0.457,1.047,0.767,2.101,0.925,3.142
			L113.411,26.729z M90.963,38.764c0.728,0.132,1.462,0.244,2.195,0.334c-0.638-0.607-1.205-1.275-1.696-1.998
			C91.28,37.661,91.114,38.218,90.963,38.764z M84.815,22.061c-2.058,0.949-3.837,2.048-5.288,3.27
			c-2.155,1.813-3.007,3.655-2.534,5.474c0.853,3.274,6.169,6.4,13.274,7.826c0.208-0.755,0.445-1.529,0.707-2.308l0,0l0.001-0.001
			c-0.239-0.417-0.456-0.852-0.647-1.299l-0.004-0.001c-4.626,0.414-9.045-0.737-9.536-2.51c-0.283-1.022-0.017-2.519,2.858-3.844
			c1.394-0.643,3.259-1.189,5.548-1.626l0-0.001l0.001,0c0.071-1.29,0.244-2.622,0.513-3.964l-0.001,0l0,0
			c-0.623-0.785-1.178-1.558-1.654-2.303C86.914,21.161,85.826,21.595,84.815,22.061z M110.365,26.353
			c0.789,0.079,1.563,0.17,2.31,0.271c-0.145-0.844-0.397-1.699-0.752-2.551c-0.454,0.391-0.924,0.78-1.402,1.163
			C110.472,25.608,110.42,25.98,110.365,26.353z M91.063,34.941c0.072,0.16,0.147,0.319,0.227,0.476
			c0.063-0.177,0.128-0.355,0.195-0.532C91.344,34.905,91.203,34.924,91.063,34.941z M92.593,33.975
			c1.306-0.267,2.569-0.656,3.763-1.158c0.806-0.34,1.598-0.694,2.372-1.062c-0.691-0.533-2.07-1.628-3.664-3.07
			C94.136,30.419,93.307,32.195,92.593,33.975z M95.41,28.047c1.907,1.734,3.521,2.98,4.029,3.364
			c2.723-1.338,5.34-2.882,7.793-4.598c-3.691-0.219-7.526-0.195-11.163,0.072C95.845,27.27,95.624,27.658,95.41,28.047z
			 M109.228,26.248c0.144,0.012,0.289,0.024,0.433,0.037c0.021-0.141,0.042-0.283,0.062-0.424c-0.165,0.127-0.332,0.254-0.5,0.38
			l0.012,0.001L109.228,26.248z M90.783,34.264c0.331-0.038,0.662-0.084,0.991-0.138c0.781-1.997,1.706-3.99,2.752-5.931l-0.001,0
			l0-0.001c-0.366-0.339-0.74-0.694-1.119-1.063c-1.248,0.139-2.433,0.308-3.531,0.503c-0.044,1.371,0.03,2.706,0.221,3.973
			C90.236,32.533,90.467,33.426,90.783,34.264z M96.51,26.147c3.807-0.255,7.811-0.249,11.632,0.018
			c0.584-0.426,1.16-0.863,1.716-1.303c0.161-1.277,0.281-2.561,0.359-3.823c-0.65-0.916-1.42-1.824-2.29-2.7
			c-1.762-0.122-3.591-0.151-5.44-0.087C100.329,20.506,98.321,23.159,96.51,26.147z M83.94,29.307
			c-1.946,0.897-2.778,1.911-2.473,3.015c0.301,1.087,3.847,2.395,8.589,2.013c-0.3-0.832-0.521-1.713-0.659-2.624
			c-0.19-1.261-0.268-2.587-0.233-3.946C87.006,28.185,85.25,28.703,83.94,29.307z M110.856,22.006
			c-0.057,0.737-0.127,1.478-0.212,2.219c0.332-0.273,0.658-0.549,0.976-0.825C111.397,22.936,111.141,22.47,110.856,22.006z
			 M110.935,20.835c0.474,0.687,0.888,1.385,1.235,2.082c1.241-1.11,2.359-2.229,3.334-3.335c-1.361-0.388-2.866-0.698-4.486-0.924
			C111.005,19.373,110.977,20.103,110.935,20.835z M111.027,17.946c1.811,0.249,3.485,0.601,4.982,1.048
			c2.711-3.237,3.883-6.062,3.061-7.402c-0.616-1.003-2.436-1.201-5.125-0.557c-1.08,0.259-2.173,0.639-3.251,1.13
			c0.231,1.766,0.343,3.708,0.332,5.78l0.001,0L111.027,17.946z M94.323,27.034c0.185,0.178,0.37,0.351,0.552,0.521
			c0.112-0.201,0.225-0.402,0.34-0.602C94.916,26.978,94.618,27.005,94.323,27.034z M108.987,18.423c0.461,0.496,0.89,1,1.286,1.509
			c0.019-0.46,0.033-0.916,0.041-1.367C109.879,18.512,109.435,18.465,108.987,18.423z M93.663,26.391
			c0.65-0.069,1.312-0.13,1.986-0.182l0.001,0c1.765-2.973,3.723-5.63,5.828-7.914c-3.51,0.186-7.011,0.706-10.19,1.516
			c-0.328,1.027-0.604,2.062-0.82,3.081C91.383,24.024,92.457,25.2,93.663,26.391z M89.91,26.91c0.9-0.157,1.857-0.296,2.856-0.416
			c-0.907-0.916-1.736-1.822-2.475-2.704C90.1,24.845,89.973,25.89,89.91,26.91z M108.239,17.653
			c0.705,0.053,1.403,0.12,2.081,0.202c0.007-1.919-0.093-3.721-0.297-5.369c-1.485,0.745-2.966,1.711-4.414,2.879
			C106.555,16.094,107.437,16.861,108.239,17.653z M103.201,17.524c1.334-0.028,2.654-0.009,3.944,0.059
			c-0.653-0.605-1.354-1.193-2.093-1.756C104.43,16.354,103.81,16.923,103.201,17.524z M91.551,19.017
			c3.329-0.813,6.984-1.316,10.624-1.461c0.75-0.772,1.52-1.497,2.294-2.161c-2.764-2.006-5.883-3.584-8.854-4.479
			C93.945,13.362,92.549,16.146,91.551,19.017z M88.746,20.541c0.346,0.532,0.733,1.079,1.157,1.634
			c0.166-0.714,0.359-1.434,0.578-2.151C89.89,20.186,89.31,20.359,88.746,20.541z M105.028,14.926l0.001,0.001
			c1.6-1.307,3.244-2.375,4.894-3.179c-0.446-3.029-1.24-5.298-2.301-6.572c-1.579-1.896-3.672-1.482-5.15-0.8
			c-2.095,0.965-4.365,3.064-6.429,5.933c3.028,0.944,6.191,2.569,8.984,4.619L105.028,14.926z M88.359,19.924
			c0.767-0.251,1.564-0.485,2.375-0.7l0.001-0.001c1-3.007,2.434-5.936,4.166-8.511c-3.888-1.031-6.834-0.597-7.782,1.232
			C86.025,14.057,86.442,16.74,88.359,19.924z"/>
		<path style="fill:#F4DDC7;" d="M269.382,41.131c0.326-0.022,0.651-0.032,0.978-0.029c2.372,0.02,3.949,0.766,4.685,2.218
			c1.187,2.342-0.045,6.378-3.382,11.107c6.43,4.059,10.308,9.016,9.905,12.692c-0.237,2.162-1.848,3.778-4.786,4.802
			c-2.715,0.946-6.009,1.378-9.69,1.267c0.659,3.838,0.009,6.661-1.934,8.395c-0.599,0.535-1.346,0.836-2.22,0.895
			c-1.789,0.121-4.118-0.807-6.578-2.618c-3.122,2.095-6.192,3.338-8.667,3.506c-2.643,0.179-4.505-0.907-5.243-3.058
			c-0.567-1.653-0.523-4.114,0.125-7.137c-1.156,0.061-2.288,0.022-3.369-0.119c-3.935-0.511-4.996-1.868-5.193-2.916
			c-0.352-1.868,1.68-4.197,5.592-6.43c-2.691-2.198-4.225-4.453-4.444-6.541c-0.146-1.396,0.283-2.703,1.275-3.885
			c0.374-0.446,0.763-0.879,1.16-1.293c-1.093-1.334-1.589-2.585-1.475-3.722c0.097-0.969,0.634-1.84,1.595-2.591
			c0.241-0.309,1.744-2.08,4.612-2.275c2.025-0.137,4.243,0.549,6.596,2.04c3.379-0.753,6.877-0.644,10.085,0.312
			C262.5,42.916,265.99,41.361,269.382,41.131z M271.061,54.055c3.153-4.46,4.406-8.339,3.354-10.416
			c-0.607-1.198-1.973-1.814-4.061-1.831c-3.444-0.028-6.965,1.393-10.541,4.205c3.616,1.256,6.547,3.518,8.309,6.424l0.001,0.001
			C269.118,52.931,270.105,53.474,271.061,54.055z M247.957,45.681c-2.002-1.162-3.877-1.692-5.583-1.576
			c-2.751,0.187-4.107,2.01-4.121,2.029l-0.07,0.072c-0.825,0.634-1.282,1.351-1.361,2.131c-0.094,0.929,0.334,1.986,1.27,3.146
			C240.942,48.667,244.332,46.676,247.957,45.681z M258.352,46.301c-2.75-0.744-5.705-0.853-8.606-0.308
			c1.316,0.927,2.679,2.105,4.063,3.513l0.002,0.001c0.461-0.091,0.944-0.156,1.441-0.196l0.001-0.001
			C256.269,48.206,257.309,47.196,258.352,46.301z M253.004,49.697c-1.445-1.437-2.86-2.613-4.214-3.501
			c-3.766,0.899-7.296,2.908-10.235,5.822c1.482,1.614,3.892,3.386,7.012,5.153c0.737-2.56,2.367-4.685,4.85-6.32
			C251.179,50.349,252.047,49.962,253.004,49.697z M266.877,51.849c-1.784-2.413-4.477-4.272-7.715-5.309
			c-0.972,0.81-1.945,1.725-2.901,2.726C259.379,49.235,263.08,50.136,266.877,51.849z M267.622,52.979
			c-4.353-2.127-8.619-3.184-12.04-2.984c-0.213,0.235-0.425,0.473-0.634,0.714c1.783,1.955,3.636,4.317,5.515,7.031l0.001,0
			c0.987-0.086,1.988-0.146,3.002-0.18c1.488-0.051,3.006,0.065,4.514,0.345c0.356-0.398,0.702-0.799,1.035-1.198
			C268.771,55.399,268.303,54.146,267.622,52.979z M254.003,50.727c-0.143-0.153-0.285-0.302-0.426-0.448
			c-1.04,0.244-1.972,0.635-2.773,1.162c-2.389,1.573-3.937,3.619-4.604,6.084c0.717,0.394,1.471,0.789,2.246,1.176
			C250.144,55.764,252.011,53.085,254.003,50.727z M259.656,57.814c-1.762-2.52-3.498-4.725-5.17-6.565
			c-1.935,2.298-3.751,4.907-5.404,7.764c0.36,0.175,0.724,0.349,1.09,0.52C253.25,58.712,256.436,58.134,259.656,57.814z
			 M245.384,57.879c-3.245-1.824-5.764-3.666-7.325-5.356c-0.37,0.389-0.734,0.796-1.085,1.213c-0.865,1.029-1.24,2.159-1.114,3.357
			c0.205,1.954,1.728,4.111,4.408,6.246c1.457-0.785,3.09-1.521,4.861-2.19l0.002-0.002c-0.054-1.141,0.031-2.237,0.255-3.266
			L245.384,57.879z M270.647,54.629c-0.633-0.383-1.279-0.749-1.932-1.094c0.38,0.794,0.672,1.621,0.873,2.472
			C269.957,55.546,270.311,55.086,270.647,54.629z M270.442,72.426c2.261-0.153,4.315-0.547,6.106-1.172
			c2.66-0.927,4.112-2.344,4.317-4.212c0.369-3.364-3.485-8.178-9.616-12.041c-0.463,0.631-0.96,1.27-1.483,1.905l0,0l-0.001,0.001
			c0.075,0.474,0.122,0.959,0.142,1.445l0.003,0.003c4.47,1.261,8.189,3.911,8.017,5.742c-0.1,1.056-0.882,2.36-4.039,2.574
			c-1.531,0.104-3.469-0.05-5.763-0.457l0,0.001l-0.001,0c-0.526,1.18-1.162,2.363-1.892,3.521l0,0.001l0,0
			c0.302,0.956,0.546,1.876,0.725,2.741C268.16,72.519,269.332,72.502,270.442,72.426z M248.097,59.315
			c-0.71-0.355-1.4-0.716-2.062-1.076c-0.165,0.841-0.234,1.729-0.206,2.652c0.564-0.203,1.141-0.4,1.724-0.587
			C247.731,59.973,247.912,59.644,248.097,59.315z M269.192,58.166c-0.01-0.176-0.024-0.351-0.042-0.525
			c-0.122,0.143-0.246,0.285-0.371,0.428C268.916,58.099,269.054,58.132,269.192,58.166z M267.418,58.523
			c-1.315-0.216-2.634-0.302-3.928-0.258c-0.874,0.031-1.741,0.08-2.595,0.148c0.456,0.744,1.354,2.258,2.331,4.173
			C264.71,61.296,266.117,59.932,267.418,58.523z M262.674,63.059c-1.164-2.3-2.229-4.039-2.567-4.579
			c-3.021,0.28-6.016,0.791-8.92,1.52c3.371,1.519,6.963,2.862,10.456,3.909C261.991,63.63,262.335,63.346,262.674,63.059z
			 M249.121,59.818c-0.131-0.063-0.261-0.126-0.391-0.189c-0.07,0.125-0.14,0.249-0.209,0.374c0.2-0.06,0.401-0.119,0.602-0.177
			l-0.011-0.005L249.121,59.818z M269.212,58.898c-0.323-0.082-0.649-0.157-0.975-0.224c-1.441,1.588-3.015,3.121-4.684,4.562
			l0,0.001l-0.001,0c0.221,0.447,0.445,0.912,0.667,1.392c1.215,0.315,2.383,0.579,3.479,0.788c0.53-1.265,0.936-2.539,1.209-3.791
			C269.106,60.71,269.209,59.793,269.212,58.898z M260.97,64.443c-3.649-1.118-7.387-2.549-10.862-4.16
			c-0.697,0.19-1.392,0.394-2.068,0.607c-0.605,1.136-1.175,2.293-1.697,3.444c0.281,1.088,0.677,2.21,1.178,3.339
			c1.603,0.742,3.301,1.42,5.052,2.019C255.391,68.354,258.213,66.59,260.97,64.443z M273.84,65.967
			c2.138-0.145,3.277-0.796,3.384-1.936c0.106-1.122-2.742-3.608-7.309-4.94c-0.016,0.884-0.123,1.786-0.319,2.686
			c-0.271,1.246-0.671,2.513-1.188,3.77C270.576,65.923,272.401,66.064,273.84,65.967z M246.089,63.201
			c0.315-0.668,0.646-1.336,0.988-1.998c-0.407,0.137-0.81,0.279-1.206,0.423C245.915,62.14,245.988,62.667,246.089,63.201z
			 M245.598,64.268c-0.198-0.81-0.336-1.61-0.412-2.385c-1.555,0.595-2.999,1.243-4.303,1.929c1.133,0.847,2.429,1.673,3.863,2.462
			C245.013,65.609,245.299,64.937,245.598,64.268z M244.483,66.935c-1.604-0.878-3.042-1.803-4.282-2.753
			c-3.686,2.059-5.787,4.281-5.496,5.826c0.218,1.157,1.848,1.99,4.59,2.346c1.101,0.143,2.258,0.177,3.44,0.102
			c0.413-1.733,1-3.587,1.748-5.519l-0.001,0L244.483,66.935z M263.328,64.393c-0.11-0.232-0.221-0.46-0.33-0.683
			c-0.176,0.148-0.353,0.296-0.532,0.442C262.755,64.234,263.043,64.315,263.328,64.393z M246.559,67.215
			c-0.254-0.627-0.476-1.252-0.664-1.868c-0.182,0.423-0.357,0.845-0.525,1.263C245.758,66.815,246.155,67.017,246.559,67.215z
			 M263.717,65.228c-0.631-0.167-1.272-0.346-1.92-0.537l-0.001,0c-2.708,2.149-5.484,3.935-8.264,5.319
			c3.346,1.077,6.803,1.838,10.061,2.213c0.673-0.843,1.299-1.712,1.864-2.587C265.004,68.253,264.419,66.771,263.717,65.228z
			 M267.409,66.081c-0.897-0.174-1.841-0.384-2.817-0.628c0.521,1.179,0.973,2.321,1.349,3.409
			C266.495,67.943,266.986,67.011,267.409,66.081z M246.984,68.202c-0.64-0.3-1.268-0.612-1.873-0.93
			c-0.689,1.79-1.238,3.51-1.634,5.123c1.653-0.167,3.381-0.542,5.15-1.118C248.002,70.259,247.451,69.227,246.984,68.202z
			 M251.646,70.116c-1.257-0.449-2.483-0.937-3.664-1.46c0.395,0.798,0.84,1.597,1.331,2.387
			C250.081,70.772,250.863,70.462,251.646,70.116z M263.063,72.871c-3.4-0.426-6.995-1.258-10.448-2.419
			c-0.976,0.454-1.953,0.858-2.914,1.202c1.868,2.859,4.221,5.445,6.677,7.339C258.812,77.302,261.109,75.199,263.063,72.871z
			 M266.228,72.447c-0.133-0.62-0.3-1.269-0.499-1.939c-0.409,0.608-0.846,1.212-1.306,1.804
			C265.032,72.37,265.636,72.415,266.228,72.447z M249.014,71.893l-0.001-0.001c-1.961,0.652-3.877,1.064-5.706,1.228
			c-0.662,2.989-0.728,5.392-0.19,6.961c0.8,2.334,2.904,2.693,4.527,2.582c2.301-0.156,5.17-1.308,8.12-3.254
			c-2.494-1.961-4.87-4.606-6.75-7.516L249.014,71.893z M266.369,73.16c-0.806-0.039-1.634-0.103-2.469-0.192l-0.001,0
			c-2.005,2.454-4.388,4.68-6.924,6.469c3.266,2.348,6.174,2.992,7.711,1.62C266.46,79.474,267.026,76.818,266.369,73.16z"/>
		<path style="fill:#F4DDC7;" d="M451.015,64.739c-0.318-0.073-0.633-0.158-0.945-0.256c-2.264-0.708-3.556-1.88-3.839-3.483
			c-0.456-2.586,1.896-6.09,6.462-9.646c-4.974-5.752-7.246-11.621-5.792-15.021c0.855-2,2.865-3.079,5.975-3.206
			c2.872-0.117,6.151,0.426,9.641,1.601c0.484-3.864,1.925-6.377,4.289-7.472c0.729-0.338,1.53-0.409,2.384-0.212
			c1.747,0.404,3.706,1.968,5.534,4.415c3.596-1.098,6.894-1.396,9.311-0.838c2.581,0.596,4.048,2.176,4.129,4.448
			c0.063,1.747-0.694,4.089-2.192,6.794c1.124,0.277,2.196,0.644,3.189,1.092c3.617,1.631,4.238,3.238,4.123,4.298
			c-0.206,1.89-2.827,3.529-7.218,4.529c1.937,2.885,2.75,5.488,2.353,7.55c-0.265,1.378-1.056,2.504-2.349,3.347
			c-0.488,0.318-0.986,0.62-1.485,0.901c0.659,1.594,0.77,2.935,0.33,3.99c-0.374,0.899-1.141,1.577-2.279,2.016
			c-0.321,0.226-2.273,1.484-5.073,0.838c-1.978-0.457-3.901-1.758-5.719-3.868c-3.452-0.261-6.767-1.38-9.56-3.227
			C458.118,65.03,454.327,65.504,451.015,64.739z M453.16,51.885c-4.312,3.352-6.638,6.701-6.234,8.993
			c0.233,1.322,1.362,2.309,3.354,2.932c3.288,1.027,7.069,0.69,11.308-0.963c-3.096-2.252-5.243-5.267-6.085-8.56l-0.001-0.001
			C454.694,53.524,453.907,52.718,453.16,51.885z M472.838,66.607c1.578,1.693,3.219,2.744,4.885,3.129
			c2.687,0.62,4.514-0.731,4.532-0.745l0.088-0.049c0.973-0.368,1.62-0.92,1.921-1.644c0.359-0.862,0.257-1.997-0.302-3.379
			C480.417,65.786,476.596,66.708,472.838,66.607z M463.071,62.995c2.416,1.51,5.212,2.472,8.146,2.794
			c-0.99-1.269-1.952-2.792-2.868-4.541l-0.001-0.002c-0.467-0.047-0.949-0.125-1.436-0.231l-0.001,0
			C465.617,61.777,464.328,62.441,463.071,62.995z M469.174,61.299c0.966,1.794,1.978,3.331,3.016,4.574
			c3.865,0.233,7.826-0.664,11.485-2.599c-0.949-1.975-2.741-4.37-5.214-6.967c-1.449,2.236-3.625,3.796-6.476,4.639
			C471.11,61.204,470.167,61.323,469.174,61.299z M456.524,55.211c1.007,2.827,3.043,5.388,5.841,7.32
			c1.166-0.493,2.362-1.085,3.568-1.766C462.94,59.889,459.66,57.953,456.524,55.211z M456.139,53.913
			c3.548,3.3,7.323,5.55,10.654,6.351c0.272-0.163,0.544-0.329,0.814-0.499c-1.138-2.388-2.226-5.187-3.235-8.329l-0.001,0
			c-0.969-0.205-1.945-0.438-2.924-0.699c-1.438-0.383-2.857-0.935-4.22-1.641c-0.456,0.278-0.904,0.561-1.338,0.846
			C455.742,51.263,455.826,52.598,456.139,53.913z M468.517,60.022c0.093,0.188,0.185,0.372,0.277,0.553
			c1.066,0.068,2.071-0.035,2.991-0.307c2.742-0.812,4.818-2.32,6.172-4.485c-0.572-0.586-1.178-1.182-1.808-1.778
			C473.673,56.323,471.108,58.345,468.517,60.022z M465.166,51.599c0.954,2.923,1.975,5.537,3.041,7.783
			c2.519-1.638,5.014-3.607,7.426-5.861c-0.293-0.272-0.591-0.544-0.892-0.815C471.557,52.601,468.34,52.228,465.166,51.599z
			 M478.841,55.681c2.575,2.687,4.451,5.182,5.454,7.252c0.467-0.265,0.934-0.548,1.39-0.846c1.127-0.734,1.813-1.706,2.041-2.889
			c0.371-1.93-0.46-4.435-2.404-7.256c-1.622,0.328-3.399,0.558-5.287,0.684l-0.003,0.001c-0.28,1.107-0.68,2.131-1.192,3.051
			L478.841,55.681z M453.724,51.456c0.495,0.55,1.006,1.088,1.531,1.608c-0.133-0.871-0.172-1.746-0.118-2.619
			C454.65,50.778,454.178,51.116,453.724,51.456z M459.088,34.484c-2.208-0.51-4.288-0.73-6.183-0.652
			c-2.814,0.115-4.616,1.049-5.354,2.777c-1.33,3.111,0.96,8.837,5.705,14.315c0.626-0.47,1.288-0.937,1.973-1.392l0,0l0.001-0.001
			c0.066-0.476,0.161-0.953,0.284-1.424l-0.002-0.003c-3.911-2.504-6.701-6.12-6.004-7.823c0.402-0.982,1.529-2.002,4.613-1.29
			c1.496,0.345,3.305,1.055,5.382,2.111l0-0.001l0.001,0.001c0.846-0.977,1.798-1.924,2.833-2.82l0-0.001l0,0
			c-0.012-1.002,0.022-1.953,0.102-2.834C461.299,35.058,460.172,34.735,459.088,34.484z M476.663,53.519
			c0.576,0.545,1.132,1.091,1.661,1.629c0.402-0.757,0.726-1.587,0.967-2.478c-0.599,0.031-1.208,0.051-1.82,0.061
			C477.204,52.996,476.935,53.258,476.663,53.519z M456.143,48.494c-0.041,0.171-0.079,0.343-0.112,0.515
			c0.159-0.101,0.319-0.202,0.48-0.302C456.388,48.637,456.265,48.566,456.143,48.494z M457.944,48.667
			c1.196,0.589,2.433,1.054,3.684,1.388c0.846,0.225,1.689,0.429,2.526,0.612c-0.22-0.844-0.64-2.554-1.018-4.67
			C461.341,46.8,459.599,47.696,457.944,48.667z M463.801,45.704c0.446,2.539,0.96,4.512,1.127,5.127
			c2.973,0.609,5.986,0.99,8.977,1.135c-2.785-2.432-5.831-4.761-8.871-6.777C464.62,45.356,464.208,45.528,463.801,45.704z
			 M475.828,52.741c0.107,0.098,0.213,0.196,0.319,0.294c0.103-0.099,0.206-0.198,0.309-0.297c-0.209-0.001-0.418-0.002-0.628-0.005
			l0.009,0.008H475.828z M456.337,47.787c0.285,0.172,0.576,0.339,0.868,0.497c1.84-1.101,3.791-2.111,5.807-3.006l0-0.001l0.001,0
			c-0.082-0.492-0.161-1.002-0.234-1.526c-1.072-0.654-2.113-1.246-3.1-1.764c-0.874,1.057-1.633,2.158-2.257,3.277
			C456.964,46.084,456.6,46.931,456.337,47.787z M465.834,44.875c3.167,2.129,6.329,4.585,9.186,7.135
			c0.723,0.021,1.446,0.028,2.155,0.02c0.909-0.911,1.79-1.853,2.624-2.803c0.047-1.123-0.006-2.311-0.157-3.537
			c-1.319-1.175-2.746-2.318-4.248-3.399C472.307,42.752,469.095,43.621,465.834,44.875z M453.96,39.679
			c-2.088-0.482-3.367-0.189-3.801,0.87c-0.427,1.043,1.576,4.249,5.559,6.85c0.272-0.841,0.636-1.673,1.085-2.478
			c0.622-1.114,1.371-2.21,2.232-3.263C457.072,40.669,455.366,40.003,453.96,39.679z M479.713,50.384
			c-0.496,0.548-1.006,1.091-1.526,1.625c0.43-0.013,0.856-0.032,1.277-0.055C479.571,51.449,479.654,50.925,479.713,50.384z
			 M480.492,49.506c-0.046,0.833-0.146,1.638-0.298,2.402c1.661-0.118,3.23-0.318,4.678-0.596c-0.839-1.14-1.839-2.306-2.981-3.477
			C481.442,48.392,480.973,48.953,480.492,49.506z M482.333,47.277c1.279,1.306,2.387,2.608,3.298,3.878
			c4.125-0.9,6.781-2.416,6.951-3.979c0.127-1.17-1.191-2.441-3.711-3.578c-1.012-0.457-2.109-0.825-3.263-1.097
			c-0.898,1.538-1.999,3.142-3.276,4.774L482.333,47.277L482.333,47.277z M463.562,44.238c0.038,0.254,0.077,0.504,0.118,0.75
			c0.211-0.091,0.424-0.18,0.637-0.268C464.064,44.556,463.813,44.395,463.562,44.238z M480.428,46.406
			c0.061,0.674,0.092,1.336,0.093,1.98c0.297-0.352,0.587-0.705,0.869-1.056C481.079,47.022,480.757,46.713,480.428,46.406z
			 M463.433,43.325c0.556,0.343,1.117,0.701,1.682,1.071l0.001,0c3.216-1.27,6.39-2.173,9.453-2.69
			c-2.889-2.002-5.976-3.734-8.985-5.039c-0.889,0.611-1.74,1.261-2.535,1.934C463.08,40.057,463.209,41.645,463.433,43.325z
			 M460.148,41.437c0.808,0.427,1.65,0.902,2.513,1.419c-0.156-1.28-0.257-2.503-0.301-3.654
			C461.563,39.921,460.822,40.67,460.148,41.437z M480.308,45.339c0.525,0.473,1.036,0.954,1.522,1.434
			c1.18-1.513,2.204-2.999,3.052-4.428c-1.63-0.32-3.393-0.463-5.253-0.425C479.931,43.075,480.159,44.222,480.308,45.339z
			 M476.403,42.153c1.072,0.794,2.104,1.618,3.082,2.461c-0.146-0.878-0.34-1.772-0.58-2.67
			C478.091,41.98,477.253,42.05,476.403,42.153z M466.278,36.202c3.13,1.395,6.329,3.235,9.295,5.349
			c1.066-0.152,2.118-0.253,3.137-0.304c-0.958-3.278-2.458-6.436-4.259-8.962C471.632,33.196,468.824,34.542,466.278,36.202z
			 M463.126,35.689c-0.053,0.632-0.081,1.302-0.086,2.001c0.568-0.463,1.162-0.914,1.774-1.347
			C464.249,36.109,463.684,35.891,463.126,35.689z M479.438,41.217l0,0.001c2.065-0.054,4.019,0.108,5.816,0.482
			c1.502-2.668,2.263-4.949,2.203-6.606c-0.088-2.466-1.997-3.42-3.582-3.786c-2.247-0.519-5.327-0.25-8.715,0.755
			c1.817,2.6,3.323,5.821,4.276,9.152L479.438,41.217z M463.199,34.965c0.76,0.271,1.534,0.574,2.307,0.901l0.001,0
			c2.632-1.766,5.558-3.204,8.504-4.18c-2.444-3.196-5.039-4.656-6.908-3.79C464.945,28.897,463.632,31.274,463.199,34.965z"/>
		<g>
			<path style="fill:#6C858A;" d="M211.141,6.758c21.267-1.239,26.901,31.82,11.289,37.641c-5.912,2.204-25.599,7.936-30.856-11.88
				C188.752,21.885,195.291,7.681,211.141,6.758z"/>
			<path style="fill:#261E35;" d="M214.464,20.407c0,0,0.318,5.179,3.847,5.307s4.557-5.871,3.616-6.933s-2.666,4.548-3.594,3.773
				C217.405,21.779,214.242,19.033,214.464,20.407z"/>
			<path style="fill:#261E35;" d="M198.384,24.313c0,0,0.318,5.179,3.847,5.307c3.529,0.128,4.557-5.871,3.616-6.933
				s-2.666,4.548-3.594,3.773C201.326,25.685,198.163,22.939,198.384,24.313z"/>
			<path style="fill:#261E35;" d="M217.4,33.551c0,0-0.784-5.931-4.853-5.793s-4.768,7.121-3.6,8.266
				c1.168,1.145,2.7-5.446,3.829-4.63C213.906,32.21,217.766,35.113,217.4,33.551z"/>
		</g>
		<g>
			<path style="fill:#CE6470;" d="M117.637,71.68c20.421,6.068,14.475,39.072-2.186,39.237c-6.309,0.062-26.773-1.243-24.977-21.666
				C91.438,78.292,102.418,67.158,117.637,71.68z"/>
			<path style="fill:#261E35;" d="M114.411,99.005c0,0,1.28-5.844-2.594-7.099c-3.874-1.255-6.906,5.075-6.196,6.549
				s4.391-4.203,5.176-3.051S114.224,100.599,114.411,99.005z"/>
			<path style="fill:#261E35;" d="M108.602,84.147c0,0-4.72-7.441-6.035-7.642c-1.315-0.202-0.685,3.835-0.685,3.835
				s-3.67-1.854-3.893-0.309C97.912,80.559,109.796,89.22,108.602,84.147z"/>
			<path style="fill:#261E35;" d="M114.317,85.733c0,0,6.735-5.681,8.05-5.479c1.315,0.202-0.497,3.864-0.497,3.864
				s4.057-0.668,3.807,0.874C125.591,85.519,111.656,90.214,114.317,85.733z"/>
			
				<ellipse transform="matrix(0.1518 -0.9884 0.9884 0.1518 -0.6691 175.3749)" style="fill:#261E35;" cx="101.848" cy="88.077" rx="3.177" ry="3.232"/>
			
				<ellipse transform="matrix(0.1518 -0.9884 0.9884 0.1518 11.4366 196.5468)" style="fill:#261E35;" cx="120.237" cy="91.61" rx="3.177" ry="3.232"/>
		</g>
		<g>
			<path style="fill:#CE6470;" d="M404.049,15.771c20.613-5.377,32.608,25.94,18.437,34.705
				c-5.366,3.319-23.551,12.792-32.585-5.612C385.053,34.987,388.686,19.778,404.049,15.771z"/>
			<path style="fill:#261E35;" d="M415.43,40.821c0,0-1.929-5.663-5.893-4.732c-3.964,0.931-3.282,7.916-1.913,8.81
				c1.37,0.894,1.582-5.869,2.849-5.289C411.742,40.19,416.095,42.282,415.43,40.821z"/>
			<path style="fill:#261E35;" d="M402.77,31.114c0,0-7.89-3.924-9.119-3.416c-1.229,0.508,1.399,3.636,1.399,3.636
				s-4.1,0.312-3.491,1.75C391.766,33.577,406.417,34.837,402.77,31.114z"/>
			<path style="fill:#261E35;" d="M408.481,29.514c0,0,2.823-8.347,4.052-8.855s1.574,3.564,1.574,3.564s3.126-2.671,3.709-1.223
				C418.016,23.495,408.522,34.725,408.481,29.514z"/>
			
				<ellipse transform="matrix(0.9243 -0.3817 0.3817 0.9243 15.7119 155.1644)" style="fill:#261E35;" cx="399.025" cy="37.972" rx="3.232" ry="3.177"/>
			
				<ellipse transform="matrix(0.9243 -0.3817 0.3817 0.9243 19.52 161.3757)" style="fill:#261E35;" cx="416.588" cy="31.478" rx="3.232" ry="3.177"/>
		</g>
		<g>
			<path style="fill:#E9B977;" d="M298.106,127.252c20.307,6.439,13.761,39.329-2.9,39.191c-6.309-0.053-26.745-1.73-24.578-22.117
				C271.791,133.385,282.972,122.453,298.106,127.252z"/>
			<path style="fill:#261E35;" d="M294.383,154.513c0,0,1.386-5.82-2.464-7.145c-3.85-1.325-6.997,4.948-6.315,6.435
				s4.467-4.122,5.23-2.956S294.167,156.103,294.383,154.513z"/>
			
				<ellipse transform="matrix(0.1698 -0.9855 0.9855 0.1698 92.8606 396.9443)" style="fill:#261E35;" cx="282.021" cy="143.358" rx="3.177" ry="3.232"/>
			
				<ellipse transform="matrix(0.1698 -0.9855 0.9855 0.1698 104.2605 418.21)" style="fill:#261E35;" cx="300.343" cy="147.225" rx="3.177" ry="3.232"/>
		</g>
		<g>
			<path style="fill:#CE6470;" d="M243.924,41.931c0,0-4.168-7.327-6.894-16.435c-2.727-9.107-0.792-19.613,9.506-18.682
				c12.199,1.103,6.744,12.012,7.743,12.52c0.998,0.508,6.279-9.602,14.008-2.34C276.181,24.414,271.246,33.752,243.924,41.931z"/>
			<path style="fill:#261E35;" d="M248.15,33.31c-0.077-0.235-0.18-0.525-0.296-0.847c-0.73-2.033-1.25-3.663-0.779-4.611
				c0.328-0.659,1.394-0.785,3.931-0.933c0.403-0.023,0.889-0.052,1.281-0.087c-1.697-2.382-2.524-3.742-2.343-4.553
				c0.058-0.254,0.21-0.462,0.428-0.585c0.866-0.486,3.087-3.107,4.285-4.644l1.011,0.786c-0.316,0.406-2.999,3.823-4.445,4.831
				c0.136,0.499,0.849,1.656,2.124,3.447c0.263,0.369,0.456,0.644,0.519,0.757l0.174,0.309l-0.168,0.376
				c-0.257,0.472-0.792,0.522-2.792,0.639c-0.866,0.051-2.434,0.142-2.893,0.322c-0.152,0.659,0.559,2.64,0.871,3.512
				c0.121,0.337,0.23,0.642,0.31,0.888L248.15,33.31z"/>
		</g>
		<g>
			<path style="fill:#CE6470;" d="M29.306,85.607c0,0-7.697-3.437-15.287-9.162c-7.59-5.725-12.251-15.337-3.401-20.684
				c10.484-6.334,12.548,5.687,13.653,5.505c1.105-0.182-0.626-11.456,9.902-10.18C44.928,52.39,46.481,62.838,29.306,85.607z"/>
			<path style="fill:#261E35;" d="M27.607,76.157c-0.201-0.144-0.456-0.316-0.74-0.507c-1.792-1.207-3.176-2.212-3.358-3.254
				c-0.126-0.726,0.658-1.458,2.615-3.08c0.311-0.258,0.686-0.568,0.981-0.828c-2.778-0.915-4.25-1.521-4.584-2.282
				c-0.104-0.239-0.104-0.497-0.001-0.725c0.41-0.905,0.648-4.332,0.703-6.279l1.28,0.035c-0.014,0.514-0.153,4.856-0.721,6.525
				c0.405,0.322,1.665,0.832,3.753,1.52c0.43,0.142,0.749,0.249,0.867,0.303l0.323,0.146l0.088,0.402
				c0.072,0.533-0.329,0.89-1.872,2.168c-0.668,0.554-1.878,1.556-2.141,1.972c0.268,0.621,2.013,1.797,2.781,2.314
				c0.298,0.2,0.566,0.381,0.775,0.533L27.607,76.157z"/>
		</g>
		<g>
			<path style="fill:#F4DDC7;" d="M196.873,77.584c0,0,33.59,0.651,35.058,0c1.468-0.651,0.551-8.984-4.772-9.201
				s-3.595,1.297-4.329,1.08c-0.734-0.217,0.658-10.765-8.154-10.742c-6.985,0.018-7.891,5.633-8.258,8.236
				c-0.367,2.603-1.285-5.205-7.526-2.603c-6.241,2.603-3.304,7.374-3.304,7.374s-4.719-5.078-7.839,2.73
				C185.852,79.205,196.873,77.584,196.873,77.584z"/>
			<path style="fill:#E9B977;" d="M217.449,81.318c0,0,3.345-1.78,3.603-1.508c0.257,0.271,0.159,5.93,0.159,5.93
				s3.379-1.708,4.108-1.266c0.729,0.443,0.495,9.166,0.191,8.655c-0.304-0.511-1.948-5.616-2.484-5.366
				c-0.536,0.25-3.229,1.377-3.229,1.377L217.449,81.318z"/>
			<path style="fill:#E9B977;" d="M209.14,80.965c0,0,4.348,0.332,4.431,0.754c0.083,0.422-3.5,5.861-3.5,5.861
				s4.337,0.422,4.772,1.302c0.435,0.88-5.168,9.214-5.148,8.53s1.568-6.659,0.893-6.746c-0.675-0.087-3.987-0.651-3.987-0.651
				L209.14,80.965z"/>
			<path style="fill:#E9B977;" d="M200.38,79.915c0,0,3.27,1.914,3.174,2.275c-0.096,0.361-4.965,3.247-4.965,3.247
				s3.227,1.98,3.233,2.833c0.006,0.853-7.543,5.231-7.267,4.705c0.275-0.527,3.759-4.605,3.265-4.93s-2.867-2.026-2.867-2.026
				L200.38,79.915z"/>
		</g>
		<g>
			<path style="fill:#F4DDC7;" d="M310.934,23.45c0,0,33.59,0.651,35.058,0c1.468-0.651,0.551-8.984-4.772-9.201
				c-5.323-0.217-3.595,1.297-4.329,1.08c-0.734-0.217,0.658-10.765-8.154-10.742c-6.984,0.018-7.891,5.633-8.258,8.236
				s-1.285-5.205-7.526-2.603c-6.241,2.603-3.304,7.374-3.304,7.374s-4.719-5.078-7.839,2.73
				C299.913,25.072,310.934,23.45,310.934,23.45z"/>
			<path style="fill:#E9B977;" d="M331.51,27.185c0,0,3.345-1.78,3.603-1.508s0.159,5.93,0.159,5.93s3.379-1.708,4.108-1.266
				c0.729,0.443,0.495,9.166,0.191,8.655c-0.304-0.511-1.948-5.616-2.484-5.366c-0.536,0.25-3.229,1.377-3.229,1.377L331.51,27.185z
				"/>
			<path style="fill:#E9B977;" d="M323.201,26.832c0,0,4.348,0.332,4.431,0.754s-3.5,5.861-3.5,5.861s4.337,0.422,4.772,1.302
				c0.435,0.88-5.168,9.214-5.148,8.53c0.02-0.684,1.568-6.659,0.893-6.746c-0.675-0.087-3.987-0.651-3.987-0.651L323.201,26.832z"
				/>
			<path style="fill:#E9B977;" d="M314.441,25.781c0,0,3.27,1.914,3.174,2.275c-0.096,0.361-4.965,3.247-4.965,3.247
				s3.227,1.98,3.233,2.833s-7.543,5.231-7.267,4.705s3.759-4.605,3.265-4.93c-0.494-0.325-2.867-2.026-2.867-2.026L314.441,25.781z
				"/>
		</g>
		<g>
			<path style="fill:#F4DDC7;" d="M199.944,121.754c0,0,33.59,0.651,35.058,0c1.468-0.651,0.551-8.984-4.772-9.201
				s-3.595,1.297-4.329,1.08s0.658-10.765-8.154-10.742c-6.985,0.018-7.891,5.633-8.258,8.236c-0.367,2.603-1.285-5.205-7.526-2.603
				c-6.241,2.603-3.304,7.374-3.304,7.374s-4.719-5.078-7.839,2.73C188.923,123.375,199.944,121.754,199.944,121.754z"/>
			<path style="fill:#6C858A;" d="M215.767,123.757c-0.916,0.191-4.542,4.514-1.384,4.622
				C216.211,128.441,216.105,124.009,215.767,123.757z"/>
			<path style="fill:#6C858A;" d="M208.422,124.676c-0.916,0.191-4.542,4.514-1.384,4.622
				C208.866,129.361,208.76,124.929,208.422,124.676z"/>
			<path style="fill:#6C858A;" d="M202.502,124.676c-0.916,0.191-4.542,4.514-1.384,4.622
				C202.946,129.361,202.84,124.929,202.502,124.676z"/>
			<path style="fill:#6C858A;" d="M203.927,132.365c-0.916,0.191-4.542,4.514-1.384,4.622
				C204.371,137.05,204.265,132.618,203.927,132.365z"/>
			<path style="fill:#6C858A;" d="M211.271,130.054c-0.916,0.191-4.542,4.514-1.384,4.622
				C211.715,134.739,211.609,130.307,211.271,130.054z"/>
			<path style="fill:#6C858A;" d="M209.356,137.367c-0.916,0.191-4.542,4.514-1.384,4.622
				C209.8,142.052,209.694,137.62,209.356,137.367z"/>
			<path style="fill:#6C858A;" d="M217.191,133.354c-0.916,0.191-4.542,4.514-1.384,4.622
				C217.635,138.038,217.529,133.606,217.191,133.354z"/>
			<path style="fill:#6C858A;" d="M220.587,126.068c-0.916,0.191-4.542,4.514-1.384,4.622
				C221.031,130.753,220.925,126.321,220.587,126.068z"/>
			<path style="fill:#6C858A;" d="M223.958,131.478c-0.916,0.191-4.542,4.514-1.384,4.622
				C224.402,136.162,224.296,131.73,223.958,131.478z"/>
			<path style="fill:#6C858A;" d="M226.285,124.676c-0.916,0.191-4.542,4.514-1.384,4.622
				C226.729,129.361,226.623,124.929,226.285,124.676z"/>
		</g>
		<g>
			<path style="fill:#F4DDC7;" d="M411.657,76.437c0,0,33.59,0.651,35.058,0s0.551-8.984-4.772-9.201s-3.595,1.297-4.329,1.08
				c-0.734-0.217,0.658-10.765-8.154-10.742c-6.985,0.018-7.891,5.633-8.258,8.236c-0.367,2.603-1.285-5.205-7.526-2.603
				s-3.304,7.374-3.304,7.374s-4.719-5.078-7.839,2.73C400.636,78.058,411.657,76.437,411.657,76.437z"/>
			<path style="fill:#6C858A;" d="M427.48,78.439c-0.916,0.191-4.542,4.514-1.384,4.622
				C427.924,83.124,427.818,78.692,427.48,78.439z"/>
			<path style="fill:#6C858A;" d="M420.135,79.359c-0.916,0.191-4.542,4.514-1.384,4.622
				C420.579,84.043,420.473,79.611,420.135,79.359z"/>
			<path style="fill:#6C858A;" d="M414.215,79.359c-0.916,0.191-4.542,4.514-1.384,4.622
				C414.659,84.043,414.553,79.611,414.215,79.359z"/>
			<path style="fill:#6C858A;" d="M415.64,87.048c-0.916,0.191-4.542,4.514-1.384,4.622
				C416.084,91.733,415.978,87.301,415.64,87.048z"/>
			<path style="fill:#6C858A;" d="M422.984,84.737c-0.916,0.191-4.542,4.514-1.384,4.622
				C423.428,89.422,423.322,84.989,422.984,84.737z"/>
			<path style="fill:#6C858A;" d="M421.069,92.05c-0.916,0.191-4.542,4.514-1.384,4.622
				C421.513,96.734,421.407,92.302,421.069,92.05z"/>
			<path style="fill:#6C858A;" d="M428.904,88.037c-0.916,0.191-4.542,4.514-1.384,4.622
				C429.348,92.721,429.242,88.289,428.904,88.037z"/>
			<path style="fill:#6C858A;" d="M432.3,80.751c-0.916,0.191-4.542,4.514-1.384,4.622C432.744,85.435,432.638,81.003,432.3,80.751z
				"/>
			<path style="fill:#6C858A;" d="M435.671,86.161c-0.916,0.191-4.542,4.514-1.384,4.622
				C436.115,90.845,436.009,86.413,435.671,86.161z"/>
			<path style="fill:#6C858A;" d="M437.998,79.359c-0.916,0.191-4.542,4.514-1.384,4.622
				C438.442,84.043,438.336,79.611,437.998,79.359z"/>
		</g>
		<g>
			<path style="fill:#F4DDC7;" d="M38.793,24.495c0,0,33.59,0.651,35.058,0c1.468-0.651,0.551-8.984-4.772-9.201
				c-5.323-0.217-3.595,1.297-4.329,1.08c-0.734-0.217,0.658-10.765-8.154-10.742c-6.985,0.018-7.891,5.633-8.258,8.236
				c-0.367,2.603-1.285-5.205-7.526-2.603s-3.304,7.374-3.304,7.374s-4.719-5.078-7.839,2.73
				C27.772,26.116,38.793,24.495,38.793,24.495z"/>
			<path style="fill:#6C858A;" d="M54.616,26.497c-0.916,0.191-4.542,4.514-1.384,4.622C55.06,31.182,54.954,26.75,54.616,26.497z"
				/>
			<path style="fill:#6C858A;" d="M47.271,27.417c-0.916,0.191-4.542,4.514-1.384,4.622C47.715,32.101,47.609,27.669,47.271,27.417z
				"/>
			<path style="fill:#6C858A;" d="M41.351,27.417c-0.916,0.191-4.542,4.514-1.384,4.622C41.795,32.101,41.689,27.669,41.351,27.417z
				"/>
			<path style="fill:#6C858A;" d="M42.776,35.106c-0.916,0.191-4.542,4.514-1.384,4.622C43.22,39.791,43.114,35.359,42.776,35.106z"
				/>
			<path style="fill:#6C858A;" d="M50.121,32.795c-0.916,0.191-4.542,4.514-1.384,4.622C50.565,37.479,50.459,33.047,50.121,32.795z
				"/>
			<path style="fill:#6C858A;" d="M48.205,40.108c-0.916,0.191-4.542,4.514-1.384,4.622C48.649,44.792,48.543,40.36,48.205,40.108z"
				/>
			<path style="fill:#6C858A;" d="M56.041,36.094c-0.916,0.191-4.542,4.514-1.384,4.622C56.485,40.779,56.379,36.347,56.041,36.094z
				"/>
			<path style="fill:#6C858A;" d="M59.436,28.809c-0.916,0.191-4.542,4.514-1.384,4.622C59.88,33.493,59.774,29.061,59.436,28.809z"
				/>
			<path style="fill:#6C858A;" d="M62.808,34.218c-0.916,0.191-4.542,4.514-1.384,4.622C63.252,38.903,63.146,34.471,62.808,34.218z
				"/>
			<path style="fill:#6C858A;" d="M65.135,27.417c-0.916,0.191-4.542,4.514-1.384,4.622C65.579,32.101,65.473,27.669,65.135,27.417z
				"/>
		</g>
		<path style="fill:#F4DDC7;" d="M52.971,50.042c0,0,11.289,10.928,11.835,10.91s6.911-15.271,8.189-15.49
			c1.278-0.219,15.132,12.205,15.132,12.205s2.312-3.896,3.229-4.295s4.465,11.846,4.465,11.846s-14.338,1.234-13.775,0.082
			s3.582-4.361,3.582-4.361s-11.09-8.738-11.291-7.955s-7.575,15.721-8.634,14.903c-1.059-0.818-15.69-8.962-15.69-8.962
			L52.971,50.042z"/>
		<path style="fill:#F4DDC7;" d="M344.501,101.014c0,0-0.79,15.692-1.201,16.052c-0.411,0.36-15.475-6.442-16.558-5.73
			c-1.084,0.713-2.726,19.249-2.726,19.249s-4.349-1.269-5.292-0.935c-0.943,0.334,4.824,11.704,4.824,11.704
			s11.32-8.885,10.122-9.343s-5.595-0.742-5.595-0.742s2.139-13.956,2.82-13.521s16.267,6.317,16.483,4.997s5.348-17.26,5.348-17.26
			L344.501,101.014z"/>
		<path style="fill:#F4DDC7;" d="M444.213,104.472c0,0,6.478-14.314,6.993-14.499c0.515-0.185,12.044,11.659,13.313,11.392
			c1.269-0.267,9.581-16.916,9.581-16.916s3.583,2.773,4.583,2.806s-0.205-12.658-0.205-12.658s-13.786,4.126-12.839,4.991
			c0.948,0.865,4.935,2.738,4.935,2.738S463.475,94.532,463,93.878s-12.827-11.832-13.51-10.683
			c-0.684,1.15-11.294,14.105-11.294,14.105L444.213,104.472z"/>
		<g>
			<path style="fill:#D27878;" d="M244.895,99.515c0,0,4.667-4.417,11.708-3.205c6.186,1.064,6.724,9.045,7.208,10.039
				c1.583,3.25,2.98,4.792,2.448,5.167c-0.533,0.375-2.859,0.481-2.609,0.856s0.808,1.239,0.578,1.561
				c-0.625,0.875-5.146-0.725-6,2.292c-1.333,4.711,2.833,4.375,5.417,2.958c0,0,0.833,2.667,0.333,3.292s-5.208-0.125-5.833,1.625
				s0.333,5.091,0.333,5.591h-13c0,0-0.022-2.509-0.083-6.259C245.334,119.68,237.08,108.265,244.895,99.515z"/>
			<path style="fill:#F4DDC7;" d="M268.362,111.457c0,0,4.442-2.221,4.604-2.167c0.163,0.054,1.029,2.979,0.867,3.033
				c-0.163,0.054-4.713,1.3-4.875,1.3C268.795,113.623,268.362,111.457,268.362,111.457z"/>
			<path style="fill:#F4DDC7;" d="M269.566,115.742c0,0,4.96-0.238,5.087-0.123s-0.262,3.141-0.432,3.125s-4.836-0.714-4.985-0.78
				S269.566,115.742,269.566,115.742z"/>
			<path style="fill:#F4DDC7;" d="M268.566,119.773c0,0,4.359,2.38,4.407,2.544c0.048,0.164-1.859,2.545-1.996,2.443
				s-3.757-3.128-3.85-3.261S268.566,119.773,268.566,119.773z"/>
		</g>
		<g>
			<path style="fill:#D27878;" d="M379.719,10.965c0,0-4.667-4.417-11.708-3.205c-6.186,1.064-6.724,9.045-7.208,10.039
				c-1.583,3.25-2.98,4.792-2.448,5.167c0.533,0.375,2.859,0.481,2.609,0.856s-0.808,1.239-0.578,1.561
				c0.625,0.875,5.146-0.725,6,2.292c1.333,4.711-2.833,4.375-5.417,2.958c0,0-0.833,2.667-0.333,3.292s5.208-0.125,5.833,1.625
				c0.625,1.75-0.333,5.091-0.333,5.591h13c0,0,0.022-2.509,0.083-6.259C379.28,31.13,387.533,19.715,379.719,10.965z"/>
			<path style="fill:#F4DDC7;" d="M356.252,22.907c0,0-4.442-2.221-4.604-2.167c-0.163,0.054-1.029,2.979-0.867,3.033
				c0.162,0.054,4.712,1.3,4.875,1.3S356.252,22.907,356.252,22.907z"/>
			<path style="fill:#F4DDC7;" d="M355.048,27.193c0,0-4.96-0.238-5.087-0.123c-0.127,0.115,0.262,3.141,0.432,3.125
				s4.836-0.714,4.985-0.78C355.526,29.35,355.048,27.193,355.048,27.193z"/>
			<path style="fill:#F4DDC7;" d="M356.048,31.223c0,0-4.359,2.38-4.407,2.544s1.859,2.545,1.996,2.443
				c0.137-0.103,3.757-3.128,3.85-3.261S356.048,31.223,356.048,31.223z"/>
		</g>
		<g>
			<path style="fill:#D16F42;" d="M178.179,40.623c0,0-12.277-0.82-17.943,6.503s-0.03,14.797,3.137,16.893
				c3.167,2.096,7.333,1.263,8,1.596c0.667,0.333-1.667,5.167-0.333,5.167c1.333,0,6-5.156,9.667-5.333
				c3.667-0.177,9,0.844,12.667-5.254C196.39,55.177,195.679,40.88,178.179,40.623z"/>
			<circle style="fill:#261E35;" cx="167.722" cy="53.133" r="2.556"/>
			<circle style="fill:#261E35;" cx="176.279" cy="53.133" r="2.556"/>
			<circle style="fill:#261E35;" cx="184.818" cy="53.133" r="2.556"/>
		</g>
		<g>
			<path style="fill:#E9B977;" d="M64.905,72.71c0,0,12.277-0.82,17.943,6.503c5.667,7.323,0.03,14.797-3.137,16.893
				c-3.167,2.096-7.333,1.263-8,1.596c-0.667,0.333,1.667,5.167,0.333,5.167s-6-5.156-9.667-5.333
				c-3.667-0.177-9,0.844-12.667-5.254C46.694,87.264,47.405,72.968,64.905,72.71z"/>
			<circle style="fill:#261E35;" cx="75.362" cy="85.22" r="2.556"/>
			<circle style="fill:#261E35;" cx="66.804" cy="85.22" r="2.556"/>
			<circle style="fill:#261E35;" cx="58.265" cy="85.22" r="2.556"/>
		</g>
		<g>
			<path style="fill:#D27878;" d="M297.768,40.623c0,0,12.277-0.82,17.943,6.503c5.667,7.323,0.03,14.797-3.137,16.893
				c-3.167,2.096-7.333,1.263-8,1.596c-0.667,0.333,1.667,5.167,0.333,5.167s-6-5.156-9.667-5.333
				c-3.667-0.177-9,0.844-12.667-5.254C279.558,55.177,280.268,40.88,297.768,40.623z"/>
			<circle style="fill:#261E35;" cx="308.226" cy="53.133" r="2.556"/>
			<circle style="fill:#261E35;" cx="299.668" cy="53.133" r="2.556"/>
			<circle style="fill:#261E35;" cx="291.129" cy="53.133" r="2.556"/>
		</g>
		<g>
			<path style="fill:#6C858A;" d="M368.408,115.036c0,0-12.277-0.82-17.943,6.503c-5.667,7.323-0.03,14.797,3.137,16.893
				c3.167,2.096,7.333,1.263,8,1.596c0.667,0.333-1.667,5.167-0.333,5.167s6-5.156,9.667-5.333c3.667-0.177,9,0.844,12.667-5.254
				C386.618,129.59,385.908,115.294,368.408,115.036z"/>
			<path style="fill:#261E35;" d="M360.506,127.546c0,1.412-1.144,2.556-2.556,2.556s-2.556-1.144-2.556-2.556
				s1.144-2.556,2.556-2.556S360.506,126.134,360.506,127.546z"/>
			<circle style="fill:#261E35;" cx="366.508" cy="127.546" r="2.556"/>
			<path style="fill:#261E35;" d="M377.603,127.546c0,1.412-1.144,2.556-2.556,2.556s-2.556-1.144-2.556-2.556
				s1.144-2.556,2.556-2.556S377.603,126.134,377.603,127.546z"/>
		</g>
		<g>
			<path style="fill:#E9B977;" d="M446.687,3.089c0,0-12.277-0.82-17.943,6.503c-5.667,7.323-0.03,14.797,3.137,16.893
				c3.167,2.096,7.333,1.263,8,1.596c0.667,0.333-1.667,5.167-0.333,5.167s6-5.156,9.667-5.333c3.667-0.177,9,0.844,12.667-5.254
				C464.897,17.643,464.187,3.346,446.687,3.089z"/>
			<path style="fill:#261E35;" d="M438.785,15.599c0,1.412-1.144,2.556-2.556,2.556s-2.556-1.144-2.556-2.556
				s1.144-2.556,2.556-2.556S438.785,14.187,438.785,15.599z"/>
			<circle style="fill:#261E35;" cx="444.787" cy="15.599" r="2.556"/>
			<path style="fill:#261E35;" d="M455.882,15.599c0,1.412-1.144,2.556-2.556,2.556s-2.556-1.144-2.556-2.556
				s1.144-2.556,2.556-2.556S455.882,14.187,455.882,15.599z"/>
		</g>
		<path style="fill:#F4DDC7;" d="M163.481,20.981c-0.927-0.371-2.49-0.66-3.952-0.703c-0.253-0.76-0.584-1.481-0.979-2.161
			c1.497-1.566,3.117-3.747,2.841-4.714c-0.477-1.671-2.148-3.581-4.237-2.685c-1.049,0.45-2.609,1.562-3.729,2.731
			c-0.566-0.259-1.156-0.468-1.766-0.631c-0.071-2.122-0.471-4.645-1.32-5.116c-1.519-0.844-4.051-1.013-4.895,1.097
			c-0.409,1.022-0.716,2.816-0.706,4.395c-0.296,0.115-0.585,0.241-0.868,0.38c-1.572-1.58-4.032-3.489-5.075-3.192
			c-1.671,0.477-3.581,2.148-2.686,4.237c0.452,1.054,1.573,2.624,2.748,3.745c-0.332,0.606-0.608,1.246-0.83,1.912
			c-2.194,0.03-5.022,0.423-5.525,1.327c-0.844,1.519-1.013,4.051,1.097,4.895c0.996,0.398,2.724,0.699,4.272,0.705
			c0.131,0.461,0.281,0.914,0.465,1.35c-1.439,1.546-2.912,3.585-2.647,4.51c0.477,1.671,2.148,3.581,4.237,2.685
			c0.804-0.345,1.908-1.08,2.885-1.931c0.612,0.385,1.26,0.713,1.942,0.976c0.083,2.094,0.482,4.522,1.313,4.984
			c1.519,0.844,4.051,1.013,4.895-1.097c0.334-0.835,0.599-2.184,0.68-3.511c1.025-0.271,1.992-0.681,2.882-1.214
			c1.444,1.249,3.117,2.361,3.931,2.129c1.671-0.477,3.581-2.148,2.686-4.237c-0.361-0.842-1.151-2.012-2.053-3.021
			c0.239-0.528,0.444-1.074,0.604-1.642c2.071-0.091,4.432-0.49,4.887-1.309C165.423,24.356,165.591,21.824,163.481,20.981z
			 M148.802,29.898c-3.29,0.014-5.969-2.62-5.982-5.883s2.643-5.918,5.934-5.932c3.29-0.013,5.969,2.62,5.982,5.883
			S152.093,29.885,148.802,29.898z"/>
		<path style="fill:#F4DDC7;" d="M407.945,93.405c-0.927-0.371-2.49-0.66-3.952-0.703c-0.253-0.76-0.584-1.481-0.979-2.161
			c1.497-1.566,3.117-3.747,2.841-4.714c-0.477-1.671-2.148-3.581-4.237-2.686c-1.049,0.45-2.609,1.562-3.729,2.731
			c-0.566-0.259-1.156-0.468-1.766-0.631c-0.071-2.122-0.471-4.645-1.319-5.116c-1.519-0.844-4.051-1.013-4.895,1.097
			c-0.409,1.022-0.716,2.816-0.706,4.395c-0.296,0.115-0.585,0.241-0.868,0.38c-1.572-1.58-4.032-3.489-5.075-3.192
			c-1.671,0.477-3.581,2.148-2.686,4.237c0.452,1.054,1.573,2.624,2.748,3.745c-0.332,0.606-0.608,1.246-0.83,1.912
			c-2.194,0.03-5.022,0.423-5.525,1.327c-0.844,1.519-1.013,4.051,1.097,4.895c0.996,0.398,2.724,0.699,4.272,0.705
			c0.131,0.461,0.281,0.914,0.465,1.35c-1.439,1.546-2.912,3.585-2.647,4.51c0.477,1.671,2.148,3.581,4.237,2.685
			c0.804-0.345,1.908-1.08,2.885-1.931c0.612,0.385,1.26,0.713,1.942,0.976c0.083,2.094,0.482,4.522,1.313,4.984
			c1.519,0.844,4.051,1.013,4.895-1.097c0.334-0.835,0.599-2.184,0.68-3.511c1.025-0.271,1.992-0.681,2.882-1.214
			c1.444,1.249,3.117,2.361,3.931,2.129c1.671-0.477,3.581-2.148,2.686-4.237c-0.361-0.842-1.151-2.012-2.053-3.021
			c0.239-0.528,0.444-1.074,0.604-1.642c2.071-0.091,4.432-0.49,4.887-1.309C409.886,96.781,410.055,94.249,407.945,93.405z
			 M393.266,102.323c-3.29,0.014-5.969-2.62-5.982-5.883c-0.013-3.263,2.643-5.918,5.934-5.932c3.29-0.013,5.969,2.62,5.982,5.883
			C399.213,99.653,396.556,102.309,393.266,102.323z"/>
		<g>
			<path style="fill:#F4DDC7;" d="M14.21,27.899c0,0,9.69-4.408,9.814,5.241c0.13,10.053-8.705,5.158-10.044,6.088
				c-1.339,0.93-1.19,5-2.411,4.867S8.2,42.165,8.2,42.165s1.662-4.418,3.648-5.553c1.986-1.135,7.555,1.858,9.017-2.994
				c1.738-5.769-3.212-3.348-3.787-2.074C16.505,32.817,10.837,30.97,14.21,27.899z"/>
			<circle style="fill:#F4DDC7;" cx="8.439" cy="47.266" r="2.438"/>
		</g>
		<g>
			<path style="fill:#F4DDC7;" d="M173.6,123.419c0,0,4.707-9.548,10.914-2.159c6.467,7.698-3.47,9.505-3.917,11.072
				c-0.447,1.567,2.246,4.623,1.216,5.294c-1.03,0.671-3.83,0.639-3.83,0.639s-1.512-4.472-0.693-6.608
				c0.818-2.136,7.024-3.347,5.082-8.028c-2.308-5.565-4.607-0.557-4.244,0.793C178.491,125.772,172.935,127.932,173.6,123.419z"/>
			<circle style="fill:#F4DDC7;" cx="181.399" cy="142.062" r="2.438"/>
		</g>
		<g>
			<path style="fill:#F4DDC7;" d="M357.335,82.572c0,0,7.641-7.412,11.005,1.633c3.505,9.423-6.461,7.787-7.409,9.113
				s0.563,5.109-0.632,5.395c-1.195,0.286-3.822-0.684-3.822-0.684s0.078-4.72,1.567-6.457c1.489-1.737,7.74-0.793,7.483-5.854
				c-0.305-6.017-4.152-2.072-4.264-0.679C361.151,86.431,355.192,86.599,357.335,82.572z"/>
			<circle style="fill:#F4DDC7;" cx="358.419" cy="102.751" r="2.438"/>
		</g>
		<g>
			<path style="fill:#F4DDC7;" d="M276.353,12.241c0,0,2.033-10.449,9.964-4.951c8.262,5.728-0.85,10.083-0.87,11.712
				c-0.02,1.63,3.382,3.87,2.565,4.788c-0.817,0.918-3.527,1.623-3.527,1.623s-2.634-3.917-2.405-6.193
				c0.228-2.276,5.897-5.075,2.794-9.081c-3.69-4.763-4.591,0.673-3.887,1.88S276.897,16.771,276.353,12.241z"/>
			<circle style="fill:#F4DDC7;" cx="288.777" cy="28.179" r="2.438"/>
		</g>
		<g>
			<path style="fill:#D27878;" d="M247.031,137.18c-19.886-2.982-27.127,21.158-24.111,26.65c0,0,1.467,0.025,3.415,0.041
				c0.447-6.866,3.622-22.699,17.015-22.699c15.17,0,17.053,18.489,17.277,22.1c1.306-0.106,2.461-0.213,3.219-0.308
				C266.68,162.609,263.022,139.577,247.031,137.18z"/>
			<path style="fill:#6C858A;" d="M242.431,146.585c-9.238,0.707-11.301,12.293-11.761,17.295c2.424-0.013,4.619-0.066,5.188-0.209
				c1.417-0.354-0.182-11.516,6.905-12.933c7.087-1.417,7.087,13.071,8.504,13.091c0.572,0.008,2.275-0.075,4.283-0.198
				C254.666,158.189,251.641,145.88,242.431,146.585z"/>
			<path style="fill:#E9B977;" d="M243.35,141.172c-13.393,0-16.568,15.833-17.015,22.699c1.325,0.011,2.87,0.018,4.335,0.01
				c0.46-5.003,2.522-16.588,11.761-17.295c9.21-0.705,12.234,11.603,13.119,17.046c1.637-0.101,3.47-0.229,5.077-0.36
				C260.404,159.66,258.52,141.172,243.35,141.172z"/>
		</g>
		<g>
			<path style="fill:#D27878;" d="M371.582,49.025c-19.886-2.982-27.127,21.158-24.111,26.65c0,0,1.467,0.025,3.415,0.041
				c0.447-6.866,3.622-22.699,17.015-22.699c15.17,0,17.053,18.489,17.277,22.1c1.306-0.106,2.461-0.213,3.219-0.308
				C391.231,74.455,387.573,51.423,371.582,49.025z"/>
			<path style="fill:#6C858A;" d="M366.982,58.431c-9.238,0.707-11.301,12.293-11.761,17.295c2.424-0.013,4.619-0.066,5.188-0.209
				c1.417-0.354-0.182-11.516,6.905-12.933c7.087-1.417,7.087,13.071,8.504,13.091c0.572,0.008,2.275-0.075,4.283-0.198
				C379.217,70.034,376.193,57.726,366.982,58.431z"/>
			<path style="fill:#E9B977;" d="M367.901,53.018c-13.393,0-16.568,15.833-17.015,22.699c1.325,0.011,2.87,0.018,4.335,0.01
				c0.46-5.003,2.522-16.588,11.761-17.295c9.21-0.705,12.234,11.603,13.119,17.046c1.637-0.101,3.47-0.229,5.077-0.36
				C384.955,71.506,383.071,53.018,367.901,53.018z"/>
		</g>
		<g>
			<path style="fill:#D27878;" d="M139.165,43.246c-18.721-7.34-31.162,14.578-29.446,20.604c0,0,1.424,0.351,3.32,0.801
				c1.966-6.594,8.592-21.32,21.647-18.334c14.788,3.382,12.502,21.825,11.915,25.395c1.297,0.188,2.447,0.341,3.206,0.417
				C152.651,72.416,154.219,49.148,139.165,43.246z"/>
			<path style="fill:#6C858A;" d="M132.584,51.389c-9.164-1.37-13.757,9.464-15.32,14.238c2.366,0.528,4.518,0.965,5.104,0.953
				c1.461-0.029,2.39-11.267,9.614-11.068c7.224,0.198,3.994,14.322,5.372,14.657c0.556,0.135,2.235,0.435,4.22,0.762
				C141.924,65.428,141.72,52.755,132.584,51.389z"/>
			<path style="fill:#E9B977;" d="M134.687,46.317c-13.055-2.986-19.681,11.741-21.647,18.334c1.289,0.306,2.794,0.657,4.224,0.976
				c1.564-4.774,6.157-15.608,15.32-14.238c9.136,1.366,9.34,14.039,8.988,19.542c1.618,0.267,3.433,0.55,5.029,0.781
				C147.19,68.142,149.475,49.699,134.687,46.317z"/>
		</g>
		<path style="fill:#D16F42;" d="M297.942,88.904c-0.643,0.187-1.114,0.121-1.479-0.044c-0.096-3.686-0.252-6.74-0.508-6.842
			c-0.26-0.104-3.306-0.126-6.899-0.114c-0.142-0.354-0.16-0.815,0.146-1.389c0.827-1.55,1.757-5.58-2.583-5.477
			c-4.34,0.103-3.41,3.1-2.78,5.27c0.213,0.735,0.104,1.251-0.119,1.63c-3.789,0.034-6.99,0.08-6.99,0.08s-0.024,3.539,0.01,7.635
			c-0.375,0.313-0.965,0.551-1.799,0.106c-1.55-0.827-5.58-1.757-5.477,2.583c0.103,4.34,3.1,3.41,5.27,2.78
			c1.106-0.321,1.743,0.064,2.105,0.518c0.094,3.374,0.259,6.106,0.548,6.321c0.294,0.219,3.041,0.274,6.37,0.258
			c0.134,0.352,0.148,0.803-0.152,1.366c-0.827,1.55-1.757,5.58,2.583,5.477c4.34-0.103,3.41-3.1,2.78-5.27
			c-0.215-0.742-0.103-1.262,0.125-1.642c4.016-0.077,7.518-0.189,7.518-0.189s0-3.689-0.054-7.893
			c0.322-0.073,0.707-0.051,1.176,0.199c1.55,0.827,5.58,1.757,5.477-2.583C303.109,87.344,300.112,88.274,297.942,88.904z"/>
		<path style="fill:#E9B977;" d="M176.065,82.45c-0.323,0.587-0.702,0.873-1.077,1.015c-2.674-2.539-4.944-4.588-5.198-4.479
			c-0.257,0.11-2.427,2.249-4.959,4.797c-0.351-0.15-0.689-0.463-0.879-1.085c-0.511-1.681-2.704-5.188-5.699-2.046
			c-2.996,3.142-0.219,4.603,1.761,5.692c0.67,0.369,0.958,0.811,1.068,1.237c-2.655,2.704-4.887,4.999-4.887,4.999
			s2.486,2.519,5.406,5.392c-0.044,0.486-0.293,1.072-1.197,1.347c-1.681,0.511-5.188,2.704-2.046,5.699
			c3.142,2.996,4.603,0.219,5.692-1.761c0.555-1.009,1.277-1.187,1.855-1.122c2.452,2.32,4.501,4.135,4.858,4.082
			c0.363-0.054,2.345-1.957,4.687-4.322c0.343,0.154,0.673,0.463,0.858,1.073c0.511,1.681,2.704,5.188,5.699,2.046
			c2.996-3.142,0.219-4.603-1.761-5.692c-0.677-0.372-0.965-0.82-1.072-1.249c2.785-2.895,5.183-5.45,5.183-5.45
			s-2.608-2.608-5.619-5.543c0.176-0.279,0.464-0.536,0.972-0.691c1.681-0.511,5.188-2.704,2.046-5.699
			C178.616,77.694,177.154,80.47,176.065,82.45z"/>
		<path style="fill:#6C858A;" d="M313.897,75.177c0.587,0.323,0.873,0.702,1.015,1.077c-2.539,2.674-4.588,4.944-4.479,5.198
			c0.11,0.257,2.249,2.427,4.797,4.959c-0.15,0.351-0.463,0.689-1.085,0.879c-1.681,0.511-5.188,2.704-2.046,5.699
			c3.142,2.996,4.603,0.219,5.692-1.761c0.369-0.67,0.811-0.958,1.237-1.068c2.704,2.655,4.999,4.887,4.999,4.887
			s2.519-2.486,5.392-5.406c0.486,0.043,1.072,0.293,1.347,1.197c0.511,1.681,2.704,5.188,5.699,2.046
			c2.996-3.142,0.219-4.603-1.761-5.692c-1.009-0.555-1.187-1.277-1.122-1.855c2.32-2.452,4.135-4.501,4.082-4.858
			c-0.054-0.363-1.957-2.345-4.322-4.687c0.154-0.343,0.463-0.673,1.073-0.858c1.681-0.511,5.188-2.704,2.046-5.699
			c-3.142-2.996-4.603-0.219-5.692,1.761c-0.372,0.677-0.82,0.965-1.249,1.072c-2.895-2.785-5.45-5.183-5.45-5.183
			s-2.608,2.608-5.543,5.619c-0.279-0.176-0.536-0.464-0.691-0.972c-0.511-1.681-2.704-5.188-5.699-2.046
			C309.14,72.627,311.917,74.089,313.897,75.177z"/>
		<g>
			<path style="fill:#F4DDC7;" d="M199.011,158.014c0,0,12.25-10.199,13.25-10.878c1-0.679,3.967,3.5,3.967,3.5
				s-14.21,11.485-14.46,11.167C201.518,161.485,199.011,158.014,199.011,158.014z"/>
			<path style="fill:#F4DDC7;" d="M204.149,146.513c0,0,9.848,11.319,10.582,12.28c0.734,0.961-3.466,4.233-3.466,4.233
				s-9.648-11.075-10.86-12.666C200.16,150.038,204.149,146.513,204.149,146.513z"/>
		</g>
		<g>
			<path style="fill:#F4DDC7;" d="M475.603,18.843c0,0,12.25-10.199,13.25-10.878s3.967,3.5,3.967,3.5s-14.21,11.485-14.46,11.167
				C478.11,22.314,475.603,18.843,475.603,18.843z"/>
			<path style="fill:#F4DDC7;" d="M480.741,7.342c0,0,9.848,11.319,10.582,12.28c0.734,0.961-3.466,4.233-3.466,4.233
				s-9.648-11.075-10.86-12.666C476.752,10.867,480.741,7.342,480.741,7.342z"/>
		</g>
		<g>
			<path style="fill:#F4DDC7;" d="M327.077,54.749c0,0,12.25-10.199,13.25-10.878c1-0.679,3.967,3.5,3.967,3.5
				s-14.21,11.485-14.46,11.167C329.584,58.22,327.077,54.749,327.077,54.749z"/>
			<path style="fill:#F4DDC7;" d="M332.215,43.248c0,0,9.848,11.319,10.582,12.28c0.734,0.961-3.466,4.233-3.466,4.233
				s-9.648-11.075-10.86-12.666C328.226,46.773,332.215,43.248,332.215,43.248z"/>
		</g>
		<g>
			<path style="fill:#F4DDC7;" d="M11.157,16.706c0,0,12.25-10.199,13.25-10.878s3.967,3.5,3.967,3.5s-14.21,11.485-14.46,11.167
				S11.157,16.706,11.157,16.706z"/>
			<path style="fill:#F4DDC7;" d="M16.296,5.205c0,0,9.848,11.319,10.582,12.28c0.734,0.961-3.466,4.233-3.466,4.233
				s-9.648-11.075-10.86-12.666C12.306,8.73,16.296,5.205,16.296,5.205z"/>
		</g>
		<path style="fill:#E9B977;" d="M172.483,9.202c0,0,8.048-0.043,8.528,1.471c0.48,1.515-3.935,9.314-3.935,9.314
			s7.357,1.046,7.107,2.482c-0.25,1.436-7.064,14.002-7.978,13.598s-0.551-11.788-0.551-11.788l-5.797-0.167L172.483,9.202z"/>
		<path style="fill:#E9B977;" d="M310.566,97.581c0,0,7.639,2.534,7.609,4.122c-0.03,1.588-6.708,7.565-6.708,7.565
			s6.635,3.345,5.939,4.625c-0.696,1.28-11.173,11.006-11.909,10.33c-0.736-0.676,3.25-11.345,3.25-11.345l-5.439-2.013
			L310.566,97.581z"/>
		<path style="fill:#6C858A;" d="M241.125,171.661c0,0-5.192,15.9,1.621,16.042C253.25,187.922,244.478,165.505,241.125,171.661z"/>
		<path style="fill:#6C858A;" d="M33.643,88.355c0,0,1.305,16.675,7.651,14.193C51.078,98.721,34.378,81.384,33.643,88.355z"/>
		<path style="fill:#6C858A;" d="M141.284,81.166c0,0-1.944,16.612,4.762,15.404C156.386,94.707,143.353,74.469,141.284,81.166z"/>
		<path style="fill:#6C858A;" d="M254.527,177.486c0,0-8.419,14.453-1.788,16.024C262.962,195.933,259.099,172.173,254.527,177.486z
			"/>
		<path style="fill:#6C858A;" d="M236.327,84.949c0,0-8.419,14.453-1.788,16.024C244.762,103.396,240.899,79.636,236.327,84.949z"/>
		<path style="fill:#6C858A;" d="M438.022,38.212c0,0-8.419,14.453-1.788,16.024C446.457,56.659,442.594,32.899,438.022,38.212z"/>
	</g>
</g>
</svg>
