<?xml version="1.0" encoding="utf-8"?>
<!-- Generator: Adobe Illustrator 27.5.0, SVG Export Plug-In . SVG Version: 6.00 Build 0)  -->
<svg version="1.1" id="Layer_1" xmlns="http://www.w3.org/2000/svg" xmlns:xlink="http://www.w3.org/1999/xlink" x="0px" y="0px"
	 viewBox="0 0 600 600" style="enable-background:new 0 0 600 600;" xml:space="preserve">
<rect style="fill:#FFFFFF;" width="600" height="600"/>
<path style="opacity:0.5;fill:#DBF1FF;" d="M567.123,548.804H35.406c0,0-13.754-69.556,10.361-107.991
	c29.234-46.592,61.19-28.092,74.044-46.841c17.033-24.852,12.291-123.81,120.234-117.342c63.127,3.784,87.532,82.224,107.882,82.224
	c25.886,0,61.814-33.764,126.925-13.146C587.093,381.246,567.123,548.804,567.123,548.804z"/>
<g>
	<g style="opacity:0.6;">
		<path style="fill:#98D4FC;" d="M76.442,361.026c0-2.27,1.843-4.113,4.109-4.113c2.265,0,4.109,1.844,4.109,4.113
			c0,2.264-1.845,4.109-4.109,4.109C78.285,365.136,76.442,363.29,76.442,361.026z M77.376,361.026c0,1.75,1.426,3.176,3.175,3.176
			c1.751,0,3.175-1.426,3.175-3.176c0-1.754-1.424-3.174-3.175-3.174C78.802,357.853,77.376,359.272,77.376,361.026z"/>
	</g>
	<g style="opacity:0.6;">
		<path style="fill:#98D4FC;" d="M512.566,333.324c0-2.814,2.287-5.102,5.1-5.102c2.814,0,5.103,2.287,5.103,5.102
			c0,2.815-2.289,5.105-5.103,5.105C514.853,338.43,512.566,336.139,512.566,333.324z M513.725,333.324
			c0,2.175,1.766,3.942,3.941,3.942c2.176,0,3.943-1.768,3.943-3.942c0-2.172-1.768-3.943-3.943-3.943
			C515.49,329.381,513.725,331.152,513.725,333.324z"/>
	</g>
	<g style="opacity:0.6;">
		<path style="fill:#98D4FC;" d="M479.329,460.45c0-3.529,2.869-6.4,6.397-6.4c3.528,0,6.397,2.871,6.397,6.4
			c0,3.525-2.869,6.397-6.397,6.397C482.198,466.847,479.329,463.976,479.329,460.45z M480.784,460.45
			c0,2.727,2.217,4.941,4.941,4.941c2.725,0,4.941-2.215,4.941-4.941c0-2.725-2.217-4.943-4.941-4.943
			C483,455.507,480.784,457.726,480.784,460.45z"/>
	</g>
	<g style="opacity:0.6;">
		<path style="fill:#98D4FC;" d="M119.492,330.308c0-2.811,2.287-5.099,5.096-5.099c2.811,0,5.096,2.287,5.096,5.099
			c0,2.81-2.285,5.095-5.096,5.095C121.779,335.402,119.492,333.117,119.492,330.308z M120.652,330.308
			c0,2.17,1.766,3.938,3.936,3.938c2.17,0,3.936-1.768,3.936-3.938c0-2.171-1.766-3.935-3.936-3.935
			C122.418,326.372,120.652,328.137,120.652,330.308z"/>
	</g>
	<g style="opacity:0.7;">
		<path style="fill:#98D4FC;" d="M485.726,388.085c0-2.096,1.704-3.802,3.802-3.802c2.096,0,3.801,1.706,3.801,3.802
			c0,2.095-1.705,3.802-3.801,3.802C487.43,391.887,485.726,390.18,485.726,388.085z M486.589,388.085
			c0,1.62,1.318,2.937,2.938,2.937c1.619,0,2.937-1.316,2.937-2.937c0-1.62-1.317-2.935-2.937-2.935
			C487.907,385.15,486.589,386.465,486.589,388.085z"/>
	</g>
	<g style="opacity:0.7;">
		<path style="fill:#98D4FC;" d="M117.369,258.478c0-1.99,1.619-3.611,3.609-3.611c1.99,0,3.609,1.621,3.609,3.611
			c0,1.99-1.619,3.607-3.609,3.607C118.988,262.085,117.369,260.468,117.369,258.478z M118.189,258.478
			c0,1.537,1.25,2.787,2.789,2.787c1.537,0,2.789-1.25,2.789-2.787c0-1.539-1.252-2.789-2.789-2.789
			C119.439,255.689,118.189,256.939,118.189,258.478z"/>
	</g>
	<g style="opacity:0.7;">
		<path style="fill:#98D4FC;" d="M464.394,507.065c0-1.992,1.621-3.611,3.611-3.611c1.988,0,3.607,1.619,3.607,3.611
			c0,1.988-1.619,3.609-3.607,3.609C466.016,510.674,464.394,509.053,464.394,507.065z M465.217,507.065
			c0,1.537,1.25,2.789,2.789,2.789c1.537,0,2.787-1.252,2.787-2.789c0-1.538-1.25-2.789-2.787-2.789
			C466.467,504.275,465.217,505.526,465.217,507.065z"/>
	</g>
	<g style="opacity:0.7;">
		<path style="fill:#98D4FC;" d="M464.394,290.074c0-1.992,1.619-3.613,3.609-3.613c1.988,0,3.609,1.621,3.609,3.613
			c0,1.99-1.621,3.607-3.609,3.607C466.014,293.682,464.394,292.065,464.394,290.074z M465.215,290.074
			c0,1.537,1.252,2.787,2.789,2.787c1.537,0,2.787-1.25,2.787-2.787c0-1.539-1.25-2.791-2.787-2.791
			C466.467,287.283,465.215,288.535,465.215,290.074z"/>
	</g>
	<g style="opacity:0.6;">
		<path style="fill:#98D4FC;" d="M69.92,446.009c0-2.93,2.385-5.313,5.314-5.313c2.932,0,5.316,2.383,5.316,5.313
			c0,2.93-2.385,5.316-5.316,5.316C72.305,451.325,69.92,448.939,69.92,446.009z M71.127,446.009c0,2.268,1.844,4.107,4.107,4.107
			c2.264,0,4.105-1.84,4.105-4.107c0-2.262-1.842-4.105-4.105-4.105C72.971,441.903,71.127,443.747,71.127,446.009z"/>
	</g>
	<g style="opacity:0.6;">
		<path style="fill:#98D4FC;" d="M100.935,473.176c0-1.879,1.527-3.404,3.404-3.404c1.879,0,3.406,1.525,3.406,3.404
			c0,1.877-1.527,3.408-3.406,3.408C102.463,476.584,100.935,475.053,100.935,473.176z M101.711,473.176
			c0,1.451,1.178,2.635,2.629,2.635c1.453,0,2.633-1.183,2.633-2.635c0-1.449-1.18-2.629-2.633-2.629
			C102.889,470.547,101.711,471.727,101.711,473.176z"/>
	</g>
	<g style="opacity:0.6;">
		<path style="fill:#98D4FC;" d="M530.949,430.933c0-2.238,1.821-4.059,4.061-4.059s4.063,1.82,4.063,4.059
			c0,2.24-1.823,4.063-4.063,4.063S530.949,433.173,530.949,430.933z M531.873,430.933c0,1.732,1.406,3.143,3.137,3.143
			c1.73,0,3.138-1.41,3.138-3.143c0-1.73-1.407-3.135-3.138-3.135C533.279,427.798,531.873,429.202,531.873,430.933z"/>
	</g>
</g>
<path style="fill:#3B7C9C;" d="M460.061,347.713c-6.126-11.477-13.565-23.96-13.565-23.96c-9.411-18.117-4.58-44.662-3.673-54.035
	c4.177-43.198-3.414-66.174-23.228-87.101c-17.607-18.624-39.376-29.393-60.03-35.344c-18.156-5.989-36.392-7.763-52.736-7.691
	c-51.035,0.223-87.799,16.424-115.311,46.992c-44.199,49.11-37.182,104.085-37.166,104.101c0.348,8.445,2.368,20.677,6.523,33.904
	c5.319,26.82,14.438,59.075,20.28,75.794c2.881,8.252,5.176,16.668,6.99,25.091c12.784,59.342,1.537,118.684,1.537,118.684
	c32.026,9.832,65.337,11.564,93.593,10.156c41.192-2.055,71.629-10.785,71.629-10.785s-3.978-26.38-3.81-42.705
	c0.219-20.769,18.555-37.327,35.656-33.48c15.85,3.564,33.668-0.362,39.017-6.892c4.952-6.045,2.536-15.86,1.273-20.954
	c-2.174-8.755,1.537-12.958,3.996-16.363c6.641-9.28,2.765-13.575,2.765-13.575c-2.071-2.651-0.688-4.028-0.688-4.028
	c7.323-2.415,7.842-6.439,7.842-6.439l-0.185-13.423c-1.199-9.225,2.979-9.755,2.979-9.755c15.052-1.907,24.326-3.91,24.254-10.237
	C467.975,363.223,464.336,355.709,460.061,347.713z"/>
<g>
	<g>
		<path style="fill:#D6EEFE;" d="M424.558,269.518c3.589-37.126-5.861-61.359-22.89-79.345
			c-28.14-29.766-63.589-36.153-92.354-36.026c-44.716,0.195-76.929,14.391-101.036,41.174
			c-38.727,43.03-32.579,91.199-32.565,91.213c0.925,22.466,15.351,75.522,54.662,90.681
			c62.719,24.185,131.235,6.104,167.312-35.341C420.981,315.114,423.778,277.573,424.558,269.518z"/>
	</g>
</g>
<g style="opacity:0.7;">
	<g>
		<path style="fill:#4693B9;" d="M203.936,358.206c7.175,8.176,15.916,14.95,26.44,19.009
			c54.879,21.161,114.196,9.965,152.338-20.931c2.559-2.071-42.242-11.409-84.993-10.947
			C249.417,345.858,202.375,356.427,203.936,358.206z"/>
	</g>
</g>
<path style="fill:#DBF1FF;" d="M155.727,166.943c-0.073-1.849-0.478-3.716-1.256-5.398c-0.609-1.324-1.43-2.551-2.661-3.371
	c-4.202-2.798-11.031-0.935-13.041,3.74c-0.22,0.459-0.865,0.057-0.671-0.394c1.079-2.236,1.232-4.864,0.759-7.278
	c-0.428-2.165-1.362-4.283-2.87-5.914c-1.739-1.877-4.125-2.8-6.681-2.64c-2.854,0.178-5.602,1.583-7.732,3.438
	c-0.978,0.849-1.925,1.761-2.746,2.766c-0.566,0.69-1.097,1.469-1.429,2.311c-0.1,0.491-0.213,0.977-0.353,1.459
	c-0.12,0.406-0.808,0.344-0.765-0.104c0.003-0.037,0.012-0.071,0.015-0.104h-0.001c0.001-0.004,0.001-0.011,0.001-0.014
	c0.057-0.483,0.175-0.945,0.342-1.387c0.816-4.096,0.224-8.51-1.264-12.384c-1.44-3.748-4.01-7.439-7.837-9.018
	c-4.158-1.716-8.972-0.513-12.15,2.567c-3.425,3.319-5.181,8.127-6.126,12.704c-0.549,2.647-0.862,5.353-0.615,8.054
	c0.296,3.329,1.228,6.568,1.383,9.915c0.017,0.294-0.339,0.488-0.584,0.337c-1.212-0.751-2.455-1.526-3.836-1.926
	c-1.427-0.417-2.887-0.299-4.222,0.366c-2.16,1.078-4.27,3.855-3.791,6.387c0.08,0.426-0.473,0.689-0.713,0.299
	c-1.113-1.809-2.342-3.571-3.856-5.072c-1.315-1.305-2.921-2.475-4.792-2.776c-2.004-0.318-3.994,0.548-5.435,1.917
	c-2.867,2.727-3.927,7.374-2.237,11.003h92.451C154.85,173.626,155.858,170.3,155.727,166.943z"/>
<path style="fill:#DBF1FF;" d="M137.968,109.919c-1.372-4.103-0.813-9.75,3.438-11.931c3.441-1.759,7.67-0.453,9.395,3.01
	c0.295,0.591,1.155,0.077,0.881-0.512c-1.551-3.316-2.895-8.525,1.309-10.528c3.337-1.591,7.512,0.869,9.558,3.726
	c0.189,0.302,0.37,0.618,0.578,0.912c0.372,0.533,1.198,0.07,0.881-0.516c-3.516-5.062-5.313-11.494-5.42-17.622
	c-0.095-5.408,1.281-11.209,5.526-14.885c4.454-3.856,11.016-4.496,16.313-2.146c5.601,2.484,9.813,7.511,12.669,12.805
	c2.785,5.165,4.666,11.196,4.321,17.112c-0.033,0.571,0.898,0.698,1,0.134c0.536-2.904,1.273-5.83,2.629-8.472
	c1.167-2.269,2.815-4.315,5.11-5.509c2.28-1.189,4.94-1.376,7.433-0.859c4.433,0.916,9.388,3.998,10.626,8.594
	c0.085,0.537,0.176,1.068,0.29,1.59c0.124,0.559,1.053,0.44,1.003-0.131c-0.003-0.049-0.017-0.091-0.017-0.135l0,0
	c-0.012-0.033-0.01-0.066-0.017-0.097c-0.046-0.401-0.113-0.793-0.21-1.174c-0.872-5.215-0.063-10.728,2.267-15.467
	c2.114-4.305,5.578-8.124,10.135-9.859c5.126-1.954,10.909-0.996,15.545,1.789c4.945,2.972,8.391,8.017,9.362,13.704
	c1.236,7.195-2.362,13.633-4.762,20.161c-0.15,0.406,0.392,0.829,0.747,0.579c3.134-2.235,6.925-3.677,10.506-1.474
	c2.931,1.802,4.381,5.403,2.839,8.598c-0.28,0.586,0.601,1.104,0.881,0.515c1.161-2.423,2.969-4.588,5.565-5.502
	c4.005-1.409,8.486,0.347,11.336,3.285c3.133,3.246,4.103,7.872,2.077,11.95l-153.204-0.173
	C138.336,110.908,138.131,110.423,137.968,109.919z"/>
<path style="fill:#DBF1FF;" d="M412.854,148.322c-1.524-2.412-2.214-5.219-1.873-8.066c0.296-2.527,1.645-5.13,4.17-6.007
	c3.725-1.301,9.559,0.393,10.631,4.614c0.163,0.491,0.898,0.289,0.776-0.215c-0.68-2.079-0.97-4.395-0.576-6.562
	c0.336-1.872,1.26-3.651,3.041-4.47c1.615-0.746,3.518-0.616,5.19-0.162c2.797,0.761,6.05,2.717,7.328,5.533
	c0.134,0.457,0.283,0.909,0.445,1.351c0.18,0.48,0.871,0.295,0.767-0.213c-0.09-0.467-0.245-0.907-0.432-1.333
	c-0.729-2.502-0.968-5.156-0.703-7.75c0.277-2.69,1.148-5.431,2.853-7.556c1.917-2.386,4.757-3.736,7.786-3.91
	c3.529-0.197,7.113,0.995,10.011,3c1.336,0.928,2.64,1.994,3.731,3.21c0.607,0.683,1.189,1.457,1.581,2.299
	c0.11,0.812,0.286,1.607,0.542,2.383c0.15,0.43,0.776,0.354,0.789-0.107c0.027-0.874-0.192-1.705-0.549-2.482
	c-0.466-3.738,0.621-7.754,2.215-11.03c1.762-3.596,4.627-7.221,8.618-8.348c4.081-1.15,8.184,0.981,10.903,3.977
	c3.079,3.404,4.855,7.917,5.861,12.353c0.969,4.282,1.335,8.899,0.485,13.236c-0.099,0.503,0.63,0.718,0.772,0.213
	c0.911-3.297,2.234-6.566,4.261-9.338c1.686-2.309,4.067-4.319,6.996-4.614c3.21-0.326,6.541,1.244,8.684,3.601
	c4.262,4.675,3.624,12.055,0.84,17.306c-0.251,0.473,0.38,0.811,0.69,0.408c1.182-1.56,2.821-2.76,4.777-3.073
	c2.943-0.48,6.01,1.132,7.643,3.577c0.802,1.196,1.28,2.599,1.221,4.051c-0.065,1.692-0.879,3.204-2.015,4.413
	c-0.085,0.089-0.116,0.191-0.11,0.286H413.24C413.112,148.706,412.976,148.52,412.854,148.322z"/>
<path style="fill:#C5EAE2;" d="M575,550.243c0,14.257-123.125,25.806-275.001,25.806C148.122,576.049,25,564.5,25,550.243
	c0-14.25,123.122-25.812,274.999-25.812C451.875,524.432,575,535.993,575,550.243z"/>
<g>
	<path style="fill:#A2DDD0;" d="M513.71,548.648c0,0-19.326-28.641-7.01-39.611c7.548-6.732,11.242,14.813,11.242,14.813
		s4.283-41.105,18.203-32.433c6.805,4.24-7.494,42.149-7.494,42.149s10.169-19.713,18.201-14.299
		c12.967,8.737-17.929,29.089-17.929,29.089L513.71,548.648z"/>
	<path style="fill:#A2DDD0;" d="M558.075,519.908c0.21,0,0.403-0.139,0.459-0.357c0.046-0.176,1.106-4.382-1.273-7.949
		c-1.626-2.447-4.443-3.965-8.368-4.518c-0.267-0.031-0.5,0.144-0.541,0.403c-0.037,0.262,0.148,0.502,0.407,0.538
		c3.647,0.513,6.239,1.89,7.709,4.099c2.148,3.224,1.157,7.144,1.15,7.188c-0.067,0.251,0.084,0.511,0.334,0.58
		C557.995,519.9,558.034,519.908,558.075,519.908z"/>
	<path style="fill:#A2DDD0;" d="M499.549,507.057c0.167-0.04,0.314-0.159,0.364-0.33c0.757-2.577,2.056-4.228,3.869-4.913
		c3.561-1.365,7.987,1.363,8.034,1.392c0.22,0.139,0.514,0.069,0.654-0.151c0.139-0.226,0.069-0.517-0.153-0.658
		c-0.199-0.122-4.877-2.989-8.873-1.474c-2.107,0.806-3.6,2.664-4.444,5.533c-0.07,0.249,0.073,0.518,0.323,0.59
		C499.4,507.067,499.477,507.067,499.549,507.057z"/>
	<path style="fill:#E0FBF0;" d="M521.068,548.506l9.992-46.558c0.052-0.251-0.113-0.506-0.371-0.565
		c-0.257-0.052-0.506,0.113-0.562,0.365l-10.037,46.777L521.068,548.506z"/>
	<path style="fill:#E0FBF0;" d="M526.386,548.408l18.395-22.356c0.167-0.202,0.139-0.502-0.063-0.669
		c-0.208-0.168-0.504-0.137-0.672,0.064l-18.915,22.983L526.386,548.408z"/>
	<path style="fill:#E0FBF0;" d="M517.668,548.573l-7.563-34.108c-0.054-0.26-0.304-0.422-0.566-0.362
		c-0.258,0.055-0.418,0.313-0.361,0.569l7.519,33.92L517.668,548.573z"/>
</g>
<g>
	<path style="fill:#A2DDD0;" d="M162.956,461.558c7.989,2.197,16.484,2.91,24.996,2.093c6.536-0.629,12.553-0.964,15.474-8.541
		c5.854-15.198,3.555-32.579-3.257-45.283c-1.289-2.4-2.787-4.604-4.375-6.701c-3.308-5.428-7.503-10.172-12.544-13.836
		c-9.36-6.822-20.677-9.926-32.233-11.142c-5.713-0.603-11.5-0.736-17.3-0.716c-7.057,0.033-15.07,1.232-20.392-3.976
		c-1.185-1.164-2.955,0.174-3.086,1.809c-0.817,10.451-1.619,21.037,0.003,31.147c1.556,9.734,5.694,18.125,11.283,25.391
		C132.202,445.669,146.31,456.978,162.956,461.558z"/>
	<path style="fill:#E0FBF0;" d="M159.24,458.744c4.644-3.594,10.317-4.483,15.955-3.137c3.191,0.765,6.141,1.37,9.439,1.009
		c3.156-0.339,6.216-1.28,9.236-2.228c-3.369-5.204-6.881-10.322-10.879-15.072c-0.101-0.123-0.21-0.231-0.314-0.367
		c-15.484-0.865-28.873,9.551-44.288,9.591c-1.126,0.002-1.229-1.74-0.102-1.74c14.913-0.036,27.914-9.804,42.808-9.648
		c-4.966-5.429-10.654-10.056-16.691-14.284c-2.033-1.417-4.076-2.831-6.118-4.23c-4.132,0.406-7.91,2.055-11.857,3.227
		c-3.442,1.014-6.895,1.42-10.48,1.171c-7.166-0.521-14.001-3.062-21.175-3.522c-1.114-0.075-1.218-1.828-0.095-1.752
		c7.031,0.459,13.735,2.844,20.751,3.474c4.113,0.37,7.97-0.218,11.89-1.483c2.937-0.953,5.818-2.007,8.833-2.564
		c-6.846-4.679-13.676-9.352-20.126-14.537c-9.57-0.503-19.841-1.595-26.263-9.583c-0.705-0.884,0.758-1.855,1.454-0.993
		c5.481,6.834,14.245,8.168,22.511,8.703c-2.411-2.004-4.767-4.095-7.041-6.312c-6.195-6.006-11.705-12.696-16.047-20.175
		c-0.565-0.968,0.882-1.951,1.455-0.976c6.283,10.808,14.963,19.759,24.56,27.633c0.434,0.035,0.705,0.336,0.805,0.67
		c1.015,0.827,2.045,1.63,3.081,2.424c0.187-2.655,0.043-5.291-0.338-7.903c-0.874-5.854-2.915-11.572-4.925-17.107
		c-0.386-1.069,1.282-1.624,1.664-0.565c3.115,8.615,6.188,17.555,5.232,26.829c0.811,0.627,1.636,1.242,2.46,1.843
		c4.643,3.4,9.48,6.591,14.28,9.816c0.034,0.019,0.061,0.041,0.093,0.065c2.572,1.72,5.124,3.472,7.63,5.279
		c2.193-6.534,0.348-13.442-1.631-19.807c-2.162-6.962-3.857-13.702-3.715-21.041c0.032-1.121,1.775-1.229,1.753-0.098
		c-0.083,4.085,0.279,8.156,1.186,12.153c0.891,3.888,2.263,7.644,3.354,11.477c1.732,6.033,2.68,12.354,0.521,18.405
		c5.255,3.877,10.259,8.059,14.632,12.978c2.747,3.08,5.247,6.337,7.63,9.7c4.524-6.834,2.62-15.553,0.923-23.051
		c-1.808-7.907-2.595-15.518-0.622-23.484c0.274-1.096,1.983-0.734,1.719,0.349c-1.073,4.329-1.49,8.768-1.11,13.218
		c0.415,4.896,1.83,9.61,2.774,14.401c1.335,6.809,1.532,14.21-2.621,20.077c2.608,3.758,5.069,7.638,7.523,11.504
		c0.605,0.945-0.852,1.934-1.46,0.978c-0.87-1.381-1.753-2.757-2.636-4.141c-5.511,1.721-11.197,3.351-16.987,2.127
		c-3.11-0.636-5.999-1.612-9.224-1.281c-3.102,0.306-5.976,1.54-8.427,3.447C159.326,460.89,158.352,459.44,159.24,458.744z"/>
</g>
<g>
	<g>
		<path style="fill:#A2DDD0;" d="M82.929,546.593c0,0,23.2-42.469,7.8-47.874c-10.172-3.57-13.482,36.151-13.482,36.151
			s-0.908-44.036-14.41-38.399c-10.188,4.245,3.424,36.037,3.424,36.037s-14.788-11.998-16.655-4.461
			c-2.966,11.971,14.055,18.764,14.055,18.764L82.929,546.593z"/>
		<path style="fill:#E0FBF0;" d="M78.158,546.648l11.229-35.194c0.061-0.193-0.045-0.398-0.238-0.462
			c-0.196-0.061-0.401,0.045-0.464,0.238l-11.305,35.427L78.158,546.648z"/>
		<path style="fill:#E0FBF0;" d="M75.236,546.68l-8.05-38.364c-0.042-0.2-0.237-0.331-0.433-0.285
			c-0.201,0.043-0.328,0.237-0.287,0.435l8.017,38.222L75.236,546.68z"/>
		<path style="fill:#E0FBF0;" d="M71.097,546.727l-15.292-13.16c-0.156-0.134-0.388-0.114-0.521,0.04
			c-0.132,0.152-0.115,0.388,0.04,0.518L69.98,546.74L71.097,546.727z"/>
		<path style="fill:#A2DDD0;" d="M99.864,495.685l0.612-0.414c-0.044-0.069-4.714-6.859-11.515-5.522l0.146,0.723
			C95.43,489.231,99.821,495.617,99.864,495.685z"/>
	</g>
	<path style="fill:#A2DDD0;" d="M41.594,529.016l0.718-0.17c-0.714-2.953-0.425-5.191,0.852-6.662
		c2.053-2.354,6.018-1.99,6.055-1.987l0.073-0.735c-0.173-0.017-4.377-0.405-6.678,2.235
		C41.165,523.359,40.821,525.824,41.594,529.016z"/>
</g>
<g>
	<path style="fill:#A2DDD0;" d="M252.548,560.555c0,0-25.087-47.173-4.706-46.677c8.381,0.208,15.617,37.716,15.617,37.716
		s-1.643-34.226,15.119-28.854c9.07,2.906-4.651,28.854-4.651,28.854s12.421-16.754,19.409-11.994
		c11.395,7.751-9.51,21.083-9.51,21.083L252.548,560.555z"/>
	<path style="fill:#A2DDD0;" d="M241.543,560.511c0,0-4.42-24.971-14.133-24.549c-6.952,0.316-0.681,17.223,5.21,24.529
		C232.621,560.491,241.274,560.508,241.543,560.511z"/>
	<path style="fill:#E0FBF0;" d="M258.64,560.576l-10.451-36.967c-0.068-0.251-0.329-0.395-0.573-0.325
		c-0.251,0.07-0.394,0.327-0.323,0.578l10.375,36.709L258.64,560.576z"/>
	<path style="fill:#E0FBF0;" d="M267.294,560.614l7.244-29.918c0.06-0.247-0.095-0.501-0.346-0.565
		c-0.251-0.053-0.502,0.095-0.566,0.348l-7.291,30.135H267.294z"/>
	<path style="fill:#E0FBF0;" d="M236.963,560.491l-6.686-16.68c-0.094-0.245-0.37-0.355-0.605-0.262
		c-0.24,0.097-0.357,0.369-0.262,0.607l6.544,16.333L236.963,560.491z"/>
	<path style="fill:#E0FBF0;" d="M274.98,560.655l13.159-14.842c0.172-0.191,0.157-0.485-0.039-0.66
		c-0.191-0.175-0.486-0.155-0.662,0.041l-13.702,15.457L274.98,560.655z"/>
	<path style="fill:#A2DDD0;" d="M258.005,512.81c0.059,0,0.11-0.007,0.165-0.025c0.242-0.09,0.366-0.363,0.269-0.602
		c-0.165-0.453-4.23-10.973-11.162-13.415c-2.552-0.896-5.161-0.578-7.762,0.947c-0.227,0.134-0.299,0.42-0.169,0.64
		c0.129,0.223,0.419,0.296,0.64,0.17c2.35-1.382,4.702-1.679,6.979-0.872c6.525,2.293,10.565,12.755,10.603,12.859
		C257.638,512.7,257.818,512.81,258.005,512.81z"/>
</g>
<g>
	<path style="fill:#A2DDD0;" d="M150.144,486.786c-9.811,0.101-19.529-0.31-29.207-1.477c-0.952-0.112-1.693,1.013-1.368,1.917
		c3.617,9.749,7.242,19.496,10.87,29.228c2.996,8.07,9.118,18.894,18.842,28.087c11.726,11.056,28.801,16.162,45.344,10.787
		c14.453-4.705,13.194-20.98,10.343-33.172c-3.526-15.021-16.528-24.472-29.112-30.49
		C167.676,487.741,159.254,486.705,150.144,486.786z"/>
	<path style="fill:#E0FBF0;" d="M120.472,486.693c5.136,4.319,10.298,8.668,16.004,12.251c0.476,0.288,0.955,0.575,1.427,0.858
		c-1.892-0.299-3.784-0.59-5.673-0.803c-2.394-0.254-4.794-0.185-7.123,0.457c-0.77,0.204-0.571,1.444,0.206,1.223
		c2.304-0.633,4.64-0.674,7.009-0.402c2.752,0.324,5.478,0.787,8.21,1.188c0.123,0.015,0.219,0.01,0.311-0.033
		c4.261,2.232,8.706,4.107,12.956,6.368c4.581,2.444,8.902,5.282,13.071,8.351c-5.228,2.794-11.94,1.424-17.548,0.913
		c-3.39-0.322-6.798-0.64-10.197-0.949c-2.61-0.243-5.326-0.459-7.535,1.191c-0.66,0.478,0.156,1.44,0.786,0.961
		c2.642-1.959,6.74-0.894,9.743-0.614c3.503,0.323,6.989,0.648,10.491,0.974c5.16,0.472,10.675,1.025,15.334-1.657
		c6.02,4.551,11.721,9.563,17.353,14.551c1.854,1.639,3.719,3.282,5.532,4.969c-16.254,4.498-33.498,3.768-49.184-2.619
		c-0.749-0.308-1.169,0.865-0.434,1.168c16.138,6.587,33.978,7.262,50.684,2.449c3.688,3.481,7.176,7.158,10.09,11.352
		c0.471,0.653,1.431-0.149,0.969-0.807c-1.071-1.549-2.233-3.017-3.442-4.443c0.009-0.037,0.007-0.068-0.001-0.111
		c-0.266-8.168-1.567-16.239-3.941-24.072c-2.376-7.809-5.479-16.753-11.836-22.208c-0.614-0.521-1.332,0.507-0.72,1.027
		c3.393,2.915,5.534,6.828,7.342,10.85c1.621,3.596,3.002,7.298,4.138,11.073c2.134,7.137,3.366,14.52,3.711,21.961
		c-1.738-1.929-3.574-3.765-5.455-5.532c-0.042-0.251-0.217-0.455-0.49-0.46c-0.997-0.95-2.019-1.864-3.053-2.791
		c-2.11-1.89-4.232-3.779-6.36-5.65c-0.766-6.288-2.301-12.257-4.809-18.101c-2.768-6.472-5.724-12.89-8.576-19.339
		c-0.333-0.729-1.477-0.216-1.156,0.529c2.775,6.226,5.604,12.427,8.313,18.686c2.386,5.494,3.955,11.076,4.791,16.962
		c-2.524-2.191-5.074-4.354-7.671-6.477c-1.623-1.319-3.274-2.619-4.949-3.883c-0.067-0.28-0.362-0.529-0.688-0.525
		c-3.229-2.386-6.529-4.655-9.978-6.698c-0.002-0.03-0.011-0.038-0.027-0.059c-2.008-3.572-2.044-7.721-3.114-11.578
		c-1.165-4.172-3.768-7.201-6.798-10.163c-0.573-0.554-1.544,0.245-0.963,0.798c1.521,1.492,3.064,2.996,4.28,4.757
		c1.221,1.787,2.018,3.775,2.507,5.871c0.73,3.091,0.994,6.319,2.203,9.269c-5.438-3.016-11.251-5.279-16.643-8.379
		c-6.64-3.813-12.541-8.765-18.378-13.688C120.572,485.141,119.853,486.162,120.472,486.693z"/>
</g>
<g>
	<path style="fill:#A2DDD0;" d="M409.833,541.534c5.761-4.607,10.604-10.371,13.686-17.682c3.207-7.589,4.61-16.016,5.975-24.341
		c0.211-1.303-0.917-2.688-2.065-2.005c-5.157,3.05-11.191,0.576-16.699-0.804c-4.529-1.128-9.078-2.132-13.659-2.758
		c-9.264-1.265-18.704-1.01-27.327,2.528c-4.643,1.897-8.83,4.8-12.456,8.408c-1.644,1.333-3.237,2.77-4.706,4.398
		c-7.759,8.621-12.889,21.766-11.228,34.766c0.831,6.481,5.469,7.896,10.457,9.643c6.496,2.271,13.271,3.343,19.936,3.157
		C385.636,556.457,398.831,550.324,409.833,541.534z"/>
	<path style="fill:#E0FBF0;" d="M375.192,555.359c-2.94-3.699-7.204-5.482-11.868-5.511c-2.641-0.015-5.063-0.107-7.571-1.021
		c-2.401-0.87-4.613-2.193-6.791-3.512c3.631-3.422,7.357-6.748,11.392-9.694c0.102-0.076,0.208-0.141,0.316-0.227
		c12.268,2.293,20.735,13.001,32.774,15.987c0.88,0.218,1.294-1.124,0.413-1.341c-11.647-2.888-19.936-13.014-31.606-15.748
		c4.922-3.291,10.255-5.816,15.784-7.963c1.861-0.719,3.728-1.432,5.593-2.134c3.151,1.11,5.788,3.122,8.647,4.795
		c2.497,1.453,5.117,2.433,7.967,2.924c5.701,0.969,11.53,0.293,17.225,1.309c0.885,0.155,1.303-1.195,0.411-1.351
		c-5.583-0.99-11.28-0.412-16.884-1.264c-3.286-0.5-6.187-1.698-9.008-3.439c-2.112-1.308-4.163-2.685-6.412-3.696
		c6.248-2.345,12.481-4.688,18.518-7.504c7.575,1.442,15.812,2.559,22.362-2.452c0.72-0.558-0.237-1.596-0.946-1.056
		c-5.594,4.29-12.699,3.652-19.262,2.485c2.268-1.104,4.51-2.286,6.713-3.583c5.993-3.506,11.582-7.678,16.409-12.69
		c0.628-0.648-0.316-1.694-0.95-1.042c-6.983,7.242-15.483,12.573-24.493,16.887c-0.346-0.056-0.616,0.128-0.759,0.369
		c-0.951,0.452-1.91,0.882-2.872,1.304c0.362-2.111,0.98-4.143,1.779-6.112c1.806-4.408,4.498-8.484,7.129-12.425
		c0.506-0.763-0.69-1.517-1.192-0.762c-4.087,6.137-8.203,12.534-9.234,19.967c-0.753,0.333-1.517,0.655-2.276,0.968
		c-4.28,1.768-8.673,3.333-13.043,4.933c-0.03,0.009-0.056,0.021-0.085,0.034c-2.34,0.851-4.671,1.731-6.976,2.663
		c-0.461-5.527,2.305-10.572,5.072-15.167c3.024-5.026,5.642-9.97,6.938-15.731c0.189-0.884-1.152-1.302-1.351-0.413
		c-0.719,3.208-1.782,6.32-3.257,9.271c-1.441,2.866-3.234,5.538-4.822,8.326c-2.51,4.384-4.462,9.142-3.936,14.285
		c-4.85,2.021-9.564,4.329-13.923,7.335c-2.738,1.882-5.316,3.946-7.823,6.119c-2.225-6.209,0.935-12.657,3.699-18.192
		c2.929-5.833,5.003-11.631,4.989-18.234c-0.005-0.909-1.409-0.954-1.41-0.058c0.008,3.59-0.517,7.139-1.667,10.543
		c-1.263,3.748-3.273,7.161-4.929,10.724c-2.349,5.065-3.922,10.813-1.802,16.194c-2.758,2.435-5.426,4.997-8.085,7.548
		c-0.654,0.623,0.294,1.676,0.953,1.045c0.944-0.912,1.898-1.818,2.854-2.731c3.977,2.401,8.109,4.766,12.868,4.919
		c2.553,0.1,4.998-0.109,7.455,0.768c2.366,0.834,4.375,2.35,5.925,4.31C374.713,557.019,375.753,556.073,375.192,555.359z"/>
</g>
<g>
	<g>
		<g>
			
				<rect x="283.05" y="380.358" transform="matrix(0.9865 -0.164 0.164 0.9865 -73.7325 52.9973)" style="fill:#29566D;" width="2.293" height="185.638"/>
		</g>
		<g>
			
				<rect x="338.935" y="380.358" transform="matrix(0.9865 -0.164 0.164 0.9865 -72.9807 62.1642)" style="fill:#29566D;" width="2.293" height="185.638"/>
		</g>
		<g>
			<rect x="292.43" y="524.671" style="fill:#29566D;" width="56.387" height="2.298"/>
		</g>
		<g>
			<rect x="288.438" y="500.225" style="fill:#29566D;" width="56.386" height="2.29"/>
		</g>
		<g>
			<rect x="284.445" y="475.776" style="fill:#29566D;" width="56.385" height="2.291"/>
		</g>
		<g>
			<rect x="280.456" y="451.325" style="fill:#29566D;" width="56.382" height="2.295"/>
		</g>
		<g>
			<rect x="276.465" y="426.874" style="fill:#29566D;" width="56.383" height="2.294"/>
		</g>
		<g>
			<rect x="272.469" y="402.428" style="fill:#29566D;" width="56.386" height="2.286"/>
		</g>
	</g>
</g>
<g>
	<path style="fill:#FFD471;" d="M222.697,282.853c2.787-47.513,38.458-85.143,78.194-85.143c39.736,0,74.961,37.63,77.749,85.143
		h8.405c-2.804-57.466-38.384-103.181-86.153-103.181c-47.768,0-83.026,45.715-85.83,103.181H222.697z"/>
	<path style="fill:#98D4FC;" d="M229.124,282.853c2.558-43.615,35.304-78.159,71.779-78.159c36.478,0,68.813,34.544,71.372,78.159
		h7.715c-2.573-52.753-35.237-94.717-79.087-94.717c-43.847,0-76.216,41.964-78.789,94.717H229.124z"/>
	<path style="fill:#A2DDD0;" d="M236.058,282.853c2.298-39.206,31.733-70.257,64.523-70.257c32.79,0,61.856,31.051,64.155,70.257
		h7.54c-2.315-47.42-32.279-85.143-71.694-85.143c-39.415,0-69.142,37.723-71.457,85.143H236.058z"/>
	<path style="fill:#FFFFFF;" d="M402.685,293.867c-0.583-0.952-1.362-1.686-2.253-2.198c1.765-1.337,2.663-3.896,1.762-6.343
		c-1.129-3.07-4.199-4.169-6.825-3.147c0.463-2.538,0.455-5.187-0.612-7.557c-1.159-2.571-3.539-4.212-6.1-4.635
		c-4.937-0.817-8.9,3.016-10.222,7.854c-1.008-1.178-2.297-2.066-3.832-1.854c-0.925,0.125-1.71,0.62-2.243,1.326
		c-1.683-2.98-5.161-4.421-8.348-3.051c-3.436,1.48-5.002,5.241-4.455,8.9c-2.298-1.097-5.165-0.717-7.139,1.083
		c-2.617,2.385-2.022,5.52-0.153,7.829c-1.284,1.467-1.804,3.579-0.677,5.551c1.069,1.865,3.142,2.3,4.719,1.393
		c0.486,2.89,2.774,5.124,5.551,5.483c2.77,0.357,5.207-0.967,7.039-3.027c0.099,2.096,0.994,3.916,3.491,3.877
		c2.468-0.037,5.269-2.37,6.553-4.939c1.268,1.703,3.365,2.526,5.446,2.248c3.002-0.402,5.148-3.013,6.485-5.817
		c2.785,2.984,7.911,5.177,11.301,2.502C403.879,297.996,403.768,295.642,402.685,293.867z"/>
	<path style="fill:#FFFFFF;" d="M254.741,293.867c-0.583-0.952-1.362-1.686-2.253-2.198c1.765-1.337,2.664-3.896,1.763-6.343
		c-1.129-3.07-4.199-4.169-6.825-3.147c0.463-2.538,0.455-5.187-0.611-7.557c-1.159-2.571-3.54-4.212-6.1-4.635
		c-4.937-0.817-8.899,3.016-10.222,7.854c-1.006-1.178-2.296-2.066-3.833-1.854c-0.924,0.125-1.71,0.62-2.242,1.326
		c-1.683-2.98-5.161-4.421-8.349-3.051c-3.436,1.48-5.001,5.241-4.453,8.9c-2.301-1.097-5.167-0.717-7.141,1.083
		c-2.618,2.385-2.022,5.52-0.153,7.829c-1.284,1.467-1.804,3.579-0.677,5.551c1.069,1.865,3.143,2.3,4.719,1.393
		c0.488,2.89,2.774,5.124,5.551,5.483c2.77,0.357,5.21-0.967,7.039-3.027c0.099,2.096,0.994,3.916,3.491,3.877
		c2.469-0.037,5.27-2.37,6.553-4.939c1.268,1.703,3.365,2.526,5.446,2.248c3.003-0.402,5.148-3.013,6.485-5.817
		c2.788,2.984,7.911,5.177,11.301,2.502C255.938,297.996,255.824,295.642,254.741,293.867z"/>
</g>
<g>
	<path style="fill:#12252E;" d="M319.855,285.72c2.291-8.374-5.02-23.776-3.867-29.362c1.686-8.096-1.864-13.448-7.993-15.005
		c0.153-0.621,0.217-1.292,0.217-1.99c0-3.223-3.004-6.018-6.041-6.018c-3.039,0-5.518,2.919-5.518,6.018
		c0,0.577,0.039,1.129,0.127,1.653c-6.576,1.544-10.445,8.529-8.938,15.504c1.853,8.539-3.467,18.572-3.462,29.199H319.855z"/>
	<g>
		<defs>
			<path id="SVGID_1_" d="M256.499,337.755l-5.513-3.638c1.69-4.075,15.166-6.628,19.412-17.026
				c5.349-13.102-0.657-29.363,21.393-36.275l21.874,0.374c18.188,4.134,15.932,11.994,24.302,32.627
				c5.89,14.522,16.861,14.737,17.134,17.794c0.226,2.49-5.063,3.534-5.612,3.523c-7.742-0.141-15.307-4.039-16.98-6.58
				c-7.197-10.954-8.814-14.529-8.949-16.955c0,0-0.423,2.762,0.141,12.81c0.684,12.069,3.551,12.601,0.439,17.675
				c0,0-11.479,3.478-19.137,3.06c-7.428-0.403-19.464-4.947-19.464-4.947c-2.622-3.876-0.876-5.219-0.184-15.244
				c0.703-10.207,0.653-14.304,0.653-14.304c-0.436,3.793,0.488,7.5-8.405,17.906C272.855,334.104,261.846,338.738,256.499,337.755z
				"/>
		</defs>
		<clipPath id="SVGID_00000078758190173670578740000007656997425578202771_">
			<use xlink:href="#SVGID_1_"  style="overflow:visible;"/>
		</clipPath>
		<path style="clip-path:url(#SVGID_00000078758190173670578740000007656997425578202771_);fill:#FFD471;" d="M256.499,337.755
			l-5.513-3.638c1.69-4.075,15.166-6.628,19.412-17.026c5.349-13.102-0.657-29.363,21.393-36.275l21.874,0.374
			c18.188,4.134,15.932,11.994,24.302,32.627c5.89,14.522,16.861,14.737,17.134,17.794c0.226,2.49-5.063,3.534-5.612,3.523
			c-7.742-0.141-15.307-4.039-16.98-6.58c-7.197-10.954-8.814-14.529-8.949-16.955c0,0-0.423,2.762,0.141,12.81
			c0.684,12.069,3.551,12.601,0.439,17.675c0,0-11.479,3.478-19.137,3.06c-7.428-0.403-19.464-4.947-19.464-4.947
			c-2.622-3.876-0.876-5.219-0.184-15.244c0.703-10.207,0.653-14.304,0.653-14.304c-0.436,3.793,0.488,7.5-8.405,17.906
			C272.855,334.104,261.846,338.738,256.499,337.755z"/>
	</g>
	<path style="fill:#FFA18A;" d="M296.569,269.946v7.225c0,0.668-0.307,1.305-0.834,1.684c-1.417,1.038-3.944,1.961-3.944,1.961
		s4.243,2.839,10.723,2.839c8.231,0,11.151-2.465,11.151-2.465s-2.89-0.493-4.94-2.232c-0.404-0.351-0.635-0.873-0.629-1.418
		l0.054-7.593H296.569z"/>
	<path style="opacity:0.3;fill:#FFA18A;" d="M308.096,273.704c-2.585,2.262-8.754,2.408-11.519,0.04v-3.008l11.528-0.043
		L308.096,273.704z"/>
	<path style="fill:#FFA18A;" d="M313.824,257.686c-0.084,0-0.167,0.001-0.249,0.012l0.015-4.467
		c0.016-6.356-4.686-9.413-11.07-9.433l0,0c-6.38-0.011-12.023,3.02-12.043,9.373l-0.012,4.463c-0.036,0-0.069-0.007-0.102-0.007
		c-1.387-0.004-2.511,1.112-2.519,2.5c-0.002,1.379,1.119,2.499,2.508,2.504c0.057,0,0.12-0.005,0.183-0.008
		c1.634,5.791,6.125,11.619,11.339,11.619l0,0c6.077,0,10.109-5.181,11.609-11.581c0.107,0.016,0.214,0.028,0.326,0.028
		c1.386,0.001,2.512-1.113,2.514-2.499C316.328,258.811,315.209,257.688,313.824,257.686z"/>
	<path style="fill:#12252E;" d="M313.575,257.699c3.126-19.117-15.834-17.76-21.176-13.088c-3.481,3.038-1.934,13.023-1.934,13.023
		c0.082-0.007,8.388-12.787,11.956-11.559C306.44,244.744,313.575,257.699,313.575,257.699z"/>
	<path style="fill:#2A817D;" d="M286.195,338.972c-15.425-5.103-40.471-1.197-41.342,4.538
		c-2.534,16.697,21.613,17.352,37.77,19.751c5.837,0.87,12.471,4.028,20.849,3.603c51.643-2.617,61.783-17.682,59.161-25.978
		c-1.472-4.671-12.442-9.826-37.768-0.986c-6.806,2.381-11.727,4.777-20.081,4.373C296.691,343.873,292.439,341.041,286.195,338.972
		z"/>
	<path style="fill:#FFA18A;" d="M256.864,335.404c-0.882-1.612-4.751-1.538-5.495-1.396c-3.714,0.695-8.193,4.48-8.186,8.209
		c0.002,3.543,2.394,6.766,3.821,6.454c0.935-0.203,1.017-1.695,2.271-6.001c0.506-1.73,2.529-3.791,2.93-3.638
		c0.527,0.196-1.238,4.386-0.419,4.768C252.696,344.212,257.975,337.435,256.864,335.404z"/>
	<path style="fill:#FFA18A;" d="M348.679,332.335c0.875-1.604,4.746-1.533,5.491-1.387c3.717,0.688,8.196,4.472,8.189,8.205
		c-0.003,3.546-2.398,6.772-3.818,6.459c-0.94-0.203-1.023-1.695-2.278-6.008c-0.502-1.726-2.53-3.791-2.929-3.635
		c-0.526,0.195,1.238,4.387,0.415,4.764C352.842,341.15,347.563,334.376,348.679,332.335z"/>
	<path style="fill:#FFA18A;" d="M306.93,364.102c-0.347-3.14-9.215-0.373-14.129-1.358c-9.134-1.822-13.776,0.159-14.325,2.296
		c-0.692,2.701,1.882,5.102,6.058,6.413c3.335,1.043,6.244,0.021,12.415-1.723C302.567,368.15,307.34,367.829,306.93,364.102z"/>
	<path style="fill:#FFA18A;" d="M303.664,359.744c-1.319-2.87,7.705-5.067,11.406-8.444c6.885-6.273,11.891-6.971,13.458-5.424
		c0.684,0.674,1.017,1.521,1.042,2.468c0,0-5.629,5.021-11.108,7.752c-3.163,1.579-11.771,5.448-11.771,5.448
		C305.318,361.557,304.285,361.086,303.664,359.744z"/>
	<g>
		<path style="fill:#25716D;" d="M256.757,340.019c3.299,0.32,6.343,1.805,9.362,3.073c3.103,1.302,6.22,2.57,9.343,3.815
			c6.238,2.48,12.498,4.915,18.963,6.746c3.632,1.026,7.311,1.897,11.018,2.604c0.202,0.038,0.288-0.271,0.084-0.311
			c-6.609-1.266-13.117-3.037-19.453-5.306c-6.44-2.31-12.783-4.903-19.094-7.533c-3.302-1.377-6.618-3.06-10.225-3.406
			C256.554,339.678,256.554,340.002,256.757,340.019L256.757,340.019z"/>
	</g>
	<g>
		<path style="fill:#25716D;" d="M330.224,348.147c2.861-2.347,6.323-3.866,9.501-5.725c3.183-1.872,6.378-3.802,9.955-4.816
			c0.198-0.059,0.116-0.365-0.083-0.308c-3.607,1.023-6.828,2.966-10.034,4.847c-3.2,1.879-6.685,3.415-9.561,5.776
			C329.837,348.052,330.065,348.272,330.224,348.147L330.224,348.147z"/>
	</g>
	<path style="fill:#FFBC33;" d="M286.218,310.595c-0.074-2.354-0.352-4.692-0.389-7.04c-0.034-2.355,0.244-4.662,0.979-6.901
		c0.067-0.198-0.242-0.283-0.306-0.087c-0.727,2.198-1.017,4.468-0.996,6.778c0.023,2.422,0.313,4.829,0.392,7.25
		C285.902,310.8,286.228,310.8,286.218,310.595L286.218,310.595z"/>
	<path style="fill:#FFBC33;" d="M323.743,311.397c0.253-1.179-0.005-2.324-0.302-3.47c-0.347-1.318-0.615-2.645-0.787-4.003
		c-0.341-2.658-0.501-5.347-0.722-8.012c-0.018-0.208-0.339-0.208-0.322,0c0.217,2.598,0.379,5.218,0.7,7.814
		c0.145,1.181,0.337,2.353,0.622,3.513c0.33,1.338,0.799,2.687,0.505,4.071C323.39,311.51,323.699,311.599,323.743,311.397
		L323.743,311.397z"/>
	<path style="fill:#FFBC33;" d="M270.073,319.082c0.765,0.431,1.533,0.87,2.183,1.474c0.594,0.554,1.088,1.205,1.463,1.927
		c0.095,0.183,0.375,0.021,0.275-0.165c-0.386-0.738-0.897-1.419-1.513-1.992c-0.67-0.619-1.455-1.08-2.249-1.522
		C270.054,318.699,269.887,318.98,270.073,319.082L270.073,319.082z"/>
	<path style="fill:#FFBC33;" d="M339.311,318.651c-1.186,1.041-1.71,2.582-2.182,4.037c-0.064,0.196,0.243,0.284,0.309,0.086
		c0.455-1.402,0.955-2.889,2.097-3.893C339.693,318.742,339.465,318.515,339.311,318.651L339.311,318.651z"/>
</g>
</svg>
